<svg width="421" height="467" viewBox="0 0 421 467" fill="none" xmlns="http://www.w3.org/2000/svg">
<path fill-rule="evenodd" clip-rule="evenodd" d="M210.5 0C189.751 0 155.078 7.73469 122.451 16.345C89.0717 25.1012 55.4218 35.4628 35.6348 41.7381C27.3619 44.3898 20.0274 49.2529 14.474 55.7686C8.92064 62.2843 5.37354 70.1883 4.24023 78.5727C-13.6823 209.245 27.9064 306.089 78.3662 370.156C99.7645 397.562 125.278 421.696 154.056 441.753C165.664 449.721 176.429 455.821 185.571 459.995C193.991 463.848 203.042 467 210.5 467C217.958 467 226.979 463.848 235.429 459.995C246.45 454.796 256.993 448.693 266.944 441.753C295.722 421.697 321.236 397.562 342.634 370.156C393.094 306.089 434.682 209.245 416.76 78.5727C415.628 70.1843 412.082 62.2756 406.529 55.7549C400.976 49.2342 393.64 44.3659 385.365 41.7089C356.641 32.5678 327.694 24.101 298.549 16.3158C265.922 7.76387 231.249 0 210.5 0ZM275.033 150.199C277.857 147.459 281.686 145.919 285.679 145.919C289.671 145.919 293.5 147.459 296.324 150.199C299.147 152.939 300.733 156.656 300.733 160.531C300.733 164.407 299.147 168.123 296.324 170.864L206.11 258.426C204.713 259.785 203.054 260.863 201.227 261.599C199.4 262.335 197.442 262.714 195.464 262.714C193.487 262.714 191.528 262.335 189.702 261.599C187.875 260.863 186.216 259.785 184.819 258.426L139.712 214.645C138.314 213.288 137.205 211.677 136.448 209.904C135.692 208.132 135.302 206.231 135.302 204.312C135.302 202.394 135.692 200.493 136.448 198.721C137.205 196.948 138.314 195.337 139.712 193.98C141.11 192.623 142.769 191.547 144.596 190.813C146.423 190.078 148.38 189.7 150.357 189.7C152.334 189.7 154.292 190.078 156.118 190.813C157.945 191.547 159.605 192.623 161.002 193.98L195.464 227.458L275.033 150.199Z" fill="#49ABDF"/>
</svg>
