<svg width="80" height="90" viewBox="0 0 80 90" fill="none" xmlns="http://www.w3.org/2000/svg">
<path fill-rule="evenodd" clip-rule="evenodd" d="M40 0C36.0571 0 29.4686 1.49063 23.2686 3.15C16.9257 4.8375 10.5315 6.83438 6.77145 8.04375C5.19941 8.55479 3.80569 9.49199 2.75041 10.7477C1.69513 12.0034 1.0211 13.5267 0.805745 15.1425C-2.59997 40.3256 5.30288 58.9894 14.8914 71.3363C18.9576 76.6179 23.8059 81.2691 29.2743 85.1344C31.48 86.67 33.5257 87.8456 35.2629 88.65C36.8629 89.3925 38.5829 90 40 90C41.4171 90 43.1314 89.3925 44.7371 88.65C46.8313 87.648 48.8348 86.4719 50.7257 85.1344C56.1942 81.2692 61.0425 76.618 65.1086 71.3363C74.6971 58.9894 82.6 40.3256 79.1943 15.1425C78.9793 13.5259 78.3054 12.0017 77.2502 10.7451C76.1949 9.48839 74.801 8.55017 73.2285 8.03813C67.7703 6.27645 62.2697 4.64472 56.7314 3.14438C50.5314 1.49625 43.9429 0 40 0ZM52.2628 28.9463C52.7993 28.4181 53.527 28.1214 54.2857 28.1214C55.0444 28.1214 55.7721 28.4181 56.3086 28.9463C56.8451 29.4744 57.1465 30.1906 57.1465 30.9375C57.1465 31.6844 56.8451 32.4006 56.3086 32.9288L39.1657 49.8038C38.9003 50.0657 38.585 50.2735 38.2379 50.4153C37.8908 50.557 37.5187 50.63 37.1429 50.63C36.767 50.63 36.3949 50.557 36.0478 50.4153C35.7007 50.2735 35.3854 50.0657 35.12 49.8038L26.5486 41.3663C26.2829 41.1048 26.0722 40.7943 25.9284 40.4527C25.7847 40.111 25.7107 39.7448 25.7107 39.375C25.7107 39.0052 25.7847 38.639 25.9284 38.2973C26.0722 37.9557 26.2829 37.6452 26.5486 37.3837C26.8142 37.1223 27.1296 36.9148 27.4767 36.7733C27.8238 36.6318 28.1958 36.5589 28.5714 36.5589C28.9471 36.5589 29.3191 36.6318 29.6662 36.7733C30.0133 36.9148 30.3286 37.1223 30.5943 37.3837L37.1429 43.8356L52.2628 28.9463Z" fill="#4689AF"/>
</svg>
