<svg width="28" height="20" viewBox="0 0 28 20" fill="none" xmlns="http://www.w3.org/2000/svg">
<path d="M12 12.5052C12 15.54 9.31371 18 6 18C2.68629 18 0 15.54 0 12.5052C0 7.6972 6 2 6 2C6 2 12 7.6968 12 12.5052Z" fill="#C84456"/>
<path fill-rule="evenodd" clip-rule="evenodd" d="M6 17.2C8.85557 17.2 11.1429 15.084 11.1429 12.5052C11.1429 10.3624 9.78086 7.9108 8.295 5.9044C7.58851 4.95463 6.82216 4.04489 6 3.18C5.17784 4.04489 4.41149 4.95463 3.705 5.9044C2.21914 7.9108 0.857143 10.3624 0.857143 12.5052C0.857143 15.0836 3.14443 17.2 6 17.2ZM5.41714 2.588C3.90943 4.1636 0 8.624 0 12.5052C0 15.54 2.68629 18 6 18C9.31371 18 12 15.54 12 12.5052C12 8.624 8.09057 4.1636 6.58286 2.588C6.22286 2.212 6 2 6 2C6 2 5.77714 2.212 5.41714 2.588Z" fill="#C84456"/>
</svg>
