<svg width="333" height="471" viewBox="0 0 333 471" fill="none" xmlns="http://www.w3.org/2000/svg">
<path fill-rule="evenodd" clip-rule="evenodd" d="M218.371 41.882C246.604 16.8051 283.547 1.35343 333 0.0861816V10.0848C301.433 10.924 275.509 17.7875 253.943 29.2271C276.608 23.8234 302.734 22.0334 333 24.6033V29.6213C294.94 26.3402 263.726 30.056 237.853 39.144C228.263 45.9463 219.659 53.7771 211.884 62.4607C176.914 101.518 158.134 158.428 143.14 219.433C138.879 236.767 134.923 254.451 130.975 272.096L130.975 272.096C121.143 316.041 111.365 359.746 97.0808 397.196C86.1322 425.9 72.3602 451.443 53.5502 471H39.123C60.3507 452.183 75.6119 425.422 87.7374 393.632C101.749 356.898 111.272 314.326 121.035 270.688L121.035 270.687L121.035 270.686C125.019 252.876 129.043 234.888 133.429 217.047C148.434 155.995 167.655 96.868 204.434 55.7901C204.601 55.604 204.768 55.4183 204.935 55.2329C194.563 61.9584 185.299 69.787 176.969 78.5289C141.574 115.674 122.697 169.624 107.703 226.945C103.415 243.336 99.4437 260.016 95.4877 276.631C85.671 317.86 75.9493 358.69 61.7257 393.729C48.9828 425.12 32.511 452.183 8.89831 471H0.583589C26.0939 452.863 43.5938 425.102 57.0929 391.848C71.1648 357.183 80.7446 316.947 90.5227 275.878L90.5229 275.877C94.4992 259.176 98.5084 242.337 102.866 225.679C117.872 168.313 136.994 113.232 173.349 75.0796C186.101 61.698 200.932 50.4377 218.371 41.882Z" fill="url(#paint0_linear_19:86)"/>
<defs>
<linearGradient id="paint0_linear_19:86" x1="327.605" y1="49.9165" x2="-29.2259" y2="274.257" gradientUnits="userSpaceOnUse">
<stop offset="0.284033" stop-color="#315A95"/>
<stop offset="1" stop-color="#7EB9DA"/>
</linearGradient>
</defs>
</svg>
