<svg width="24" height="24" viewBox="0 0 24 24" fill="none" xmlns="http://www.w3.org/2000/svg">
<path d="M21.5984 8.84741V17.3998C21.5984 18.1955 21.2824 18.9585 20.7198 19.5211C20.1571 20.0837 19.3941 20.3998 18.5984 20.3998H5.39844C4.60279 20.3998 3.83973 20.0837 3.27712 19.5211C2.71451 18.9585 2.39844 18.1955 2.39844 17.3998V8.84741L11.6936 14.317C11.786 14.3715 11.8912 14.4002 11.9984 14.4002C12.1056 14.4002 12.2109 14.3715 12.3032 14.317L21.5984 8.84741ZM18.5984 4.7998C19.3366 4.79969 20.0489 5.07173 20.5991 5.56389C21.1492 6.05605 21.4986 6.73377 21.5804 7.4674L11.9984 13.1038L2.41644 7.4674C2.49823 6.73377 2.84763 6.05605 3.39779 5.56389C3.94796 5.07173 4.66026 4.79969 5.39844 4.7998H18.5984Z" fill="#A3A1A1"/>
</svg>
