<svg width="918" height="999" viewBox="0 0 918 999" fill="none" xmlns="http://www.w3.org/2000/svg">
<path fill-rule="evenodd" clip-rule="evenodd" d="M916.301 972.413C916.869 972.719 917.435 973.024 918 973.328V982.804C913.227 980.347 908.33 977.802 903.323 975.17C838.487 941.088 755.056 892.416 680.816 834.097C606.636 775.825 541.335 707.696 513.163 634.624C499.057 598.036 494.244 560.165 502.332 521.698C510.419 483.235 531.363 444.368 568.462 405.712C605.101 367.537 623.938 332.933 629.192 301.67C634.433 270.488 626.212 242.324 608.103 216.827C573.68 168.358 503.676 129.754 423.42 99.6462C489.879 129.53 546.647 167.293 574.46 214.725C591.474 243.74 597.603 276.294 588.613 312.296C579.683 348.061 555.979 386.667 514.464 428.435C474.154 468.991 452.218 508.256 444.105 545.765C436.005 583.214 441.547 619.541 457.275 654.537C488.905 724.917 561.532 789.439 645.58 844.391C729.401 899.194 823.539 943.82 896.832 974.77C904.106 977.842 911.172 980.778 918 983.575V998.696C909.5 995.24 900.608 991.562 891.386 987.667C817.711 956.556 722.724 911.556 637.919 856.109C553.342 800.811 477.844 734.458 444.505 660.276C427.749 622.991 421.595 583.614 430.421 542.806C439.235 502.057 462.846 460.509 504.535 418.566C545.02 377.834 566.926 341.361 575.03 308.904C583.076 276.683 577.666 247.87 562.383 221.807C531.402 168.973 459.68 127.176 375.747 95.0373C292.245 63.0647 198.396 41.2821 125.28 27.4882C88.7523 20.5969 57.4625 15.711 35.3133 12.5491C24.2397 10.9682 15.4537 9.8187 9.44323 9.06518C6.43816 8.68844 4.12712 8.41072 2.57128 8.22761C1.79332 8.13606 1.20421 8.06816 0.811512 8.02337C0.615162 8.00098 0.467945 7.98436 0.370777 7.97344L0.262684 7.96135L0.237049 7.95849C0.232167 7.95795 0.230458 7.95776 0.999806 1.00017C1.76915 -5.95742 1.77385 -5.95691 1.78167 -5.95604L1.81328 -5.95252L1.93328 -5.93909C2.03838 -5.92728 2.19371 -5.90975 2.39818 -5.88643C2.80712 -5.83978 3.41277 -5.76997 4.20757 -5.67643C5.79717 -5.48936 8.14324 -5.20738 11.1848 -4.82608C17.2676 -4.06348 26.133 -2.90343 37.2918 -1.31043C59.6073 1.87527 91.1067 6.79408 127.876 13.7309C168.071 21.3142 214.641 31.323 262.435 44.1387C320.286 56.8784 383.764 73.5391 442.924 94.7394C528.959 125.571 606.545 166.234 643.989 218.955C662.806 245.45 671.535 275.063 666.017 307.895C660.516 340.629 640.915 376.195 603.832 414.834C567.291 452.907 546.544 490.842 538.034 528.03C529.525 565.211 533.199 601.856 545.833 637.438C571.145 708.727 632.376 775.607 703.204 833.21C773.963 890.757 853.955 938.771 916.301 972.413ZM799.133 910.032C765.682 888.25 731.61 864.046 699.418 837.865C628.322 780.043 566.049 712.305 540.179 639.446C527.222 602.954 523.386 565.143 532.185 526.692C540.982 488.25 562.361 449.379 599.503 410.679C636.101 372.546 654.869 338.03 660.1 306.9C665.316 275.868 657.141 247.835 639.097 222.429C602.817 171.348 526.844 131.187 440.899 100.388C434.992 98.2709 429.042 96.1993 423.057 94.1725C504.356 124.453 576.535 163.743 612.18 213.931C630.933 240.336 639.615 269.817 634.123 302.499C628.644 335.099 609.113 370.577 572.069 409.175C535.487 447.292 515.084 485.349 507.225 522.726C499.367 560.099 504.01 596.983 517.829 632.826C545.507 704.617 609.936 772.059 683.905 830.165C721.15 859.423 760.74 886.257 799.133 910.032Z" fill="url(#paint0_linear_13:81)"/>
<defs>
<linearGradient id="paint0_linear_13:81" x1="903.106" y1="100.352" x2="76.0308" y2="773.273" gradientUnits="userSpaceOnUse">
<stop offset="0.284033" stop-color="#315A95"/>
<stop offset="1" stop-color="#7EB9DA"/>
</linearGradient>
</defs>
</svg>
