<svg width="726" height="690" viewBox="0 0 726 690" fill="none" xmlns="http://www.w3.org/2000/svg">
<path fill-rule="evenodd" clip-rule="evenodd" d="M0 20.9956C28.6241 16.3109 67.6971 17.0353 110.876 24.1271C114.86 24.934 118.88 25.8031 122.93 26.735C171.437 37.8963 224.219 58.0511 272.189 88.1107C368.113 148.219 444.728 247.867 429.655 394.447C420.233 486.082 429.815 550.937 451.961 596.726C474.123 642.549 508.821 669.18 549.395 684.437C554.856 686.491 560.425 688.339 566.083 690H573.536C565.54 687.89 557.713 685.429 550.098 682.565C509.931 667.461 475.668 641.15 453.761 595.855C431.838 550.525 422.243 486.085 431.645 394.652C446.816 247.11 369.628 146.808 273.251 86.4159C236.276 63.246 196.465 45.9408 157.937 34.0801C193.58 43.2995 230.377 56.6727 265.236 74.6669C362.172 124.705 442.784 209.705 442.784 339C442.784 432.017 459.134 501.709 486.405 553.936C513.718 606.241 551.815 640.7 594.693 663.448C616.633 675.088 639.831 683.655 663.461 690H725.759C711.462 688.092 697.112 685.636 682.884 682.442C670.073 678.187 657.487 673.284 645.237 667.628C597.033 645.37 554.101 611.467 523.194 559.479C492.275 507.471 473.284 437.184 473.284 342C473.284 196.338 384.672 105.778 279.179 54.8191C182.468 8.10267 71.2102 -5.54398 0 2.01494V7.04299C70.1806 -0.535563 180.834 12.8661 277.004 59.3214C381.389 109.745 468.284 198.859 468.284 342C468.284 437.84 487.407 509.068 518.896 562.034C548.812 612.355 589.794 646.032 635.788 668.662C623.679 664.175 611.815 658.948 600.317 652.848C559.407 631.143 523.144 598.368 497.043 548.382C470.901 498.318 454.784 430.662 454.784 339C454.784 203.664 370.069 115.277 270.741 64.0038C175.07 14.6187 64.6007 -1.05297 0 8.84651V20.9956Z" fill="url(#paint0_linear_19:79)"/>
<defs>
<linearGradient id="paint0_linear_19:79" x1="713.981" y1="73.0638" x2="135.093" y2="615.411" gradientUnits="userSpaceOnUse">
<stop offset="0.284033" stop-color="#315A95"/>
<stop offset="1" stop-color="#7EB9DA"/>
</linearGradient>
</defs>
</svg>
