<svg width="231" height="1078" viewBox="0 0 231 1078" fill="none" xmlns="http://www.w3.org/2000/svg">
<path fill-rule="evenodd" clip-rule="evenodd" d="M230.004 0C210.055 21.476 190.246 44.1614 171.107 67.912C29.1099 244.118 -76.3255 479.304 71.3952 714.152C145.07 831.281 191.608 912.394 219.976 968.177C223.611 975.325 226.947 982.056 230.004 988.393V983.81C227.443 978.559 224.698 973.05 221.759 967.27C193.351 911.41 146.777 830.239 73.0881 713.087C-73.9177 479.376 30.8132 245.192 172.664 69.1669C191.304 46.0366 210.58 23.9167 230.004 2.94112V0ZM230.004 23.8454C220.197 35.1373 210.491 46.7116 200.951 58.5505C58.8079 234.938 -47.332 471.126 101.104 707.111C161.185 802.628 202.424 864.933 230.004 903.577V893.204C202.629 854.35 162.812 793.947 106.182 703.916C-40.1085 471.341 63.9178 238.159 205.623 62.3154C213.645 52.3611 221.785 42.594 230.004 33.0247V23.8454ZM230.004 1063.45L227.685 1074.77C227.075 1075.56 227.076 1075.56 227.077 1075.57L227.083 1075.57L227.103 1075.59L227.182 1075.65C227.226 1075.68 227.284 1075.72 227.355 1075.78L227.48 1075.87C227.74 1076.06 228.119 1076.34 228.599 1076.68C229 1076.96 229.472 1077.29 230.004 1077.65V1075.22C229.918 1075.16 229.836 1075.1 229.756 1075.05C229.288 1074.72 228.921 1074.45 228.672 1074.26L228.554 1074.18C228.486 1074.12 228.43 1074.08 228.389 1074.05L228.318 1074L228.301 1073.98L230.004 1066.4V1063.45Z" fill="url(#paint0_linear_8:104)"/>
<defs>
<linearGradient id="paint0_linear_8:104" x1="226.271" y1="114.033" x2="-106.202" y2="177.233" gradientUnits="userSpaceOnUse">
<stop offset="0.284033" stop-color="#315A95"/>
<stop offset="1" stop-color="#7EB9DA"/>
</linearGradient>
</defs>
</svg>
