<?xml version="1.0" encoding="UTF-8"?>
<!--Generator: Apple Native CoreSVG 175-->
<!DOCTYPE svg
PUBLIC "-//W3C//DTD SVG 1.1//EN"
       "http://www.w3.org/Graphics/SVG/1.1/DTD/svg11.dtd">
<svg version="1.1" xmlns="http://www.w3.org/2000/svg" xmlns:xlink="http://www.w3.org/1999/xlink" width="3300" height="2200">
 <!--glyph: "uni1004A6.medium", point size: 100.0, font version: "17.0d12e1", template writer version: "65.1"-->
 <style>.multicolor-0:systemGreenColor {fill:#28CD41;opacity:1.0}
.multicolor-1:white {fill:#FFFFFF;opacity:1.0}

.hierarchical-0:tertiary {fill:#8E8E8E}
.hierarchical-1:primary {fill:#212121}

.SFSymbolsPreview28CD41 {fill:#28CD41;opacity:1.0}
.SFSymbolsPreviewFFFFFF {fill:#FFFFFF;opacity:1.0}
</style>
 <g id="Notes">
  <rect height="2200" id="artboard" style="fill:white;opacity:1" width="3300" x="0" y="0"/>
  <line style="fill:none;stroke:black;opacity:1;stroke-width:0.5;" x1="263" x2="3036" y1="292" y2="292"/>
  <text style="stroke:none;fill:black;font-family:sans-serif;font-size:13;font-weight:bold;" transform="matrix(1 0 0 1 263 322)">Weight/Scale Variations</text>
  <text style="stroke:none;fill:black;font-family:sans-serif;font-size:13;text-anchor:middle;" transform="matrix(1 0 0 1 559.711 322)">Ultralight</text>
  <text style="stroke:none;fill:black;font-family:sans-serif;font-size:13;text-anchor:middle;" transform="matrix(1 0 0 1 856.422 322)">Thin</text>
  <text style="stroke:none;fill:black;font-family:sans-serif;font-size:13;text-anchor:middle;" transform="matrix(1 0 0 1 1153.13 322)">Light</text>
  <text style="stroke:none;fill:black;font-family:sans-serif;font-size:13;text-anchor:middle;" transform="matrix(1 0 0 1 1449.84 322)">Regular</text>
  <text style="stroke:none;fill:black;font-family:sans-serif;font-size:13;text-anchor:middle;" transform="matrix(1 0 0 1 1746.56 322)">Medium</text>
  <text style="stroke:none;fill:black;font-family:sans-serif;font-size:13;text-anchor:middle;" transform="matrix(1 0 0 1 2043.27 322)">Semibold</text>
  <text style="stroke:none;fill:black;font-family:sans-serif;font-size:13;text-anchor:middle;" transform="matrix(1 0 0 1 2339.98 322)">Bold</text>
  <text style="stroke:none;fill:black;font-family:sans-serif;font-size:13;text-anchor:middle;" transform="matrix(1 0 0 1 2636.69 322)">Heavy</text>
  <text style="stroke:none;fill:black;font-family:sans-serif;font-size:13;text-anchor:middle;" transform="matrix(1 0 0 1 2933.4 322)">Black</text>
  <line style="fill:none;stroke:black;opacity:1;stroke-width:0.5;" x1="263" x2="3036" y1="1903" y2="1903"/>
  <g transform="matrix(1 0 0 1 263 1933)">
   <path d="M9.24805 0.830078Q10.8691 0.830078 12.2949 0.214844Q13.7207-0.400391 14.8096-1.49414Q15.8984-2.58789 16.5186-4.01367Q17.1387-5.43945 17.1387-7.05078Q17.1387-8.66211 16.5186-10.0879Q15.8984-11.5137 14.8047-12.6074Q13.7109-13.7012 12.2852-14.3164Q10.8594-14.9316 9.23828-14.9316Q7.62695-14.9316 6.20117-14.3164Q4.77539-13.7012 3.69141-12.6074Q2.60742-11.5137 1.9873-10.0879Q1.36719-8.66211 1.36719-7.05078Q1.36719-5.43945 1.9873-4.01367Q2.60742-2.58789 3.69629-1.49414Q4.78516-0.400391 6.21094 0.214844Q7.63672 0.830078 9.24805 0.830078ZM9.24805-0.654297Q7.91992-0.654297 6.7627-1.14746Q5.60547-1.64062 4.73145-2.51953Q3.85742-3.39844 3.36426-4.56055Q2.87109-5.72266 2.87109-7.05078Q2.87109-8.37891 3.35938-9.54102Q3.84766-10.7031 4.72168-11.582Q5.5957-12.4609 6.75293-12.9541Q7.91016-13.4473 9.23828-13.4473Q10.5762-13.4473 11.7334-12.9541Q12.8906-12.4609 13.7695-11.582Q14.6484-10.7031 15.1465-9.54102Q15.6445-8.37891 15.6445-7.05078Q15.6445-5.72266 15.1514-4.56055Q14.6582-3.39844 13.7842-2.51953Q12.9102-1.64062 11.748-1.14746Q10.5859-0.654297 9.24805-0.654297ZM5.6543-7.05078Q5.6543-6.72852 5.85938-6.52832Q6.06445-6.32812 6.40625-6.32812L8.51562-6.32812L8.51562-4.20898Q8.51562-3.88672 8.71094-3.67676Q8.90625-3.4668 9.23828-3.4668Q9.56055-3.4668 9.77051-3.67676Q9.98047-3.88672 9.98047-4.20898L9.98047-6.32812L12.0898-6.32812Q12.4219-6.32812 12.627-6.52832Q12.832-6.72852 12.832-7.05078Q12.832-7.38281 12.627-7.58789Q12.4219-7.79297 12.0898-7.79297L9.98047-7.79297L9.98047-9.90234Q9.98047-10.2344 9.77051-10.4443Q9.56055-10.6543 9.23828-10.6543Q8.90625-10.6543 8.71094-10.4443Q8.51562-10.2344 8.51562-9.90234L8.51562-7.79297L6.40625-7.79297Q6.06445-7.79297 5.85938-7.58789Q5.6543-7.38281 5.6543-7.05078Z"/>
  </g>
  <g transform="matrix(1 0 0 1 281.867 1933)">
   <path d="M11.709 2.91016Q13.75 2.91016 15.5518 2.12891Q17.3535 1.34766 18.7305-0.0292969Q20.1074-1.40625 20.8887-3.20801Q21.6699-5.00977 21.6699-7.05078Q21.6699-9.0918 20.8887-10.8936Q20.1074-12.6953 18.7305-14.0723Q17.3535-15.4492 15.5469-16.2305Q13.7402-17.0117 11.6992-17.0117Q9.6582-17.0117 7.85645-16.2305Q6.05469-15.4492 4.68262-14.0723Q3.31055-12.6953 2.5293-10.8936Q1.74805-9.0918 1.74805-7.05078Q1.74805-5.00977 2.5293-3.20801Q3.31055-1.40625 4.6875-0.0292969Q6.06445 1.34766 7.86621 2.12891Q9.66797 2.91016 11.709 2.91016ZM11.709 1.25Q9.98047 1.25 8.47656 0.605469Q6.97266-0.0390625 5.83496-1.17676Q4.69727-2.31445 4.05762-3.81836Q3.41797-5.32227 3.41797-7.05078Q3.41797-8.7793 4.05762-10.2832Q4.69727-11.7871 5.83008-12.9297Q6.96289-14.0723 8.4668-14.7119Q9.9707-15.3516 11.6992-15.3516Q13.4277-15.3516 14.9316-14.7119Q16.4355-14.0723 17.5781-12.9297Q18.7207-11.7871 19.3652-10.2832Q20.0098-8.7793 20.0098-7.05078Q20.0098-5.32227 19.3701-3.81836Q18.7305-2.31445 17.5928-1.17676Q16.4551-0.0390625 14.9463 0.605469Q13.4375 1.25 11.709 1.25ZM7.17773-7.05078Q7.17773-6.69922 7.41211-6.47461Q7.64648-6.25 8.01758-6.25L10.8887-6.25L10.8887-3.36914Q10.8887-2.99805 11.1133-2.76855Q11.3379-2.53906 11.6895-2.53906Q12.0605-2.53906 12.29-2.76855Q12.5195-2.99805 12.5195-3.36914L12.5195-6.25L15.4004-6.25Q15.7715-6.25 16.001-6.47461Q16.2305-6.69922 16.2305-7.05078Q16.2305-7.42188 16.001-7.65137Q15.7715-7.88086 15.4004-7.88086L12.5195-7.88086L12.5195-10.752Q12.5195-11.1328 12.29-11.3623Q12.0605-11.5918 11.6895-11.5918Q11.3379-11.5918 11.1133-11.3574Q10.8887-11.123 10.8887-10.752L10.8887-7.88086L8.01758-7.88086Q7.63672-7.88086 7.40723-7.65137Q7.17773-7.42188 7.17773-7.05078Z"/>
  </g>
  <g transform="matrix(1 0 0 1 305.646 1933)">
   <path d="M14.9707 5.66406Q17.0605 5.66406 18.96 5.01465Q20.8594 4.36523 22.4512 3.19336Q24.043 2.02148 25.2197 0.429688Q26.3965-1.16211 27.0459-3.06641Q27.6953-4.9707 27.6953-7.05078Q27.6953-9.14062 27.0459-11.04Q26.3965-12.9395 25.2197-14.5312Q24.043-16.123 22.4512-17.2998Q20.8594-18.4766 18.9551-19.126Q17.0508-19.7754 14.9609-19.7754Q12.8711-19.7754 10.9717-19.126Q9.07227-18.4766 7.48535-17.2998Q5.89844-16.123 4.72168-14.5312Q3.54492-12.9395 2.90039-11.04Q2.25586-9.14062 2.25586-7.05078Q2.25586-4.9707 2.90527-3.06641Q3.55469-1.16211 4.72656 0.429688Q5.89844 2.02148 7.49023 3.19336Q9.08203 4.36523 10.9814 5.01465Q12.8809 5.66406 14.9707 5.66406ZM14.9707 3.84766Q13.1641 3.84766 11.5283 3.2959Q9.89258 2.74414 8.53516 1.74805Q7.17773 0.751953 6.17676-0.610352Q5.17578-1.97266 4.62891-3.6084Q4.08203-5.24414 4.08203-7.05078Q4.08203-8.86719 4.62891-10.5029Q5.17578-12.1387 6.17188-13.501Q7.16797-14.8633 8.52539-15.8594Q9.88281-16.8555 11.5186-17.4023Q13.1543-17.9492 14.9609-17.9492Q16.7773-17.9492 18.4131-17.4023Q20.0488-16.8555 21.4111-15.8594Q22.7734-14.8633 23.7695-13.501Q24.7656-12.1387 25.3174-10.5029Q25.8691-8.86719 25.8691-7.05078Q25.8789-5.24414 25.332-3.6084Q24.7852-1.97266 23.7842-0.610352Q22.7832 0.751953 21.4209 1.74805Q20.0586 2.74414 18.4229 3.2959Q16.7871 3.84766 14.9707 3.84766ZM9.19922-7.05078Q9.19922-6.66992 9.45801-6.4209Q9.7168-6.17188 10.1172-6.17188L14.0625-6.17188L14.0625-2.2168Q14.0625-1.81641 14.3115-1.55762Q14.5605-1.29883 14.9512-1.29883Q15.3516-1.29883 15.6104-1.55273Q15.8691-1.80664 15.8691-2.2168L15.8691-6.17188L19.8242-6.17188Q20.2246-6.17188 20.4785-6.4209Q20.7324-6.66992 20.7324-7.05078Q20.7324-7.46094 20.4785-7.71484Q20.2246-7.96875 19.8242-7.96875L15.8691-7.96875L15.8691-11.9141Q15.8691-12.3242 15.6104-12.583Q15.3516-12.8418 14.9512-12.8418Q14.5605-12.8418 14.3115-12.583Q14.0625-12.3242 14.0625-11.9141L14.0625-7.96875L10.1172-7.96875Q9.70703-7.96875 9.45312-7.71484Q9.19922-7.46094 9.19922-7.05078Z"/>
  </g>
  <text style="stroke:none;fill:black;font-family:sans-serif;font-size:13;font-weight:bold;" transform="matrix(1 0 0 1 263 1953)">Design Variations</text>
  <text style="stroke:none;fill:black;font-family:sans-serif;font-size:13;" transform="matrix(1 0 0 1 263 1971)">Symbols are supported in up to nine weights and three scales.</text>
  <text style="stroke:none;fill:black;font-family:sans-serif;font-size:13;" transform="matrix(1 0 0 1 263 1989)">For optimal layout with text and other symbols, vertically align</text>
  <text style="stroke:none;fill:black;font-family:sans-serif;font-size:13;" transform="matrix(1 0 0 1 263 2007)">symbols with the adjacent text.</text>
  <line style="fill:none;stroke:#00AEEF;stroke-width:0.5;opacity:1.0;" x1="776" x2="776" y1="1919" y2="1933"/>
  <g transform="matrix(1 0 0 1 776 1933)">
   <path d="M3.31055 0.15625Q3.70117 0.15625 3.91602-0.00976562Q4.13086-0.175781 4.26758-0.585938L5.52734-4.0332L11.2891-4.0332L12.5488-0.585938Q12.6855-0.175781 12.9004-0.00976562Q13.1152 0.15625 13.4961 0.15625Q13.8867 0.15625 14.1162-0.0585938Q14.3457-0.273438 14.3457-0.644531Q14.3457-0.869141 14.2383-1.17188L9.6582-13.3691Q9.48242-13.8184 9.17969-14.043Q8.87695-14.2676 8.4082-14.2676Q7.5-14.2676 7.17773-13.3789L2.59766-1.16211Q2.49023-0.859375 2.49023-0.634766Q2.49023-0.263672 2.70996-0.0537109Q2.92969 0.15625 3.31055 0.15625ZM6.00586-5.51758L8.37891-12.0898L8.42773-12.0898L10.8008-5.51758Z"/>
  </g>
  <line style="fill:none;stroke:#00AEEF;stroke-width:0.5;opacity:1.0;" x1="793.197" x2="793.197" y1="1919" y2="1933"/>
  <text style="stroke:none;fill:black;font-family:sans-serif;font-size:13;font-weight:bold;" transform="matrix(1 0 0 1 776 1953)">Margins</text>
  <text style="stroke:none;fill:black;font-family:sans-serif;font-size:13;" transform="matrix(1 0 0 1 776 1971)">Leading and trailing margins on the left and right side of each symbol</text>
  <text style="stroke:none;fill:black;font-family:sans-serif;font-size:13;" transform="matrix(1 0 0 1 776 1989)">can be adjusted by modifying the x-location of the margin guidelines.</text>
  <text style="stroke:none;fill:black;font-family:sans-serif;font-size:13;" transform="matrix(1 0 0 1 776 2007)">Modifications are automatically applied proportionally to all</text>
  <text style="stroke:none;fill:black;font-family:sans-serif;font-size:13;" transform="matrix(1 0 0 1 776 2025)">scales and weights.</text>
  <g transform="matrix(1 0 0 1 1289 1933)">
   <path d="M2.8418 1.86523L4.54102 3.57422Q5.18555 4.22852 5.90332 4.17969Q6.62109 4.13086 7.31445 3.35938L18.0078-8.42773L17.041-9.4043L6.42578 2.27539Q6.16211 2.57812 5.89355 2.61719Q5.625 2.65625 5.27344 2.30469L4.10156 1.14258Q3.75 0.791016 3.79395 0.522461Q3.83789 0.253906 4.14062-0.0195312L15.6152-10.8203L14.6387-11.7871L3.04688-0.898438Q2.30469-0.214844 2.25098 0.498047Q2.19727 1.21094 2.8418 1.86523ZM9.25781-16.3281Q8.94531-16.0254 8.90625-15.6348Q8.86719-15.2441 9.04297-14.9512Q9.21875-14.6777 9.55566-14.541Q9.89258-14.4043 10.3809-14.5215Q11.4746-14.7754 12.5977-14.7314Q13.7207-14.6875 14.7949-13.9844L14.209-12.5293Q13.9551-11.9043 14.0674-11.4404Q14.1797-10.9766 14.5801-10.5664L16.875-8.25195Q17.2363-7.88086 17.5781-7.82227Q17.9199-7.76367 18.3398-7.8418L19.4043-8.03711L20.0684-7.36328L20.0293-6.80664Q20-6.43555 20.1221-6.12305Q20.2441-5.81055 20.6055-5.44922L21.3672-4.70703Q21.7285-4.3457 22.1533-4.33105Q22.5781-4.31641 22.9297-4.66797L25.8398-7.58789Q26.1914-7.93945 26.1816-8.35449Q26.1719-8.76953 25.8105-9.13086L25.0391-9.89258Q24.6875-10.2539 24.3799-10.3857Q24.0723-10.5176 23.7109-10.4883L23.1348-10.4395L22.4902-11.0742L22.7344-12.1973Q22.832-12.6172 22.6953-12.9834Q22.5586-13.3496 22.1191-13.7891L19.9219-15.9766Q18.6719-17.2168 17.2607-17.8369Q15.8496-18.457 14.4189-18.4814Q12.9883-18.5059 11.665-17.959Q10.3418-17.4121 9.25781-16.3281ZM10.752-15.957Q11.6602-16.6211 12.7002-16.9043Q13.7402-17.1875 14.8047-17.085Q15.8691-16.9824 16.8701-16.5137Q17.8711-16.0449 18.7012-15.2051L21.1328-12.793Q21.3086-12.6172 21.3525-12.4512Q21.3965-12.2852 21.3379-12.0312L21.0156-10.5469L22.5195-9.0625L23.5059-9.12109Q23.6914-9.13086 23.7891-9.09668Q23.8867-9.0625 24.0332-8.91602L24.6094-8.33984L22.168-5.89844L21.5918-6.47461Q21.4453-6.62109 21.4062-6.71875Q21.3672-6.81641 21.377-7.01172L21.4453-7.98828L19.9512-9.47266L18.4277-9.21875Q18.1836-9.16992 18.042-9.2041Q17.9004-9.23828 17.7148-9.41406L15.7129-11.416Q15.5176-11.5918 15.4932-11.7529Q15.4688-11.9141 15.5859-12.1875L16.4648-14.2773Q15.293-15.3711 13.8281-15.791Q12.3633-16.2109 10.8398-15.7617Q10.7227-15.7324 10.6885-15.8057Q10.6543-15.8789 10.752-15.957Z"/>
  </g>
  <text style="stroke:none;fill:black;font-family:sans-serif;font-size:13;font-weight:bold;" transform="matrix(1 0 0 1 1289 1953)">Exporting</text>
  <text style="stroke:none;fill:black;font-family:sans-serif;font-size:13;" transform="matrix(1 0 0 1 1289 1971)">Symbols should be outlined when exporting to ensure the</text>
  <text style="stroke:none;fill:black;font-family:sans-serif;font-size:13;" transform="matrix(1 0 0 1 1289 1989)">design is preserved when submitting to Xcode.</text>
  <text id="template-version" style="stroke:none;fill:black;font-family:sans-serif;font-size:13;text-anchor:end;" transform="matrix(1 0 0 1 3036 1933)">Template v.3.0</text>
  <text style="stroke:none;fill:black;font-family:sans-serif;font-size:13;text-anchor:end;" transform="matrix(1 0 0 1 3036 1951)">Requires Xcode 13 or greater</text>
  <text id="descriptive-name" style="stroke:none;fill:black;font-family:sans-serif;font-size:13;text-anchor:end;" transform="matrix(1 0 0 1 3036 1969)">Generated from phone.circle.fill</text>
  <text style="stroke:none;fill:black;font-family:sans-serif;font-size:13;text-anchor:end;" transform="matrix(1 0 0 1 3036 1987)">Typeset at 100 points</text>
  <text style="stroke:none;fill:black;font-family:sans-serif;font-size:13;" transform="matrix(1 0 0 1 263 726)">Small</text>
  <text style="stroke:none;fill:black;font-family:sans-serif;font-size:13;" transform="matrix(1 0 0 1 263 1156)">Medium</text>
  <text style="stroke:none;fill:black;font-family:sans-serif;font-size:13;" transform="matrix(1 0 0 1 263 1586)">Large</text>
 </g>
 <g id="Guides">
  <g id="H-reference" style="fill:#27AAE1;stroke:none;" transform="matrix(1 0 0 1 339 696)">
   <path d="M0.976562 0L3.66211 0L29.3457-67.1387L30.0293-67.1387L30.0293-70.459L28.125-70.459ZM11.6699-24.4629L46.9727-24.4629L46.2402-26.709L12.4512-26.709ZM55.127 0L57.7637 0L30.6152-70.459L29.4434-70.459L29.4434-67.1387Z"/>
  </g>
  <line id="Baseline-S" style="fill:none;stroke:#27AAE1;opacity:1;stroke-width:0.5;" x1="263" x2="3036" y1="696" y2="696"/>
  <line id="Capline-S" style="fill:none;stroke:#27AAE1;opacity:1;stroke-width:0.5;" x1="263" x2="3036" y1="625.541" y2="625.541"/>
  <g id="H-reference" style="fill:#27AAE1;stroke:none;" transform="matrix(1 0 0 1 339 1126)">
   <path d="M0.976562 0L3.66211 0L29.3457-67.1387L30.0293-67.1387L30.0293-70.459L28.125-70.459ZM11.6699-24.4629L46.9727-24.4629L46.2402-26.709L12.4512-26.709ZM55.127 0L57.7637 0L30.6152-70.459L29.4434-70.459L29.4434-67.1387Z"/>
  </g>
  <line id="Baseline-M" style="fill:none;stroke:#27AAE1;opacity:1;stroke-width:0.5;" x1="263" x2="3036" y1="1126" y2="1126"/>
  <line id="Capline-M" style="fill:none;stroke:#27AAE1;opacity:1;stroke-width:0.5;" x1="263" x2="3036" y1="1055.54" y2="1055.54"/>
  <g id="H-reference" style="fill:#27AAE1;stroke:none;" transform="matrix(1 0 0 1 339 1556)">
   <path d="M0.976562 0L3.66211 0L29.3457-67.1387L30.0293-67.1387L30.0293-70.459L28.125-70.459ZM11.6699-24.4629L46.9727-24.4629L46.2402-26.709L12.4512-26.709ZM55.127 0L57.7637 0L30.6152-70.459L29.4434-70.459L29.4434-67.1387Z"/>
  </g>
  <line id="Baseline-L" style="fill:none;stroke:#27AAE1;opacity:1;stroke-width:0.5;" x1="263" x2="3036" y1="1556" y2="1556"/>
  <line id="Capline-L" style="fill:none;stroke:#27AAE1;opacity:1;stroke-width:0.5;" x1="263" x2="3036" y1="1485.54" y2="1485.54"/>
  <line id="left-margin-Ultralight-S" style="fill:none;stroke:#00AEEF;stroke-width:0.5;opacity:1.0;" x1="515.644" x2="515.644" y1="600.785" y2="720.121"/>
  <line id="right-margin-Ultralight-S" style="fill:none;stroke:#00AEEF;stroke-width:0.5;opacity:1.0;" x1="603.778" x2="603.778" y1="600.785" y2="720.121"/>
  <line id="left-margin-Thin-S" style="fill:none;stroke:#00AEEF;stroke-width:0.5;opacity:1.0;" x1="811.867" x2="811.867" y1="600.785" y2="720.121"/>
  <line id="right-margin-Thin-S" style="fill:none;stroke:#00AEEF;stroke-width:0.5;opacity:1.0;" x1="900.978" x2="900.978" y1="600.785" y2="720.121"/>
  <line id="left-margin-Light-S" style="fill:none;stroke:#00AEEF;stroke-width:0.5;opacity:1.0;" x1="1107.6" x2="1107.6" y1="600.785" y2="720.121"/>
  <line id="right-margin-Light-S" style="fill:none;stroke:#00AEEF;stroke-width:0.5;opacity:1.0;" x1="1198.67" x2="1198.67" y1="600.785" y2="720.121"/>
  <line id="left-margin-Regular-S" style="fill:none;stroke:#00AEEF;stroke-width:0.5;opacity:1.0;" x1="1403.58" x2="1403.58" y1="600.785" y2="720.121"/>
  <line id="right-margin-Regular-S" style="fill:none;stroke:#00AEEF;stroke-width:0.5;opacity:1.0;" x1="1496.11" x2="1496.11" y1="600.785" y2="720.121"/>
  <line id="left-margin-Medium-S" style="fill:none;stroke:#00AEEF;stroke-width:0.5;opacity:1.0;" x1="1699.83" x2="1699.83" y1="600.785" y2="720.121"/>
  <line id="right-margin-Medium-S" style="fill:none;stroke:#00AEEF;stroke-width:0.5;opacity:1.0;" x1="1793.28" x2="1793.28" y1="600.785" y2="720.121"/>
  <line id="left-margin-Semibold-S" style="fill:none;stroke:#00AEEF;stroke-width:0.5;opacity:1.0;" x1="1996.2" x2="1996.2" y1="600.785" y2="720.121"/>
  <line id="right-margin-Semibold-S" style="fill:none;stroke:#00AEEF;stroke-width:0.5;opacity:1.0;" x1="2090.34" x2="2090.34" y1="600.785" y2="720.121"/>
  <line id="left-margin-Bold-S" style="fill:none;stroke:#00AEEF;stroke-width:0.5;opacity:1.0;" x1="2292.42" x2="2292.42" y1="600.785" y2="720.121"/>
  <line id="right-margin-Bold-S" style="fill:none;stroke:#00AEEF;stroke-width:0.5;opacity:1.0;" x1="2387.54" x2="2387.54" y1="600.785" y2="720.121"/>
  <line id="left-margin-Heavy-S" style="fill:none;stroke:#00AEEF;stroke-width:0.5;opacity:1.0;" x1="2588.47" x2="2588.47" y1="600.785" y2="720.121"/>
  <line id="right-margin-Heavy-S" style="fill:none;stroke:#00AEEF;stroke-width:0.5;opacity:1.0;" x1="2684.91" x2="2684.91" y1="600.785" y2="720.121"/>
  <line id="left-margin-Black-S" style="fill:none;stroke:#00AEEF;stroke-width:0.5;opacity:1.0;" x1="2884.57" x2="2884.57" y1="600.785" y2="720.121"/>
  <line id="right-margin-Black-S" style="fill:none;stroke:#00AEEF;stroke-width:0.5;opacity:1.0;" x1="2982.23" x2="2982.23" y1="600.785" y2="720.121"/>
  <line id="left-margin-Ultralight-M" style="fill:none;stroke:#00AEEF;stroke-width:0.5;opacity:1.0;" x1="503.632" x2="503.632" y1="1030.79" y2="1150.12"/>
  <line id="right-margin-Ultralight-M" style="fill:none;stroke:#00AEEF;stroke-width:0.5;opacity:1.0;" x1="615.79" x2="615.79" y1="1030.79" y2="1150.12"/>
  <line id="left-margin-Thin-M" style="fill:none;stroke:#00AEEF;stroke-width:0.5;opacity:1.0;" x1="799.782" x2="799.782" y1="1030.79" y2="1150.12"/>
  <line id="right-margin-Thin-M" style="fill:none;stroke:#00AEEF;stroke-width:0.5;opacity:1.0;" x1="913.063" x2="913.063" y1="1030.79" y2="1150.12"/>
  <line id="left-margin-Light-M" style="fill:none;stroke:#00AEEF;stroke-width:0.5;opacity:1.0;" x1="1095.42" x2="1095.42" y1="1030.79" y2="1150.12"/>
  <line id="right-margin-Light-M" style="fill:none;stroke:#00AEEF;stroke-width:0.5;opacity:1.0;" x1="1210.85" x2="1210.85" y1="1030.79" y2="1150.12"/>
  <line id="left-margin-Regular-M" style="fill:none;stroke:#00AEEF;stroke-width:0.5;opacity:1.0;" x1="1391.3" x2="1391.3" y1="1030.79" y2="1150.12"/>
  <line id="right-margin-Regular-M" style="fill:none;stroke:#00AEEF;stroke-width:0.5;opacity:1.0;" x1="1508.39" x2="1508.39" y1="1030.79" y2="1150.12"/>
  <line id="left-margin-Medium-M" style="fill:none;stroke:#00AEEF;stroke-width:0.5;opacity:1.0;" x1="1687.38" x2="1687.38" y1="1030.79" y2="1150.12"/>
  <line id="right-margin-Medium-M" style="fill:none;stroke:#00AEEF;stroke-width:0.5;opacity:1.0;" x1="1805.74" x2="1805.74" y1="1030.79" y2="1150.12"/>
  <line id="left-margin-Semibold-M" style="fill:none;stroke:#00AEEF;stroke-width:0.5;opacity:1.0;" x1="1983.6" x2="1983.6" y1="1030.79" y2="1150.12"/>
  <line id="right-margin-Semibold-M" style="fill:none;stroke:#00AEEF;stroke-width:0.5;opacity:1.0;" x1="2102.93" x2="2102.93" y1="1030.79" y2="1150.12"/>
  <line id="left-margin-Bold-M" style="fill:none;stroke:#00AEEF;stroke-width:0.5;opacity:1.0;" x1="2279.65" x2="2279.65" y1="1030.79" y2="1150.12"/>
  <line id="right-margin-Bold-M" style="fill:none;stroke:#00AEEF;stroke-width:0.5;opacity:1.0;" x1="2400.3" x2="2400.3" y1="1030.79" y2="1150.12"/>
  <line id="left-margin-Heavy-M" style="fill:none;stroke:#00AEEF;stroke-width:0.5;opacity:1.0;" x1="2575.43" x2="2575.43" y1="1030.79" y2="1150.12"/>
  <line id="right-margin-Heavy-M" style="fill:none;stroke:#00AEEF;stroke-width:0.5;opacity:1.0;" x1="2697.94" x2="2697.94" y1="1030.79" y2="1150.12"/>
  <line id="left-margin-Black-M" style="fill:none;stroke:#00AEEF;stroke-width:0.5;opacity:1.0;" x1="2871.32" x2="2871.32" y1="1030.79" y2="1150.12"/>
  <line id="right-margin-Black-M" style="fill:none;stroke:#00AEEF;stroke-width:0.5;opacity:1.0;" x1="2995.48" x2="2995.48" y1="1030.79" y2="1150.12"/>
  <line id="left-margin-Ultralight-L" style="fill:none;stroke:#00AEEF;stroke-width:0.5;opacity:1.0;" x1="487.592" x2="487.592" y1="1460.79" y2="1580.12"/>
  <line id="right-margin-Ultralight-L" style="fill:none;stroke:#00AEEF;stroke-width:0.5;opacity:1.0;" x1="631.83" x2="631.83" y1="1460.79" y2="1580.12"/>
  <line id="left-margin-Thin-L" style="fill:none;stroke:#00AEEF;stroke-width:0.5;opacity:1.0;" x1="783.693" x2="783.693" y1="1460.79" y2="1580.12"/>
  <line id="right-margin-Thin-L" style="fill:none;stroke:#00AEEF;stroke-width:0.5;opacity:1.0;" x1="929.152" x2="929.152" y1="1460.79" y2="1580.12"/>
  <line id="left-margin-Light-L" style="fill:none;stroke:#00AEEF;stroke-width:0.5;opacity:1.0;" x1="1079.18" x2="1079.18" y1="1460.79" y2="1580.12"/>
  <line id="right-margin-Light-L" style="fill:none;stroke:#00AEEF;stroke-width:0.5;opacity:1.0;" x1="1227.08" x2="1227.08" y1="1460.79" y2="1580.12"/>
  <line id="left-margin-Regular-L" style="fill:none;stroke:#00AEEF;stroke-width:0.5;opacity:1.0;" x1="1374.97" x2="1374.97" y1="1460.79" y2="1580.12"/>
  <line id="right-margin-Regular-L" style="fill:none;stroke:#00AEEF;stroke-width:0.5;opacity:1.0;" x1="1524.72" x2="1524.72" y1="1460.79" y2="1580.12"/>
  <line id="left-margin-Medium-L" style="fill:none;stroke:#00AEEF;stroke-width:0.5;opacity:1.0;" x1="1670.87" x2="1670.87" y1="1460.79" y2="1580.12"/>
  <line id="right-margin-Medium-L" style="fill:none;stroke:#00AEEF;stroke-width:0.5;opacity:1.0;" x1="1822.24" x2="1822.24" y1="1460.79" y2="1580.12"/>
  <line id="left-margin-Semibold-L" style="fill:none;stroke:#00AEEF;stroke-width:0.5;opacity:1.0;" x1="1966.97" x2="1966.97" y1="1460.79" y2="1580.12"/>
  <line id="right-margin-Semibold-L" style="fill:none;stroke:#00AEEF;stroke-width:0.5;opacity:1.0;" x1="2119.56" x2="2119.56" y1="1460.79" y2="1580.12"/>
  <line id="left-margin-Bold-L" style="fill:none;stroke:#00AEEF;stroke-width:0.5;opacity:1.0;" x1="2262.85" x2="2262.85" y1="1460.79" y2="1580.12"/>
  <line id="right-margin-Bold-L" style="fill:none;stroke:#00AEEF;stroke-width:0.5;opacity:1.0;" x1="2417.1" x2="2417.1" y1="1460.79" y2="1580.12"/>
  <line id="left-margin-Heavy-L" style="fill:none;stroke:#00AEEF;stroke-width:0.5;opacity:1.0;" x1="2558.39" x2="2558.39" y1="1460.79" y2="1580.12"/>
  <line id="right-margin-Heavy-L" style="fill:none;stroke:#00AEEF;stroke-width:0.5;opacity:1.0;" x1="2714.98" x2="2714.98" y1="1460.79" y2="1580.12"/>
  <line id="left-margin-Black-L" style="fill:none;stroke:#00AEEF;stroke-width:0.5;opacity:1.0;" x1="2854.05" x2="2854.05" y1="1460.79" y2="1580.12"/>
  <line id="right-margin-Black-L" style="fill:none;stroke:#00AEEF;stroke-width:0.5;opacity:1.0;" x1="3012.75" x2="3012.75" y1="1460.79" y2="1580.12"/>
 </g>
 <g id="Symbols">
  <g id="Black-L" transform="matrix(1 0 0 1 2854.05 1556)">
   <path class="multicolor-0:systemGreenColor hierarchical-0:tertiary SFSymbolsPreview28CD41" d="M79.3457 32.959Q90.5762 32.959 100.757 29.4922Q110.938 26.0254 119.458 19.7754Q127.979 13.5254 134.229 5.00488Q140.479-3.51562 143.945-13.6963Q147.412-23.877 147.412-35.1074Q147.412-46.3379 143.945-56.5186Q140.479-66.6992 134.204-75.2197Q127.93-83.7402 119.434-90.0146Q110.938-96.2891 100.732-99.7314Q90.5273-103.174 79.2969-103.174Q68.1152-103.174 57.9102-99.7314Q47.7051-96.2891 39.209-90.0146Q30.7129-83.7402 24.4385-75.2197Q18.1641-66.6992 14.7217-56.5186Q11.2793-46.3379 11.2793-35.1074Q11.2793-23.877 14.7217-13.6963Q18.1641-3.51562 24.4385 5.00488Q30.7129 13.5254 39.2334 19.7754Q47.7539 26.0254 57.9346 29.4922Q68.1152 32.959 79.3457 32.959Z"/>
   <path class="multicolor-1:white hierarchical-1:primary SFSymbolsPreviewFFFFFF" d="M64.0137-19.9219Q58.252-25.6836 53.8574-31.9092Q49.4629-38.1348 47.2168-44.2627Q44.9707-50.3906 45.5811-55.8594Q46.1914-61.3281 50.4395-65.5762Q50.6348-65.7715 50.8545-65.9668Q51.0742-66.1621 51.3184-66.4062Q53.7109-68.1641 55.7861-68.75Q57.8613-69.3359 59.5459-68.7256Q61.2305-68.1152 62.5488-66.3086L70.3613-55.127Q72.5586-51.9531 72.1191-50.0488Q71.6797-48.1445 69.5801-45.8984L67.1387-43.2617Q66.4551-42.5781 66.6016-41.748Q66.748-40.918 67.041-40.4785Q68.0176-38.8184 70.2637-36.1328Q72.5098-33.4473 75.0488-30.9082Q77.6367-28.3203 80.249-26.1719Q82.8613-24.0234 84.5703-22.9492Q85.2051-22.5098 86.0596-22.4854Q86.9141-22.4609 87.5-22.998L89.9902-25.4395Q92.0898-27.5391 94.1406-27.9785Q96.1914-28.418 99.2676-26.2695Q100.684-25.2441 102.075-24.2676Q103.467-23.291 104.858-22.3145Q106.25-21.3379 107.642-20.3613Q109.033-19.3848 110.449-18.4082Q113.525-16.2109 113.135-13.2324Q112.744-10.2539 110.986-7.8125Q110.742-7.42188 110.425-7.03125Q110.107-6.64062 109.717-6.25Q105.518-2.00195 100.049-1.3916Q94.5801-0.78125 88.4521-3.02734Q82.3242-5.27344 76.0742-9.69238Q69.8242-14.1113 64.0137-19.9219Z"/>
  </g>
  <g id="Heavy-L" transform="matrix(1 0 0 1 2558.39 1556)">
   <path class="multicolor-0:systemGreenColor hierarchical-0:tertiary SFSymbolsPreview28CD41" d="M78.2715 31.8848Q89.3555 31.8848 99.3652 28.4668Q109.375 25.0488 117.749 18.8965Q126.123 12.7441 132.3 4.3457Q138.477-4.05273 141.895-14.0625Q145.312-24.0723 145.312-35.1074Q145.312-46.1426 141.895-56.1768Q138.477-66.2109 132.3-74.585Q126.123-82.959 117.749-89.1602Q109.375-95.3613 99.3408-98.7549Q89.3066-102.148 78.2227-102.148Q67.2363-102.148 57.2021-98.7549Q47.168-95.3613 38.7939-89.1602Q30.4199-82.959 24.2432-74.585Q18.0664-66.2109 14.6729-56.1768Q11.2793-46.1426 11.2793-35.1074Q11.2793-24.0723 14.6729-14.0625Q18.0664-4.05273 24.2432 4.3457Q30.4199 12.7441 38.8184 18.8965Q47.2168 25.0488 57.2266 28.4668Q67.2363 31.8848 78.2715 31.8848Z"/>
   <path class="multicolor-1:white hierarchical-1:primary SFSymbolsPreviewFFFFFF" d="M62.793-19.873Q57.0801-25.6348 52.6855-31.8604Q48.291-38.0859 46.0449-44.2139Q43.7988-50.3418 44.4092-55.835Q45.0195-61.3281 49.2676-65.625Q49.4629-65.8203 49.6826-66.0156Q49.9023-66.2109 50.1465-66.4062Q52.4902-68.1152 54.541-68.75Q56.5918-69.3848 58.2764-68.8232Q59.9609-68.2617 61.3281-66.4551L69.1895-55.1758Q71.3379-52.1484 70.9229-50.1953Q70.5078-48.2422 68.4082-45.9473L65.918-43.3105Q65.2344-42.627 65.3564-41.8213Q65.4785-41.0156 65.8203-40.5273Q66.748-38.8672 68.9941-36.1816Q71.2402-33.4961 73.8281-30.9082Q76.4648-28.2715 79.0771-26.123Q81.6895-23.9746 83.3984-22.9004Q84.082-22.4609 84.9121-22.4609Q85.7422-22.4609 86.3281-22.998L88.8672-25.4395Q91.0156-27.5879 93.0664-28.0029Q95.1172-28.418 98.0957-26.3184Q99.7559-25.1465 101.245-24.0967Q102.734-23.0469 104.126-22.0703Q105.518-21.0938 106.836-20.166Q108.154-19.2383 109.424-18.3594Q112.402-16.1621 112.036-13.208Q111.67-10.2539 109.766-7.76367Q109.521-7.42188 109.229-7.05566Q108.936-6.68945 108.545-6.29883Q104.346-2.05078 98.8281-1.44043Q93.3105-0.830078 87.1826-3.07617Q81.0547-5.32227 74.8047-9.7168Q68.5547-14.1113 62.793-19.873Z"/>
  </g>
  <g id="Bold-L" transform="matrix(1 0 0 1 2262.85 1556)">
   <path class="multicolor-0:systemGreenColor hierarchical-0:tertiary SFSymbolsPreview28CD41" d="M77.0996 30.7129Q87.9395 30.7129 97.7783 27.3438Q107.617 23.9746 115.869 17.9199Q124.121 11.8652 130.176 3.61328Q136.23-4.63867 139.6-14.4775Q142.969-24.3164 142.969-35.1562Q142.969-45.9961 139.6-55.835Q136.23-65.6738 130.151-73.9014Q124.072-82.1289 115.845-88.208Q107.617-94.2871 97.7539-97.6318Q87.8906-100.977 77.0508-100.977Q66.2598-100.977 56.3965-97.6318Q46.5332-94.2871 38.3301-88.208Q30.127-82.1289 24.0479-73.9014Q17.9688-65.6738 14.624-55.835Q11.2793-45.9961 11.2793-35.1562Q11.2793-24.3164 14.624-14.4775Q17.9688-4.63867 24.0479 3.61328Q30.127 11.8652 38.3545 17.9199Q46.582 23.9746 56.4209 27.3438Q66.2598 30.7129 77.0996 30.7129Z"/>
   <path class="multicolor-1:white hierarchical-1:primary SFSymbolsPreviewFFFFFF" d="M61.4258-19.9219Q55.7129-25.5859 51.3428-31.8115Q46.9727-38.0371 44.7266-44.2139Q42.4805-50.3906 43.0908-55.9082Q43.7012-61.4258 47.998-65.7227Q48.1934-65.918 48.3887-66.1133Q48.584-66.3086 48.877-66.5039Q51.0742-68.1152 53.1006-68.7988Q55.127-69.4824 56.8604-68.9941Q58.5938-68.5059 59.9609-66.6504L67.8711-55.3223Q69.9219-52.3926 69.5801-50.415Q69.2383-48.4375 67.041-46.0938L64.5508-43.4082Q63.916-42.7246 64.0137-41.9434Q64.1113-41.1621 64.4043-40.6738Q65.3809-39.0137 67.5781-36.3037Q69.7754-33.5938 72.4609-30.957Q75.1465-28.2227 77.7832-26.0986Q80.4199-23.9746 82.1289-22.9004Q82.8125-22.5098 83.6426-22.4854Q84.4727-22.4609 85.0586-22.998L87.5977-25.5371Q89.7949-27.6855 91.8701-28.0518Q93.9453-28.418 96.8262-26.416Q98.7305-25.0488 100.342-23.9258Q101.953-22.8027 103.32-21.8506Q104.688-20.8984 105.908-20.0439Q107.129-19.1895 108.301-18.3594Q111.182-16.1621 110.815-13.2324Q110.449-10.3027 108.35-7.76367Q108.105-7.4707 107.861-7.12891Q107.617-6.78711 107.275-6.44531Q102.979-2.14844 97.4609-1.53809Q91.9434-0.927734 85.7666-3.17383Q79.5898-5.41992 73.3398-9.81445Q67.0898-14.209 61.4258-19.9219Z"/>
  </g>
  <g id="Semibold-L" transform="matrix(1 0 0 1 1966.97 1556)">
   <path class="multicolor-0:systemGreenColor hierarchical-0:tertiary SFSymbolsPreview28CD41" d="M76.2695 29.8828Q86.9629 29.8828 96.6797 26.5625Q106.396 23.2422 114.551 17.2607Q122.705 11.2793 128.687 3.125Q134.668-5.0293 137.988-14.7461Q141.309-24.4629 141.309-35.1562Q141.309-45.8496 137.988-55.5664Q134.668-65.2832 128.662-73.4131Q122.656-81.543 114.526-87.5488Q106.396-93.5547 96.6553-96.875Q86.9141-100.195 76.2207-100.195Q65.5273-100.195 55.8105-96.875Q46.0938-93.5547 37.9883-87.5488Q29.8828-81.543 23.877-73.4131Q17.8711-65.2832 14.5752-55.5664Q11.2793-45.8496 11.2793-35.1562Q11.2793-24.4629 14.5996-14.7461Q17.9199-5.0293 23.9014 3.125Q29.8828 11.2793 38.0127 17.2607Q46.1426 23.2422 55.8594 26.5625Q65.5762 29.8828 76.2695 29.8828Z"/>
   <path class="multicolor-1:white hierarchical-1:primary SFSymbolsPreviewFFFFFF" d="M60.4492-19.873Q54.7852-25.5371 50.3906-31.7627Q45.9961-37.9883 43.7744-44.165Q41.5527-50.3418 42.1631-55.8838Q42.7734-61.4258 47.0703-65.7715Q47.2656-65.9668 47.4609-66.1621Q47.6562-66.3574 47.9492-66.5039Q50.0977-68.0664 52.0996-68.7988Q54.1016-69.5312 55.835-69.0918Q57.5684-68.6523 58.9844-66.748L66.9434-55.3223Q68.9453-52.5391 68.6279-50.5127Q68.3105-48.4863 66.1133-46.1426L63.5742-43.4082Q62.9395-42.7734 63.0127-41.9922Q63.0859-41.2109 63.4277-40.6738Q64.3555-39.0137 66.5527-36.3281Q68.75-33.6426 71.4844-30.9082Q74.2188-28.1738 76.8555-26.0498Q79.4922-23.9258 81.2012-22.8516Q81.8848-22.4609 82.7148-22.4609Q83.5449-22.4609 84.1309-22.998L86.6699-25.5371Q88.916-27.7344 91.0156-28.0762Q93.1152-28.418 95.8984-26.4648Q97.998-24.9512 99.6826-23.7793Q101.367-22.6074 102.734-21.6553Q104.102-20.7031 105.249-19.873Q106.396-19.043 107.52-18.3105Q110.254-16.1133 109.912-13.208Q109.57-10.3027 107.373-7.71484Q107.129-7.42188 106.885-7.10449Q106.641-6.78711 106.348-6.44531Q102.051-2.19727 96.4844-1.58691Q90.918-0.976562 84.7412-3.22266Q78.5645-5.46875 72.3145-9.83887Q66.0645-14.209 60.4492-19.873Z"/>
  </g>
  <g id="Medium-L" transform="matrix(1 0 0 1 1670.87 1556)">
   <path class="multicolor-0:systemGreenColor hierarchical-0:tertiary SFSymbolsPreview28CD41" d="M75.6836 29.248Q86.2305 29.248 95.8496 25.9521Q105.469 22.6562 113.55 16.7236Q121.631 10.791 127.563 2.73438Q133.496-5.32227 136.792-14.9658Q140.088-24.6094 140.088-35.1562Q140.088-45.752 136.792-55.3711Q133.496-64.9902 127.539-73.0469Q121.582-81.1035 113.525-87.0605Q105.469-93.0176 95.8252-96.2891Q86.1816-99.5605 75.6348-99.5605Q65.0391-99.5605 55.4199-96.2891Q45.8008-93.0176 37.7441-87.0605Q29.6875-81.1035 23.7549-73.0469Q17.8223-64.9902 14.5508-55.3711Q11.2793-45.752 11.2793-35.1562Q11.2793-24.6094 14.5508-14.9658Q17.8223-5.32227 23.7549 2.73438Q29.6875 10.791 37.7686 16.7236Q45.8496 22.6562 55.4688 25.9521Q65.0879 29.248 75.6836 29.248Z"/>
   <path class="multicolor-1:white hierarchical-1:primary SFSymbolsPreviewFFFFFF" d="M59.7168-19.9219Q54.0527-25.5371 49.6826-31.7627Q45.3125-37.9883 43.0908-44.1895Q40.8691-50.3906 41.4795-55.957Q42.0898-61.5234 46.3867-65.8203Q46.582-66.0156 46.7773-66.2109Q46.9727-66.4062 47.2656-66.6016Q49.3652-68.1152 51.3672-68.8477Q53.3691-69.5801 55.1025-69.165Q56.8359-68.75 58.252-66.8457L66.2598-55.4199Q68.2129-52.6855 67.9199-50.6348Q67.627-48.584 65.3809-46.2402L62.8418-43.457Q62.2559-42.8223 62.3047-42.0898Q62.3535-41.3574 62.6953-40.7715Q63.623-39.1113 65.8203-36.4014Q68.0176-33.6914 70.752-30.957Q73.5352-28.1738 76.1963-26.0498Q78.8574-23.9258 80.5664-22.9004Q81.2012-22.5098 82.0557-22.4854Q82.9102-22.4609 83.4473-22.998L85.9863-25.5859Q88.2812-27.7832 90.3809-28.1006Q92.4805-28.418 95.2148-26.5137Q97.4609-24.9512 99.1943-23.7305Q100.928-22.5098 102.295-21.582Q103.662-20.6543 104.785-19.8486Q105.908-19.043 106.885-18.3105Q109.619-16.1621 109.277-13.2568Q108.936-10.3516 106.641-7.76367Q106.396-7.4707 106.177-7.15332Q105.957-6.83594 105.664-6.54297Q101.318-2.24609 95.752-1.63574Q90.1855-1.02539 84.0088-3.27148Q77.832-5.51758 71.582-9.8877Q65.332-14.2578 59.7168-19.9219Z"/>
  </g>
  <g id="Regular-L" transform="matrix(1 0 0 1 1374.97 1556)">
   <path class="multicolor-0:systemGreenColor hierarchical-0:tertiary SFSymbolsPreview28CD41" d="M74.8535 28.418Q85.3027 28.418 94.7998 25.1709Q104.297 21.9238 112.256 16.0645Q120.215 10.2051 126.099 2.24609Q131.982-5.71289 135.229-15.2344Q138.477-24.7559 138.477-35.1562Q138.477-45.6055 135.229-55.1025Q131.982-64.5996 126.099-72.5586Q120.215-80.5176 112.256-86.4014Q104.297-92.2852 94.7754-95.5322Q85.2539-98.7793 74.8047-98.7793Q64.3555-98.7793 54.8584-95.5322Q45.3613-92.2852 37.4268-86.4014Q29.4922-80.5176 23.6084-72.5586Q17.7246-64.5996 14.502-55.1025Q11.2793-45.6055 11.2793-35.1562Q11.2793-24.7559 14.5264-15.2344Q17.7734-5.71289 23.6328 2.24609Q29.4922 10.2051 37.4512 16.0645Q45.4102 21.9238 54.9072 25.1709Q64.4043 28.418 74.8535 28.418Z"/>
   <path class="multicolor-1:white hierarchical-1:primary SFSymbolsPreviewFFFFFF" d="M58.7402-19.873Q53.125-25.4883 48.7549-31.7139Q44.3848-37.9395 42.1631-44.1406Q39.9414-50.3418 40.5518-55.9326Q41.1621-61.5234 45.459-65.8691Q45.6543-66.0645 45.8496-66.2598Q46.0449-66.4551 46.3379-66.6016Q48.3887-68.0664 50.3662-68.8477Q52.3438-69.6289 54.1016-69.2627Q55.8594-68.8965 57.2754-66.9434L65.332-55.4688Q67.2363-52.832 66.9678-50.7568Q66.6992-48.6816 64.4531-46.2891L61.8652-43.5059Q61.2793-42.8711 61.3281-42.1387Q61.377-41.4062 61.7188-40.8203Q62.6465-39.1602 64.8193-36.4502Q66.9922-33.7402 69.7754-30.957Q72.6074-28.125 75.2686-26.001Q77.9297-23.877 79.6387-22.8516Q80.3223-22.4609 81.1523-22.4609Q81.9824-22.4609 82.5195-22.998L85.1074-25.5859Q87.4023-27.832 89.5264-28.125Q91.6504-28.418 94.2871-26.5625Q96.7285-24.8535 98.5352-23.584Q100.342-22.3145 101.709-21.3867Q103.076-20.459 104.126-19.7021Q105.176-18.9453 106.104-18.2617Q108.74-16.1133 108.398-13.2324Q108.057-10.3516 105.664-7.71484Q105.42-7.4707 105.225-7.17773Q105.029-6.88477 104.736-6.5918Q100.391-2.29492 94.7998-1.68457Q89.209-1.07422 83.0078-3.32031Q76.8066-5.56641 70.5566-9.91211Q64.3066-14.2578 58.7402-19.873Z"/>
  </g>
  <g id="Light-L" transform="matrix(1 0 0 1 1079.18 1556)">
   <path class="multicolor-0:systemGreenColor hierarchical-0:tertiary SFSymbolsPreview28CD41" d="M73.9258 27.4902Q84.2285 27.4902 93.6035 24.292Q102.979 21.0938 110.815 15.332Q118.652 9.57031 124.438 1.7334Q130.225-6.10352 133.423-15.4785Q136.621-24.8535 136.621-35.1562Q136.621-45.459 133.423-54.834Q130.225-64.209 124.438-72.0459Q118.652-79.8828 110.815-85.6689Q102.979-91.4551 93.6035-94.6533Q84.2285-97.8516 73.877-97.8516Q63.5742-97.8516 54.2236-94.6533Q44.873-91.4551 37.0361-85.6689Q29.1992-79.8828 23.4131-72.0459Q17.627-64.209 14.4531-54.834Q11.2793-45.459 11.2793-35.1562Q11.2793-24.8535 14.4775-15.4785Q17.6758-6.10352 23.4375 1.7334Q29.1992 9.57031 37.0361 15.332Q44.873 21.0938 54.248 24.292Q63.623 27.4902 73.9258 27.4902Z"/>
   <path class="multicolor-1:white hierarchical-1:primary SFSymbolsPreviewFFFFFF" d="M57.2754-19.7266Q51.7578-25.2441 47.4365-31.4697Q43.1152-37.6953 40.8936-43.9453Q38.6719-50.1953 39.2822-55.835Q39.8926-61.4746 44.1895-65.8203Q44.3848-66.0156 44.5801-66.2354Q44.7754-66.4551 45.0684-66.6016Q46.9238-67.8223 48.8525-68.7256Q50.7812-69.6289 52.5879-69.4336Q54.3945-69.2383 55.8594-67.1875L64.0625-55.4688Q65.7227-53.125 65.5762-51.001Q65.4297-48.877 63.0859-46.3867L60.4492-43.457Q59.9121-42.8711 59.9121-42.1875Q59.9121-41.5039 60.3027-40.8691Q61.1328-39.2578 63.2812-36.4746Q65.4297-33.6914 68.3594-30.8105Q71.2402-27.8809 73.999-25.7812Q76.7578-23.6816 78.418-22.7051Q79.1016-22.3145 79.9072-22.3389Q80.7129-22.3633 81.25-22.9004L83.9355-25.5371Q86.3281-27.832 88.4766-28.0518Q90.625-28.2715 93.0176-26.6113Q96.0938-24.4629 98.1445-23.0469Q100.195-21.6309 101.538-20.7031Q102.881-19.7754 103.735-19.165Q104.59-18.5547 105.225-18.0176Q107.568-15.918 107.202-13.1348Q106.836-10.3516 104.15-7.51953Q103.955-7.37305 103.809-7.12891Q103.662-6.88477 103.418-6.64062Q99.0234-2.29492 93.3838-1.68457Q87.7441-1.07422 81.4697-3.34473Q75.1953-5.61523 68.9697-9.91211Q62.7441-14.209 57.2754-19.7266Z"/>
  </g>
  <g id="Thin-L" transform="matrix(1 0 0 1 783.693 1556)">
   <path class="multicolor-0:systemGreenColor hierarchical-0:tertiary SFSymbolsPreview28CD41" d="M72.7051 26.2695Q82.8613 26.2695 92.041 23.1445Q101.221 20.0195 108.911 14.3799Q116.602 8.74023 122.266 1.0498Q127.93-6.64062 131.055-15.8447Q134.18-25.0488 134.18-35.1562Q134.18-45.3125 131.055-54.4922Q127.93-63.6719 122.29-71.3623Q116.65-79.0527 108.936-84.7168Q101.221-90.3809 92.0166-93.5059Q82.8125-96.6309 72.7051-96.6309Q62.5488-96.6309 53.3691-93.5059Q44.1895-90.3809 36.499-84.7168Q28.8086-79.0527 23.1689-71.3623Q17.5293-63.6719 14.4043-54.4922Q11.2793-45.3125 11.2793-35.1562Q11.2793-25.0488 14.4043-15.8447Q17.5293-6.64062 23.1689 1.0498Q28.8086 8.74023 36.5234 14.3799Q44.2383 20.0195 53.418 23.1445Q62.5977 26.2695 72.7051 26.2695Z"/>
   <path class="multicolor-1:white hierarchical-1:primary SFSymbolsPreviewFFFFFF" d="M55.3223-19.4824Q49.9512-24.8535 45.6787-31.0791Q41.4062-37.3047 39.1602-43.6035Q36.9141-49.9023 37.5244-55.6396Q38.1348-61.377 42.5293-65.7227Q42.7246-65.918 42.9199-66.1377Q43.1152-66.3574 43.4082-66.5527Q44.9707-67.4805 46.8262-68.5303Q48.6816-69.5801 50.5615-69.5801Q52.4414-69.5801 53.9551-67.4316L62.3047-55.4688Q63.7207-53.4668 63.6963-51.2695Q63.6719-49.0723 61.2793-46.3867L58.5938-43.3594Q58.1055-42.8711 58.0322-42.2119Q57.959-41.5527 58.3496-40.8691Q59.1309-39.2578 61.2305-36.4258Q63.3301-33.5938 66.4062-30.5664Q69.4336-27.4902 72.3145-25.415Q75.1953-23.3398 76.7578-22.4609Q77.4902-22.0215 78.2471-22.0703Q79.0039-22.1191 79.541-22.6562L82.3242-25.3906Q84.8633-27.832 87.0605-27.9053Q89.2578-27.9785 91.2598-26.5625Q95.2148-23.877 97.583-22.2412Q99.9512-20.6055 101.245-19.7266Q102.539-18.8477 103.149-18.4082Q103.76-17.9688 104.053-17.627Q106.006-15.625 105.591-12.9883Q105.176-10.3516 102.1-7.22656Q102.002-7.12891 101.929-7.00684Q101.855-6.88477 101.66-6.68945Q97.2168-2.29492 91.4795-1.68457Q85.7422-1.07422 79.4189-3.32031Q73.0957-5.56641 66.8701-9.83887Q60.6445-14.1113 55.3223-19.4824Z"/>
  </g>
  <g id="Ultralight-L" transform="matrix(1 0 0 1 487.592 1556)">
   <path class="multicolor-0:systemGreenColor hierarchical-0:tertiary SFSymbolsPreview28CD41" d="M72.0703 25.6348Q82.1289 25.6348 91.2354 22.5586Q100.342 19.4824 107.935 13.8916Q115.527 8.30078 121.143 0.683594Q126.758-6.93359 129.858-16.0156Q132.959-25.0977 132.959-35.1562Q132.959-45.2148 129.858-54.3213Q126.758-63.4277 121.167-71.0205Q115.576-78.6133 107.959-84.2285Q100.342-89.8438 91.2354-92.9199Q82.1289-95.9961 72.0703-95.9961Q62.0605-95.9961 52.9541-92.9199Q43.8477-89.8438 36.2305-84.2285Q28.6133-78.6133 23.0225-71.0205Q17.4316-63.4277 14.3555-54.3213Q11.2793-45.2148 11.2793-35.1562Q11.2793-25.0977 14.3555-16.0156Q17.4316-6.93359 23.0225 0.683594Q28.6133 8.30078 36.2305 13.8916Q43.8477 19.4824 52.9541 22.5586Q62.0605 25.6348 72.0703 25.6348Z"/>
   <path class="multicolor-1:white hierarchical-1:primary SFSymbolsPreviewFFFFFF" d="M54.2969-19.3848Q48.9746-24.6582 44.751-30.8838Q40.5273-37.1094 38.2812-43.457Q36.0352-49.8047 36.6455-55.5664Q37.2559-61.3281 41.6504-65.7227Q41.8457-65.918 42.041-66.1377Q42.2363-66.3574 42.5293-66.5527Q43.9941-67.334 45.8008-68.457Q47.6074-69.5801 49.5117-69.7021Q51.416-69.8242 52.9785-67.5781L61.4258-55.4688Q62.6953-53.7109 62.7441-51.4648Q62.793-49.2188 60.3516-46.4844L57.6172-43.3594Q57.1289-42.8711 57.0557-42.2607Q56.9824-41.6504 57.373-40.918Q58.1055-39.3555 60.1807-36.4746Q62.2559-33.5938 65.4297-30.4688Q68.5059-27.3438 71.46-25.293Q74.4141-23.2422 75.9277-22.3633Q76.6602-21.9238 77.3926-21.9971Q78.125-22.0703 78.6621-22.6074L81.4941-25.3418Q84.1309-27.832 86.3525-27.8564Q88.5742-27.8809 90.3809-26.6113Q94.7266-23.6328 97.29-21.8994Q99.8535-20.166 101.123-19.2871Q102.393-18.4082 102.856-18.0664Q103.32-17.7246 103.467-17.4805Q105.225-15.5273 104.785-12.9395Q104.346-10.3516 101.074-7.12891Q100.977-7.08008 100.928-6.98242Q100.879-6.88477 100.732-6.73828Q96.2891-2.29492 90.5029-1.68457Q84.7168-1.07422 78.3447-3.34473Q71.9727-5.61523 65.7715-9.86328Q59.5703-14.1113 54.2969-19.3848Z"/>
  </g>
  <g id="Black-M" transform="matrix(1 0 0 1 2871.32 1126)">
   <path class="multicolor-0:systemGreenColor hierarchical-0:tertiary SFSymbolsPreview28CD41" d="M62.0605 18.1641Q73.0957 18.1641 82.7637 14.0137Q92.4316 9.86328 99.7559 2.51465Q107.08-4.83398 111.255-14.4775Q115.43-24.1211 115.43-35.1562Q115.43-46.1914 111.255-55.835Q107.08-65.4785 99.7559-72.8271Q92.4316-80.1758 82.7637-84.3262Q73.0957-88.4766 62.0605-88.4766Q51.0742-88.4766 41.4062-84.3262Q31.7383-80.1758 24.3896-72.8271Q17.041-65.4785 12.8906-55.835Q8.74023-46.1914 8.74023-35.1562Q8.74023-24.1211 12.8906-14.4775Q17.041-4.83398 24.3896 2.51465Q31.7383 9.86328 41.4062 14.0137Q51.0742 18.1641 62.0605 18.1641Z"/>
   <path class="multicolor-1:white hierarchical-1:primary SFSymbolsPreviewFFFFFF" d="M50.2441-23.3398Q45.752-27.7832 42.334-32.6172Q38.916-37.4512 37.1826-42.1875Q35.4492-46.9238 35.9131-51.1719Q36.377-55.4199 39.6973-58.7402Q39.8926-58.8867 40.0391-59.0332Q40.1855-59.1797 40.3809-59.375Q42.2363-60.7422 43.8477-61.1816Q45.459-61.6211 46.7773-61.1572Q48.0957-60.6934 49.1211-59.2773L55.127-50.6348Q56.8359-48.1445 56.4941-46.6797Q56.1523-45.2148 54.541-43.457L52.6367-41.4062Q52.1484-40.8691 52.2461-40.2344Q52.3438-39.5996 52.5879-39.3066Q53.3203-38.0371 55.0537-35.9375Q56.7871-33.8379 58.7402-31.8848Q60.791-29.834 62.8174-28.1738Q64.8438-26.5137 66.1621-25.6836Q66.6504-25.3906 67.3096-25.3662Q67.9688-25.3418 68.4082-25.7324L70.3613-27.6367Q71.9727-29.1992 73.5596-29.5654Q75.1465-29.9316 77.5391-28.2715Q79.0039-27.2461 80.4199-26.2207Q81.8359-25.1953 83.2764-24.1943Q84.7168-23.1934 86.1816-22.2168Q88.5742-20.459 88.2568-18.1641Q87.9395-15.8691 86.6211-13.9648Q86.4258-13.6719 86.1572-13.3545Q85.8887-13.0371 85.6445-12.7441Q82.373-9.47266 78.125-9.00879Q73.877-8.54492 69.1406-10.2783Q64.4043-12.0117 59.5703-15.4297Q54.7363-18.8477 50.2441-23.3398Z"/>
  </g>
  <g id="Heavy-M" transform="matrix(1 0 0 1 2575.43 1126)">
   <path class="multicolor-0:systemGreenColor hierarchical-0:tertiary SFSymbolsPreview28CD41" d="M61.2305 17.334Q72.0703 17.334 81.5918 13.2324Q91.1133 9.13086 98.3154 1.9043Q105.518-5.32227 109.644-14.8193Q113.77-24.3164 113.77-35.1562Q113.77-45.9961 109.644-55.4932Q105.518-64.9902 98.3154-72.2412Q91.1133-79.4922 81.5918-83.5693Q72.0703-87.6465 61.2305-87.6465Q50.4395-87.6465 40.918-83.5693Q31.3965-79.4922 24.1699-72.2412Q16.9434-64.9902 12.8418-55.4932Q8.74023-45.9961 8.74023-35.1562Q8.74023-24.3164 12.8418-14.8193Q16.9434-5.32227 24.1699 1.9043Q31.3965 9.13086 40.918 13.2324Q50.4395 17.334 61.2305 17.334Z"/>
   <path class="multicolor-1:white hierarchical-1:primary SFSymbolsPreviewFFFFFF" d="M49.3164-23.3398Q44.873-27.7832 41.4551-32.6172Q38.0371-37.4512 36.3037-42.1875Q34.5703-46.9238 35.0342-51.1963Q35.498-55.4688 38.8184-58.7891Q39.0137-58.9355 39.1602-59.082Q39.3066-59.2285 39.502-59.4238Q41.3086-60.7422 42.9199-61.2061Q44.5312-61.6699 45.8496-61.2305Q47.168-60.791 48.1934-59.375L54.248-50.6836Q55.957-48.291 55.6152-46.7773Q55.2734-45.2637 53.6621-43.5059L51.7578-41.4551Q51.2695-40.918 51.3428-40.3076Q51.416-39.6973 51.6602-39.3555Q52.3926-38.0859 54.126-35.9863Q55.8594-33.8867 57.8613-31.8848Q59.9121-29.834 61.9385-28.1738Q63.9648-26.5137 65.2832-25.6836Q65.7715-25.3906 66.4307-25.3662Q67.0898-25.3418 67.5293-25.7324L69.4824-27.6855Q71.1426-29.248 72.7295-29.5898Q74.3164-29.9316 76.6602-28.3203Q78.2715-27.1973 79.7119-26.1475Q81.1523-25.0977 82.5684-24.1211Q83.9844-23.1445 85.4004-22.2168Q87.7441-20.459 87.4268-18.1641Q87.1094-15.8691 85.7422-13.9648Q85.5469-13.6719 85.2783-13.3789Q85.0098-13.0859 84.7656-12.793Q81.4941-9.52148 77.2461-9.05762Q72.998-8.59375 68.2373-10.3271Q63.4766-12.0605 58.6426-15.4785Q53.8086-18.8965 49.3164-23.3398Z"/>
  </g>
  <g id="Bold-M" transform="matrix(1 0 0 1 2279.65 1126)">
   <path class="multicolor-0:systemGreenColor hierarchical-0:tertiary SFSymbolsPreview28CD41" d="M60.3027 16.4062Q70.9473 16.4062 80.2734 12.3779Q89.5996 8.34961 96.7041 1.2207Q103.809-5.9082 107.861-15.2344Q111.914-24.5605 111.914-35.2051Q111.914-45.8008 107.861-55.127Q103.809-64.4531 96.7041-71.582Q89.5996-78.7109 80.249-82.7393Q70.8984-86.7676 60.3027-86.7676Q49.707-86.7676 40.3564-82.7393Q31.0059-78.7109 23.9014-71.582Q16.7969-64.4531 12.7686-55.127Q8.74023-45.8008 8.74023-35.2051Q8.74023-24.5605 12.7686-15.2344Q16.7969-5.9082 23.9258 1.2207Q31.0547 8.34961 40.3809 12.3779Q49.707 16.4062 60.3027 16.4062Z"/>
   <path class="multicolor-1:white hierarchical-1:primary SFSymbolsPreviewFFFFFF" d="M48.291-23.3887Q43.8477-27.7832 40.4297-32.6172Q37.0117-37.4512 35.2783-42.2119Q33.5449-46.9727 34.0332-51.2451Q34.5215-55.5176 37.8418-58.8867Q37.9883-58.9844 38.1348-59.1553Q38.2812-59.3262 38.5254-59.4727Q40.2832-60.791 41.8701-61.2793Q43.457-61.7676 44.7754-61.3525Q46.0938-60.9375 47.168-59.4727L53.2715-50.7812Q54.8828-48.4375 54.5898-46.8994Q54.2969-45.3613 52.6367-43.6035L50.6836-41.5527Q50.1953-41.0156 50.293-40.4053Q50.3906-39.7949 50.6348-39.4043Q51.3672-38.1348 53.0762-36.0352Q54.7852-33.9355 56.7871-31.9336Q58.8867-29.834 60.9131-28.1738Q62.9395-26.5137 64.2578-25.7324Q64.7949-25.4395 65.4541-25.415Q66.1133-25.3906 66.5527-25.7812L68.5059-27.7344Q70.166-29.3457 71.7529-29.6631Q73.3398-29.9805 75.6836-28.3691Q77.4414-27.1484 78.9307-26.0742Q80.4199-25 81.7871-24.0479Q83.1543-23.0957 84.4727-22.2168Q86.7676-20.5078 86.4746-18.2129Q86.1816-15.918 84.668-13.9648Q84.4727-13.7207 84.2529-13.4277Q84.0332-13.1348 83.7891-12.8906Q80.4688-9.57031 76.1963-9.10645Q71.9238-8.64258 67.1631-10.376Q62.4023-12.1094 57.5684-15.5273Q52.7344-18.9453 48.291-23.3887Z"/>
  </g>
  <g id="Semibold-M" transform="matrix(1 0 0 1 1983.6 1126)">
   <path class="multicolor-0:systemGreenColor hierarchical-0:tertiary SFSymbolsPreview28CD41" d="M59.668 15.7227Q70.1172 15.7227 79.3457 11.7432Q88.5742 7.76367 95.6055 0.732422Q102.637-6.29883 106.616-15.5029Q110.596-24.707 110.596-35.2051Q110.596-45.6543 106.616-54.8584Q102.637-64.0625 95.6055-71.0938Q88.5742-78.125 79.3457-82.1289Q70.1172-86.1328 59.6191-86.1328Q49.1699-86.1328 39.9658-82.1289Q30.7617-78.125 23.7305-71.0938Q16.6992-64.0625 12.7197-54.8584Q8.74023-45.6543 8.74023-35.2051Q8.74023-24.707 12.7197-15.5029Q16.6992-6.29883 23.7305 0.732422Q30.7617 7.76367 39.9902 11.7432Q49.2188 15.7227 59.668 15.7227Z"/>
   <path class="multicolor-1:white hierarchical-1:primary SFSymbolsPreviewFFFFFF" d="M47.5586-23.3887Q43.1152-27.7832 39.7217-32.6172Q36.3281-37.4512 34.5947-42.2119Q32.8613-46.9727 33.3496-51.2695Q33.8379-55.5664 37.1582-58.8867Q37.2559-59.0332 37.4268-59.1797Q37.5977-59.3262 37.8418-59.4727Q39.5508-60.791 41.1377-61.2793Q42.7246-61.7676 44.043-61.377Q45.3613-60.9863 46.4355-59.5215L52.5879-50.7812Q54.1992-48.5352 53.9062-46.9727Q53.6133-45.4102 51.9043-43.6035L50-41.5527Q49.5117-41.0156 49.585-40.4297Q49.6582-39.8438 49.9023-39.4531Q50.6348-38.1836 52.3438-36.084Q54.0527-33.9844 56.1035-31.9336Q58.2031-29.834 60.2295-28.1738Q62.2559-26.5137 63.5742-25.7324Q64.1113-25.4395 64.7705-25.415Q65.4297-25.3906 65.8691-25.7812L67.8223-27.7344Q69.4824-29.3945 71.0938-29.6875Q72.7051-29.9805 75-28.418Q76.8555-27.0996 78.3691-26.0254Q79.8828-24.9512 81.2256-23.999Q82.5684-23.0469 83.8379-22.168Q86.084-20.5078 85.8154-18.2129Q85.5469-15.918 83.9844-13.9648Q83.7891-13.7207 83.5693-13.4521Q83.3496-13.1836 83.1055-12.8906Q79.7852-9.61914 75.5127-9.15527Q71.2402-8.69141 66.4551-10.4248Q61.6699-12.1582 56.8359-15.5518Q52.002-18.9453 47.5586-23.3887Z"/>
  </g>
  <g id="Medium-M" transform="matrix(1 0 0 1 1687.38 1126)">
   <path class="multicolor-0:systemGreenColor hierarchical-0:tertiary SFSymbolsPreview28CD41" d="M59.1797 15.2344Q69.5312 15.2344 78.6621 11.2793Q87.793 7.32422 94.751 0.366211Q101.709-6.5918 105.664-15.7227Q109.619-24.8535 109.619-35.2051Q109.619-45.5566 105.664-54.6875Q101.709-63.8184 94.751-70.7764Q87.793-77.7344 78.6377-81.6895Q69.4824-85.6445 59.1309-85.6445Q48.7793-85.6445 39.6484-81.6895Q30.5176-77.7344 23.584-70.7764Q16.6504-63.8184 12.6953-54.6875Q8.74023-45.5566 8.74023-35.2051Q8.74023-24.8535 12.6953-15.7227Q16.6504-6.5918 23.6084 0.366211Q30.5664 7.32422 39.6973 11.2793Q48.8281 15.2344 59.1797 15.2344Z"/>
   <path class="multicolor-1:white hierarchical-1:primary SFSymbolsPreviewFFFFFF" d="M47.0215-23.3887Q42.5781-27.7832 39.1846-32.6172Q35.791-37.4512 34.0576-42.2363Q32.3242-47.0215 32.8125-51.2939Q33.3008-55.5664 36.6211-58.9355Q36.7188-59.0332 36.8896-59.2041Q37.0605-59.375 37.3047-59.4727Q39.0137-60.791 40.5762-61.3037Q42.1387-61.8164 43.4814-61.4258Q44.8242-61.0352 45.8984-59.6191L52.0508-50.8301Q53.6133-48.584 53.3447-47.0215Q53.0762-45.459 51.3672-43.6523L49.4141-41.6016Q48.9258-41.0645 49.0234-40.4785Q49.1211-39.8926 49.3652-39.4531Q50.0977-38.1836 51.8066-36.084Q53.5156-33.9844 55.5176-31.9824Q57.666-29.834 59.6924-28.1738Q61.7188-26.5137 63.0371-25.7324Q63.5742-25.4395 64.2334-25.415Q64.8926-25.3906 65.332-25.7812L67.2852-27.7344Q68.9453-29.4434 70.5566-29.7363Q72.168-30.0293 74.4629-28.418Q76.416-27.0996 77.9541-25.9766Q79.4922-24.8535 80.8105-23.9502Q82.1289-23.0469 83.3496-22.168Q85.5469-20.5078 85.3027-18.2129Q85.0586-15.918 83.3984-13.9648Q83.2031-13.7207 83.0078-13.4521Q82.8125-13.1836 82.5684-12.9395Q79.248-9.61914 74.9512-9.15527Q70.6543-8.69141 65.8936-10.4248Q61.1328-12.1582 56.2988-15.5518Q51.4648-18.9453 47.0215-23.3887Z"/>
  </g>
  <g id="Regular-M" transform="matrix(1 0 0 1 1391.3 1126)">
   <path class="multicolor-0:systemGreenColor hierarchical-0:tertiary SFSymbolsPreview28CD41" d="M58.5449 14.5996Q68.75 14.5996 77.7588 10.6934Q86.7676 6.78711 93.6523-0.0976562Q100.537-6.98242 104.443-15.9912Q108.35-25 108.35-35.2051Q108.35-45.4102 104.443-54.4189Q100.537-63.4277 93.6523-70.3125Q86.7676-77.1973 77.7344-81.1035Q68.7012-85.0098 58.4961-85.0098Q48.291-85.0098 39.2822-81.1035Q30.2734-77.1973 23.4131-70.3125Q16.5527-63.4277 12.6465-54.4189Q8.74023-45.4102 8.74023-35.2051Q8.74023-25 12.6465-15.9912Q16.5527-6.98242 23.4375-0.0976562Q30.3223 6.78711 39.3311 10.6934Q48.3398 14.5996 58.5449 14.5996Z"/>
   <path class="multicolor-1:white hierarchical-1:primary SFSymbolsPreviewFFFFFF" d="M46.2891-23.3887Q41.8945-27.7832 38.501-32.6172Q35.1074-37.4512 33.374-42.2363Q31.6406-47.0215 32.1289-51.3184Q32.6172-55.6152 35.9375-58.9844Q36.0352-59.082 36.2061-59.2529Q36.377-59.4238 36.6211-59.5215Q38.2812-60.791 39.8438-61.3281Q41.4062-61.8652 42.749-61.499Q44.0918-61.1328 45.166-59.668L51.3672-50.8789Q52.9297-48.6816 52.6611-47.0947Q52.3926-45.5078 50.6836-43.7012L48.7305-41.6504Q48.2422-41.1133 48.3154-40.5273Q48.3887-39.9414 48.6328-39.502Q49.3652-38.2324 51.0742-36.1328Q52.7832-34.0332 54.834-31.9824Q56.9824-29.834 59.0088-28.1738Q61.0352-26.5137 62.3535-25.7324Q62.8906-25.4395 63.5498-25.415Q64.209-25.3906 64.6484-25.7812L66.6016-27.7832Q68.3105-29.4922 69.9219-29.7607Q71.5332-30.0293 73.7793-28.4668Q75.8301-27.0508 77.3926-25.9277Q78.9551-24.8047 80.249-23.9014Q81.543-22.998 82.7148-22.168Q84.9121-20.5078 84.668-18.2129Q84.4238-15.918 82.7148-13.9648Q82.5195-13.7207 82.3242-13.4766Q82.1289-13.2324 81.8848-12.9883Q78.5645-9.66797 74.2676-9.2041Q69.9707-8.74023 65.1855-10.4736Q60.4004-12.207 55.5664-15.6006Q50.7324-18.9941 46.2891-23.3887Z"/>
  </g>
  <g id="Light-M" transform="matrix(1 0 0 1 1095.42 1126)">
   <path class="multicolor-0:systemGreenColor hierarchical-0:tertiary SFSymbolsPreview28CD41" d="M57.7148 13.7695Q67.7734 13.7695 76.6357 9.93652Q85.498 6.10352 92.2607-0.65918Q99.0234-7.42188 102.856-16.2842Q106.689-25.1465 106.689-35.2051Q106.689-45.2637 102.856-54.126Q99.0234-62.9883 92.2607-69.751Q85.498-76.5137 76.6113-80.3467Q67.7246-84.1797 57.666-84.1797Q47.6074-84.1797 38.7451-80.3467Q29.8828-76.5137 23.1445-69.751Q16.4062-62.9883 12.5732-54.126Q8.74023-45.2637 8.74023-35.2051Q8.74023-25.1465 12.5732-16.2842Q16.4062-7.42188 23.1689-0.65918Q29.9316 6.10352 38.7939 9.93652Q47.6562 13.7695 57.7148 13.7695Z"/>
   <path class="multicolor-1:white hierarchical-1:primary SFSymbolsPreviewFFFFFF" d="M45.0195-23.2422Q40.6738-27.5879 37.3291-32.3975Q33.9844-37.207 32.251-42.041Q30.5176-46.875 30.9814-51.2207Q31.4453-55.5664 34.8145-58.9355Q34.9121-59.082 35.083-59.2529Q35.2539-59.4238 35.498-59.5215Q37.0117-60.5957 38.5254-61.2305Q40.0391-61.8652 41.4062-61.6455Q42.7734-61.4258 43.8965-59.8633L50.1953-50.8789Q51.6113-48.9746 51.4404-47.3389Q51.2695-45.7031 49.4629-43.7988L47.5098-41.6016Q47.0215-41.1133 47.0703-40.5762Q47.1191-40.0391 47.3633-39.5508Q48.0469-38.2812 49.7314-36.1572Q51.416-34.0332 53.5645-31.8848Q55.8105-29.6387 57.9102-28.0029Q60.0098-26.3672 61.2793-25.5859Q61.8164-25.293 62.4512-25.293Q63.0859-25.293 63.5254-25.6836L65.5762-27.7344Q67.334-29.4922 68.9941-29.6875Q70.6543-29.8828 72.6562-28.5156Q75.4395-26.5625 77.1729-25.3418Q78.9062-24.1211 80.0049-23.3643Q81.1035-22.6074 81.9336-21.9727Q83.8867-20.3613 83.6182-18.1396Q83.3496-15.918 81.3965-13.8184Q81.2012-13.623 81.0547-13.4277Q80.9082-13.2324 80.7129-13.0371Q77.3438-9.66797 72.998-9.2041Q68.6523-8.74023 63.8184-10.498Q58.9844-12.2559 54.1504-15.6006Q49.3164-18.9453 45.0195-23.2422Z"/>
  </g>
  <g id="Thin-M" transform="matrix(1 0 0 1 799.782 1126)">
   <path class="multicolor-0:systemGreenColor hierarchical-0:tertiary SFSymbolsPreview28CD41" d="M56.5918 12.6465Q66.5039 12.6465 75.1709 8.93555Q83.8379 5.22461 90.4297-1.3916Q97.0215-8.00781 100.781-16.6748Q104.541-25.3418 104.541-35.2051Q104.541-45.0684 100.781-53.7354Q97.0215-62.4023 90.4297-69.0186Q83.8379-75.6348 75.1709-79.3457Q66.5039-83.0566 56.5918-83.0566Q46.7285-83.0566 38.0615-79.3457Q29.3945-75.6348 22.8271-69.0186Q16.2598-62.4023 12.5-53.7354Q8.74023-45.0684 8.74023-35.2051Q8.74023-25.3418 12.4756-16.6748Q16.2109-8.00781 22.8027-1.3916Q29.3945 5.22461 38.0859 8.93555Q46.7773 12.6465 56.5918 12.6465Z"/>
   <path class="multicolor-1:white hierarchical-1:primary SFSymbolsPreviewFFFFFF" d="M43.2617-22.998Q39.0625-27.2461 35.7422-32.0557Q32.4219-36.8652 30.6885-41.748Q28.9551-46.6309 29.4434-51.0498Q29.9316-55.4688 33.3496-58.8379Q33.4473-58.9844 33.6182-59.1553Q33.7891-59.3262 34.0332-59.4727Q35.2539-60.2539 36.7188-61.0352Q38.1836-61.8164 39.5996-61.7676Q41.0156-61.7188 42.2363-60.1074L48.6816-50.8789Q49.8047-49.2676 49.7559-47.5586Q49.707-45.8496 47.8516-43.7988L45.8008-41.5039Q45.4102-41.1133 45.3857-40.6006Q45.3613-40.0879 45.6543-39.5508Q46.2891-38.3301 47.9248-36.1328Q49.5605-33.9355 51.8555-31.6406Q54.1992-29.2969 56.3965-27.6855Q58.5938-26.0742 59.8145-25.3418Q60.4004-25.0488 60.9863-25.0732Q61.5723-25.0977 62.0117-25.5371L64.1602-27.5879Q66.0645-29.4922 67.7734-29.5654Q69.4824-29.6387 71.0938-28.4668Q74.9023-25.8789 76.8311-24.5361Q78.7598-23.1934 79.6143-22.6074Q80.4688-22.0215 80.9082-21.6309Q82.4707-20.0684 82.1533-17.9932Q81.8359-15.918 79.5898-13.5742Q79.4434-13.4766 79.3701-13.3545Q79.2969-13.2324 79.1504-13.0859Q75.7324-9.66797 71.3135-9.2041Q66.8945-8.74023 61.9873-10.4736Q57.0801-12.207 52.2705-15.5273Q47.4609-18.8477 43.2617-22.998Z"/>
  </g>
  <g id="Ultralight-M" transform="matrix(1 0 0 1 503.632 1126)">
   <path class="multicolor-0:systemGreenColor hierarchical-0:tertiary SFSymbolsPreview28CD41" d="M56.0547 12.1094Q65.8203 12.1094 74.3896 8.42285Q82.959 4.73633 89.4775-1.78223Q95.9961-8.30078 99.707-16.8701Q103.418-25.4395 103.418-35.2051Q103.418-44.9707 99.707-53.54Q95.9961-62.1094 89.4775-68.6279Q82.959-75.1465 74.3896-78.833Q65.8203-82.5195 56.0547-82.5195Q46.2891-82.5195 37.7197-78.833Q29.1504-75.1465 22.6562-68.6279Q16.1621-62.1094 12.4512-53.54Q8.74023-44.9707 8.74023-35.2051Q8.74023-25.4395 12.4268-16.8701Q16.1133-8.30078 22.6318-1.78223Q29.1504 4.73633 37.7197 8.42285Q46.2891 12.1094 56.0547 12.1094Z"/>
   <path class="multicolor-1:white hierarchical-1:primary SFSymbolsPreviewFFFFFF" d="M42.3828-22.9492Q38.2324-27.0996 34.9365-31.9092Q31.6406-36.7188 29.9072-41.626Q28.1738-46.5332 28.6377-50.9766Q29.1016-55.4199 32.5684-58.8379Q32.666-58.9844 32.8369-59.1553Q33.0078-59.3262 33.252-59.4727Q34.375-60.1562 35.791-60.9863Q37.207-61.8164 38.6719-61.8652Q40.1367-61.9141 41.3574-60.2539L47.8516-50.8789Q48.877-49.4629 48.9014-47.7295Q48.9258-45.9961 47.0215-43.8965L44.9707-41.5039Q44.5312-41.1133 44.5068-40.6494Q44.4824-40.1855 44.7754-39.5996Q45.3613-38.3789 46.9727-36.1572Q48.584-33.9355 50.9766-31.5918Q53.3691-29.1504 55.6396-27.5635Q57.9102-25.9766 59.082-25.293Q59.668-24.9512 60.2295-25Q60.791-25.0488 61.2305-25.4883L63.4277-27.5391Q65.3809-29.4922 67.1143-29.5166Q68.8477-29.541 70.3125-28.5156Q74.6582-25.5371 76.6846-24.1455Q78.7109-22.7539 79.4189-22.2656Q80.127-21.7773 80.3711-21.5332Q81.7871-19.9707 81.4453-17.9443Q81.1035-15.918 78.6621-13.4766Q78.5645-13.4277 78.5156-13.3301Q78.4668-13.2324 78.3203-13.1348Q74.9023-9.66797 70.4346-9.2041Q65.9668-8.74023 61.0352-10.498Q56.1035-12.2559 51.2939-15.5518Q46.4844-18.8477 42.3828-22.9492Z"/>
  </g>
  <g id="Black-S" transform="matrix(1 0 0 1 2884.57 696)">
   <path class="multicolor-0:systemGreenColor hierarchical-0:tertiary SFSymbolsPreview28CD41" d="M48.8281 6.83594Q57.5195 6.83594 65.1123 3.56445Q72.7051 0.292969 78.4912-5.49316Q84.2773-11.2793 87.5488-18.8721Q90.8203-26.4648 90.8203-35.1562Q90.8203-43.8477 87.5488-51.4404Q84.2773-59.0332 78.4912-64.8193Q72.7051-70.6055 65.1123-73.877Q57.5195-77.1484 48.8281-77.1484Q40.1367-77.1484 32.5439-73.877Q24.9512-70.6055 19.165-64.8193Q13.3789-59.0332 10.1074-51.4404Q6.83594-43.8477 6.83594-35.1562Q6.83594-26.4648 10.1074-18.8721Q13.3789-11.2793 19.165-5.49316Q24.9512 0.292969 32.5439 3.56445Q40.1367 6.83594 48.8281 6.83594Z"/>
   <path class="multicolor-1:white hierarchical-1:primary SFSymbolsPreviewFFFFFF" d="M39.5508-25.8789Q36.0352-29.3945 33.374-33.1787Q30.7129-36.9629 29.3457-40.6738Q27.9785-44.3848 28.3447-47.7051Q28.7109-51.0254 31.2988-53.6133Q31.4453-53.7109 31.5674-53.833Q31.6895-53.9551 31.8359-54.1016Q33.3008-55.1758 34.5459-55.542Q35.791-55.9082 36.8164-55.542Q37.8418-55.1758 38.6719-54.0527L43.4082-47.2656Q44.7266-45.3125 44.458-44.1895Q44.1895-43.0664 42.9199-41.6504L41.4551-40.0391Q41.0645-39.6484 41.1377-39.1357Q41.2109-38.623 41.4062-38.3789Q41.9434-37.4023 43.3105-35.7666Q44.6777-34.1309 46.2402-32.5684Q47.8027-31.0059 49.4141-29.7119Q51.0254-28.418 52.0508-27.7344Q52.3926-27.4902 52.9053-27.4658Q53.418-27.4414 53.8086-27.7832L55.3223-29.248Q56.5918-30.5176 57.8369-30.7861Q59.082-31.0547 60.9375-29.7363Q62.0605-28.9551 63.1836-28.1494Q64.3066-27.3438 65.4297-26.5625Q66.5527-25.7812 67.7246-25Q69.5801-23.6328 69.3359-21.8506Q69.0918-20.0684 68.0664-18.5547Q67.9199-18.3105 67.7002-18.0664Q67.4805-17.8223 67.2852-17.5781Q64.6973-15.0391 61.377-14.6729Q58.0566-14.3066 54.3457-15.6494Q50.6348-16.9922 46.8506-19.6777Q43.0664-22.3633 39.5508-25.8789Z"/>
  </g>
  <g id="Heavy-S" transform="matrix(1 0 0 1 2588.47 696)">
   <path class="multicolor-0:systemGreenColor hierarchical-0:tertiary SFSymbolsPreview28CD41" d="M48.1934 6.20117Q56.7871 6.20117 64.2578 2.97852Q71.7285-0.244141 77.4414-5.95703Q83.1543-11.6699 86.377-19.1406Q89.5996-26.6113 89.5996-35.1562Q89.5996-43.7012 86.377-51.1963Q83.1543-58.6914 77.4414-64.4043Q71.7285-70.1172 64.2334-73.3398Q56.7383-76.5625 48.1934-76.5625Q39.6484-76.5625 32.1777-73.3398Q24.707-70.1172 18.9941-64.4043Q13.2812-58.6914 10.0586-51.1963Q6.83594-43.7012 6.83594-35.1562Q6.83594-26.6113 10.0586-19.1406Q13.2812-11.6699 18.9941-5.95703Q24.707-0.244141 32.2021 2.97852Q39.6973 6.20117 48.1934 6.20117Z"/>
   <path class="multicolor-1:white hierarchical-1:primary SFSymbolsPreviewFFFFFF" d="M38.916-25.9277Q35.4004-29.4434 32.7393-33.2275Q30.0781-37.0117 28.7109-40.7227Q27.3438-44.4336 27.71-47.7539Q28.0762-51.0742 30.6641-53.6621Q30.8105-53.7598 30.9326-53.8818Q31.0547-54.0039 31.2012-54.1504Q32.666-55.2246 33.9111-55.5908Q35.1562-55.957 36.1816-55.5908Q37.207-55.2246 38.0371-54.1016L42.7734-47.3145Q44.0918-45.4102 43.8232-44.2627Q43.5547-43.1152 42.2852-41.6992L40.8203-40.0879Q40.4297-39.6973 40.5029-39.1846Q40.5762-38.6719 40.7715-38.4277Q41.3086-37.4512 42.6758-35.8154Q44.043-34.1797 45.6055-32.6172Q47.168-31.0059 48.7793-29.7119Q50.3906-28.418 51.416-27.7344Q51.7578-27.5391 52.2705-27.5146Q52.7832-27.4902 53.1738-27.832L54.6875-29.2969Q55.957-30.5664 57.2021-30.835Q58.4473-31.1035 60.3027-29.7852Q61.4746-28.9551 62.5977-28.1494Q63.7207-27.3438 64.8438-26.5625Q65.9668-25.7812 67.0898-25Q68.9453-23.6816 68.7256-21.875Q68.5059-20.0684 67.4316-18.5547Q67.2852-18.3594 67.0654-18.1152Q66.8457-17.8711 66.6504-17.627Q64.0625-15.0879 60.7422-14.7217Q57.4219-14.3555 53.7109-15.6982Q50-17.041 46.2158-19.7266Q42.4316-22.4121 38.916-25.9277Z"/>
  </g>
  <g id="Bold-S" transform="matrix(1 0 0 1 2292.42 696)">
   <path class="multicolor-0:systemGreenColor hierarchical-0:tertiary SFSymbolsPreview28CD41" d="M47.5586 5.51758Q55.957 5.51758 63.3057 2.34375Q70.6543-0.830078 76.2695-6.46973Q81.8848-12.1094 85.083-19.458Q88.2812-26.8066 88.2812-35.2051Q88.2812-43.5547 85.083-50.9277Q81.8848-58.3008 76.2695-63.916Q70.6543-69.5312 63.2812-72.7051Q55.9082-75.8789 47.5098-75.8789Q39.1602-75.8789 31.7871-72.7051Q24.4141-69.5312 18.8232-63.916Q13.2324-58.3008 10.0342-50.9277Q6.83594-43.5547 6.83594-35.2051Q6.83594-26.8066 10.0342-19.458Q13.2324-12.1094 18.8477-6.46973Q24.4629-0.830078 31.8115 2.34375Q39.1602 5.51758 47.5586 5.51758Z"/>
   <path class="multicolor-1:white hierarchical-1:primary SFSymbolsPreviewFFFFFF" d="M38.2324-25.9766Q34.7168-29.4922 32.0557-33.2764Q29.3945-37.0605 28.0273-40.7715Q26.6602-44.4824 27.0264-47.8027Q27.3926-51.123 29.9805-53.7598Q30.127-53.8574 30.249-53.9795Q30.3711-54.1016 30.5176-54.1992Q31.9824-55.2734 33.2275-55.6396Q34.4727-56.0059 35.498-55.6641Q36.5234-55.3223 37.3535-54.1992L42.0898-47.4121Q43.4082-45.5078 43.1641-44.3359Q42.9199-43.1641 41.6016-41.748L40.1367-40.1855Q39.7461-39.7461 39.8193-39.2578Q39.8926-38.7695 40.0879-38.4766Q40.625-37.5 41.9922-35.8643Q43.3594-34.2285 44.9219-32.666Q46.5332-31.0547 48.1201-29.7607Q49.707-28.4668 50.7324-27.7832Q51.0742-27.5879 51.6113-27.5635Q52.1484-27.5391 52.4902-27.8809L54.0039-29.3457Q55.2734-30.6152 56.543-30.8838Q57.8125-31.1523 59.668-29.834Q60.8398-29.0039 61.9629-28.1982Q63.0859-27.3926 64.209-26.6113Q65.332-25.8301 66.4551-25.0488Q68.3105-23.7305 68.0908-21.8994Q67.8711-20.0684 66.748-18.6035Q66.6016-18.4082 66.4062-18.1641Q66.2109-17.9199 66.0156-17.6758Q63.4277-15.1367 60.083-14.7705Q56.7383-14.4043 53.0273-15.7471Q49.3164-17.0898 45.5322-19.7754Q41.748-22.4609 38.2324-25.9766Z"/>
  </g>
  <g id="Semibold-S" transform="matrix(1 0 0 1 1996.2 696)">
   <path class="multicolor-0:systemGreenColor hierarchical-0:tertiary SFSymbolsPreview28CD41" d="M47.0703 5.0293Q55.3711 5.0293 62.6465 1.9043Q69.9219-1.2207 75.4639-6.81152Q81.0059-12.4023 84.1553-19.6777Q87.3047-26.9531 87.3047-35.2051Q87.3047-43.457 84.1553-50.7324Q81.0059-58.0078 75.4395-63.5742Q69.873-69.1406 62.5977-72.29Q55.3223-75.4395 47.0215-75.4395Q38.7695-75.4395 31.4941-72.29Q24.2188-69.1406 18.6768-63.5742Q13.1348-58.0078 9.98535-50.7324Q6.83594-43.457 6.83594-35.2051Q6.83594-26.9531 9.98535-19.6777Q13.1348-12.4023 18.7012-6.81152Q24.2676-1.2207 31.543 1.9043Q38.8184 5.0293 47.0703 5.0293Z"/>
   <path class="multicolor-1:white hierarchical-1:primary SFSymbolsPreviewFFFFFF" d="M37.6953-25.9766Q34.2285-29.4922 31.543-33.2764Q28.8574-37.0605 27.5146-40.7715Q26.1719-44.4824 26.5381-47.8271Q26.9043-51.1719 29.4922-53.7598Q29.5898-53.8574 29.7119-53.9795Q29.834-54.1016 30.0293-54.248Q31.4453-55.3223 32.6904-55.6885Q33.9355-56.0547 34.9609-55.6885Q35.9863-55.3223 36.8164-54.1992L41.6016-47.4121Q42.9199-45.5566 42.6758-44.3604Q42.4316-43.1641 41.1133-41.7969L39.5996-40.1855Q39.209-39.7949 39.2822-39.2822Q39.3555-38.7695 39.5508-38.5254Q40.1367-37.5 41.4795-35.8887Q42.8223-34.2773 44.4336-32.666Q46.0449-31.0547 47.6074-29.7607Q49.1699-28.4668 50.1953-27.7832Q50.5859-27.5879 51.123-27.5635Q51.6602-27.5391 52.002-27.8809L53.5156-29.3945Q54.7852-30.6641 56.0547-30.9082Q57.3242-31.1523 59.1797-29.8828Q60.3516-29.0039 61.499-28.1982Q62.6465-27.3926 63.7451-26.6113Q64.8438-25.8301 65.9668-25.0488Q67.8223-23.7305 67.627-21.8994Q67.4316-20.0684 66.2598-18.6035Q66.1133-18.4082 65.918-18.1641Q65.7227-17.9199 65.5273-17.7246Q62.9395-15.1367 59.5947-14.7705Q56.25-14.4043 52.5391-15.7715Q48.8281-17.1387 45.0195-19.7998Q41.2109-22.4609 37.6953-25.9766Z"/>
  </g>
  <g id="Medium-S" transform="matrix(1 0 0 1 1699.83 696)">
   <path class="multicolor-0:systemGreenColor hierarchical-0:tertiary SFSymbolsPreview28CD41" d="M46.7285 4.6875Q54.9316 4.6875 62.1338 1.5625Q69.3359-1.5625 74.8535-7.08008Q80.3711-12.5977 83.4961-19.7998Q86.6211-27.002 86.6211-35.2051Q86.6211-43.3594 83.4961-50.5859Q80.3711-57.8125 74.8291-63.3301Q69.2871-68.8477 62.085-71.9482Q54.8828-75.0488 46.6797-75.0488Q38.4766-75.0488 31.2744-71.9482Q24.0723-68.8477 18.5791-63.3301Q13.0859-57.8125 9.96094-50.5859Q6.83594-43.3594 6.83594-35.2051Q6.83594-27.002 9.96094-19.7998Q13.0859-12.5977 18.6035-7.08008Q24.1211-1.5625 31.3232 1.5625Q38.5254 4.6875 46.7285 4.6875Z"/>
   <path class="multicolor-1:white hierarchical-1:primary SFSymbolsPreviewFFFFFF" d="M37.3535-25.9766Q33.8867-29.4922 31.2012-33.2764Q28.5156-37.0605 27.1729-40.7715Q25.8301-44.4824 26.1963-47.8271Q26.5625-51.1719 29.1504-53.8086Q29.248-53.9062 29.3701-54.0283Q29.4922-54.1504 29.6875-54.248Q31.1035-55.3223 32.3486-55.6885Q33.5938-56.0547 34.6191-55.7129Q35.6445-55.3711 36.4746-54.248L41.2598-47.4609Q42.5781-45.6055 42.334-44.3848Q42.0898-43.1641 40.7715-41.7969L39.2578-40.2344Q38.8672-39.7949 38.9404-39.3066Q39.0137-38.8184 39.209-38.5254Q39.7949-37.5 41.1377-35.8887Q42.4805-34.2773 44.0918-32.666Q45.7031-31.1035 47.2656-29.8096Q48.8281-28.5156 49.8535-27.832Q50.2441-27.5879 50.7812-27.5635Q51.3184-27.5391 51.6602-27.8809L53.1738-29.3945Q54.4434-30.6641 55.7129-30.9082Q56.9824-31.1523 58.8379-29.8828Q60.0098-29.0527 61.1572-28.2227Q62.3047-27.3926 63.4033-26.6357Q64.502-25.8789 65.625-25.0977Q67.4805-23.7305 67.2852-21.8994Q67.0898-20.0684 65.918-18.6523Q65.7715-18.4082 65.5762-18.1641Q65.3809-17.9199 65.1855-17.7246Q62.5977-15.1367 59.2529-14.7705Q55.9082-14.4043 52.1973-15.7715Q48.4863-17.1387 44.6777-19.7998Q40.8691-22.4609 37.3535-25.9766Z"/>
  </g>
  <g id="Regular-S" transform="matrix(1 0 0 1 1403.58 696)">
   <path class="multicolor-0:systemGreenColor hierarchical-0:tertiary SFSymbolsPreview28CD41" d="M46.2402 4.19922Q54.3457 4.19922 61.4746 1.12305Q68.6035-1.95312 74.0479-7.42188Q79.4922-12.8906 82.5928-20.0195Q85.6934-27.1484 85.6934-35.2051Q85.6934-43.2617 82.5928-50.3906Q79.4922-57.5195 74.0234-62.9883Q68.5547-68.457 61.4258-71.5332Q54.2969-74.6094 46.1914-74.6094Q38.1348-74.6094 31.0059-71.5332Q23.877-68.457 18.457-62.9883Q13.0371-57.5195 9.93652-50.3906Q6.83594-43.2617 6.83594-35.2051Q6.83594-27.1484 9.93652-20.0195Q13.0371-12.8906 18.4814-7.42188Q23.9258-1.95312 31.0547 1.12305Q38.1836 4.19922 46.2402 4.19922Z"/>
   <path class="multicolor-1:white hierarchical-1:primary SFSymbolsPreviewFFFFFF" d="M36.8652-26.0254Q33.3984-29.541 30.7129-33.3252Q28.0273-37.1094 26.6846-40.8203Q25.3418-44.5312 25.708-47.876Q26.0742-51.2207 28.6621-53.8574Q28.7598-53.9551 28.8818-54.0771Q29.0039-54.1992 29.1992-54.2969Q30.6152-55.3711 31.8604-55.7373Q33.1055-56.1035 34.1309-55.7617Q35.1562-55.4199 35.9863-54.2969L40.7715-47.5098Q42.0898-45.6543 41.8457-44.4336Q41.6016-43.2129 40.2832-41.8457L38.7695-40.2832Q38.3789-39.8438 38.4521-39.3555Q38.5254-38.8672 38.7207-38.5742Q39.3066-37.5488 40.6494-35.9375Q41.9922-34.3262 43.6035-32.7148Q45.2148-31.1035 46.7773-29.8096Q48.3398-28.5156 49.3652-27.832Q49.7559-27.6367 50.293-27.6123Q50.8301-27.5879 51.1719-27.9297L52.6855-29.4434Q53.9551-30.7129 55.2246-30.957Q56.4941-31.2012 58.3496-29.9316Q59.5703-29.0527 60.7178-28.2227Q61.8652-27.3926 62.9639-26.6357Q64.0625-25.8789 65.1367-25.0977Q66.9922-23.7793 66.8213-21.9238Q66.6504-20.0684 65.4297-18.6523Q65.2832-18.457 65.0879-18.2129Q64.8926-17.9688 64.6973-17.7734Q62.1094-15.1855 58.7646-14.8193Q55.4199-14.4531 51.709-15.8203Q47.998-17.1875 44.1895-19.8486Q40.3809-22.5098 36.8652-26.0254Z"/>
  </g>
  <g id="Light-S" transform="matrix(1 0 0 1 1107.6 696)">
   <path class="multicolor-0:systemGreenColor hierarchical-0:tertiary SFSymbolsPreview28CD41" d="M45.5078 3.4668Q53.4668 3.4668 60.4736 0.463867Q67.4805-2.53906 72.8271-7.91016Q78.1738-13.2812 81.2012-20.2637Q84.2285-27.2461 84.2285-35.2051Q84.2285-43.1641 81.2012-50.1465Q78.1738-57.1289 72.8027-62.5Q67.4316-67.8711 60.4492-70.874Q53.4668-73.877 45.459-73.877Q37.5488-73.877 30.542-70.874Q23.5352-67.8711 18.2129-62.5Q12.8906-57.1289 9.86328-50.1465Q6.83594-43.1641 6.83594-35.2051Q6.83594-27.2461 9.86328-20.2637Q12.8906-13.2812 18.2373-7.91016Q23.584-2.53906 30.5908 0.463867Q37.5977 3.4668 45.5078 3.4668Z"/>
   <path class="multicolor-1:white hierarchical-1:primary SFSymbolsPreviewFFFFFF" d="M35.791-25.9277Q32.373-29.3457 29.7119-33.1299Q27.0508-36.9141 25.708-40.6738Q24.3652-44.4336 24.7314-47.8027Q25.0977-51.1719 27.7344-53.8574Q27.832-53.9551 27.9541-54.0771Q28.0762-54.1992 28.2715-54.2969Q29.4922-55.2246 30.7129-55.6641Q31.9336-56.1035 32.9834-55.8838Q34.0332-55.6641 34.9121-54.4922L39.7949-47.5098Q40.9668-45.8984 40.7959-44.6289Q40.625-43.3594 39.2578-41.9434L37.6953-40.2832Q37.3535-39.8438 37.3779-39.4043Q37.4023-38.9648 37.6465-38.623Q38.1836-37.6465 39.502-35.9863Q40.8203-34.3262 42.5293-32.6172Q44.1895-30.9082 45.8252-29.6387Q47.4609-28.3691 48.4375-27.7344Q48.877-27.5391 49.3652-27.5146Q49.8535-27.4902 50.1953-27.832L51.8066-29.3945Q53.125-30.7617 54.4189-30.9326Q55.7129-31.1035 57.373-29.9805Q59.2773-28.6133 60.5713-27.71Q61.8652-26.8066 62.793-26.1719Q63.7207-25.5371 64.502-24.9512Q66.1133-23.6328 65.918-21.875Q65.7227-20.1172 64.2578-18.5547Q64.1602-18.3594 64.0137-18.1885Q63.8672-18.0176 63.7207-17.8223Q61.084-15.2344 57.6904-14.8682Q54.2969-14.502 50.5371-15.8691Q46.7773-17.2363 42.9688-19.873Q39.1602-22.5098 35.791-25.9277Z"/>
  </g>
  <g id="Thin-S" transform="matrix(1 0 0 1 811.867 696)">
   <path class="multicolor-0:systemGreenColor hierarchical-0:tertiary SFSymbolsPreview28CD41" d="M44.5312 2.49023Q52.3438 2.49023 59.1553-0.439453Q65.9668-3.36914 71.1914-8.59375Q76.416-13.8184 79.3457-20.6299Q82.2754-27.4414 82.2754-35.2051Q82.2754-42.9688 79.3457-49.7803Q76.416-56.5918 71.1914-61.8164Q65.9668-67.041 59.1553-69.9707Q52.3438-72.9004 44.5312-72.9004Q36.7676-72.9004 29.9316-69.9707Q23.0957-67.041 17.9199-61.8164Q12.7441-56.5918 9.79004-49.7803Q6.83594-42.9688 6.83594-35.2051Q6.83594-27.4414 9.79004-20.6299Q12.7441-13.8184 17.9199-8.59375Q23.0957-3.36914 29.9316-0.439453Q36.7676 2.49023 44.5312 2.49023Z"/>
   <path class="multicolor-1:white hierarchical-1:primary SFSymbolsPreviewFFFFFF" d="M34.2285-25.7324Q30.9082-29.0039 28.2959-32.7881Q25.6836-36.5723 24.3408-40.3809Q22.998-44.1895 23.3643-47.6318Q23.7305-51.0742 26.3672-53.7598Q26.4648-53.8574 26.5869-54.0039Q26.709-54.1504 26.9043-54.248Q27.9785-54.9316 29.126-55.5176Q30.2734-56.1035 31.3965-56.0059Q32.5195-55.9082 33.3984-54.6387L38.4277-47.5098Q39.3555-46.1426 39.3066-44.8486Q39.2578-43.5547 37.8418-41.9434L36.2305-40.1855Q35.8887-39.8438 35.8887-39.4287Q35.8887-39.0137 36.084-38.623Q36.5723-37.6465 37.8662-35.9375Q39.1602-34.2285 40.9668-32.4707Q42.7734-30.6152 44.4824-29.3701Q46.1914-28.125 47.168-27.5391Q47.6074-27.2949 48.0713-27.3193Q48.5352-27.3438 48.877-27.6855L50.5371-29.2969Q52.002-30.7129 53.3203-30.7861Q54.6387-30.8594 56.0059-29.9316Q58.7891-28.0273 60.2539-27.002Q61.7188-25.9766 62.4512-25.4883Q63.1836-25 63.5742-24.6582Q64.8438-23.3887 64.624-21.7285Q64.4043-20.0684 62.6465-18.3105Q62.5977-18.2129 62.5244-18.0908Q62.4512-17.9688 62.3047-17.8711Q59.668-15.1855 56.2012-14.8193Q52.7344-14.4531 48.9014-15.8203Q45.0684-17.1875 41.2842-19.7998Q37.5-22.4121 34.2285-25.7324Z"/>
  </g>
  <g id="Ultralight-S" transform="matrix(1 0 0 1 515.644 696)">
   <path class="multicolor-0:systemGreenColor hierarchical-0:tertiary SFSymbolsPreview28CD41" d="M44.043 2.00195Q51.7578 2.00195 58.4717-0.878906Q65.1855-3.75977 70.3369-8.91113Q75.4883-14.0625 78.3936-20.7764Q81.2988-27.4902 81.2988-35.2051Q81.2988-42.9199 78.3936-49.6338Q75.4883-56.3477 70.3369-61.499Q65.1855-66.6504 58.4717-69.5312Q51.7578-72.4121 44.043-72.4121Q36.377-72.4121 29.6387-69.5312Q22.9004-66.6504 17.7734-61.499Q12.6465-56.3477 9.74121-49.6338Q6.83594-42.9199 6.83594-35.2051Q6.83594-27.4902 9.74121-20.7764Q12.6465-14.0625 17.7734-8.91113Q22.9004-3.75977 29.6387-0.878906Q36.377 2.00195 44.043 2.00195Z"/>
   <path class="multicolor-1:white hierarchical-1:primary SFSymbolsPreviewFFFFFF" d="M33.5449-25.6836Q30.2246-28.9062 27.6367-32.6904Q25.0488-36.4746 23.7061-40.3076Q22.3633-44.1406 22.7295-47.6074Q23.0957-51.0742 25.7812-53.7598Q25.8789-53.8574 26.001-54.0039Q26.123-54.1504 26.3184-54.248Q27.2461-54.834 28.3691-55.4688Q29.4922-56.1035 30.6396-56.1035Q31.7871-56.1035 32.666-54.7852L37.793-47.5098Q38.623-46.3379 38.623-44.9951Q38.623-43.6523 37.1582-42.041L35.498-40.1855Q35.2051-39.8438 35.1807-39.4775Q35.1562-39.1113 35.4004-38.6719Q35.8398-37.7441 37.1094-35.9863Q38.3789-34.2285 40.2832-32.4219Q42.0898-30.5176 43.8477-29.2725Q45.6055-28.0273 46.582-27.4902Q47.0215-27.2461 47.4609-27.2705Q47.9004-27.2949 48.2422-27.6367L49.9512-29.248Q51.4648-30.7617 52.8076-30.7861Q54.1504-30.8105 55.3711-29.9805Q58.5938-27.7344 60.1807-26.6846Q61.7676-25.6348 62.3535-25.2197Q62.9395-24.8047 63.1348-24.5605Q64.3066-23.3398 64.0625-21.7285Q63.8184-20.1172 61.9141-18.2617Q61.8652-18.1641 61.8164-18.0908Q61.7676-18.0176 61.6699-17.9199Q58.9844-15.2344 55.4932-14.8682Q52.002-14.502 48.1445-15.8691Q44.2871-17.2363 40.5029-19.8242Q36.7188-22.4121 33.5449-25.6836Z"/>
  </g>
 </g>
</svg>
