<svg width="201" height="202" viewBox="0 0 201 202" fill="none" xmlns="http://www.w3.org/2000/svg">
<path d="M70.3465 130.275V136.155C70.3465 148.192 75.111 159.735 83.5919 168.247C92.0728 176.758 103.575 181.54 115.569 181.54C127.563 181.54 139.066 176.758 147.546 168.247C156.027 159.735 160.792 148.192 160.792 136.155V119.312C154.084 116.933 148.43 112.25 144.83 106.092C141.229 99.9335 139.914 92.6961 141.117 85.6587C142.32 78.6214 145.963 72.2374 151.402 67.6351C156.841 63.0327 163.727 60.5085 170.841 60.5085C177.956 60.5085 184.841 63.0327 190.281 67.6351C195.72 72.2374 199.363 78.6214 200.566 85.6587C201.769 92.6961 200.454 99.9335 196.853 106.092C193.253 112.25 187.599 116.933 180.891 119.312V136.155C180.891 153.541 174.009 170.216 161.759 182.51C149.508 194.804 132.894 201.711 115.569 201.711C98.2448 201.711 81.63 194.804 69.3798 182.51C57.1296 170.216 50.2475 153.541 50.2475 136.155V130.275C36.1975 127.887 23.4436 120.585 14.2462 109.662C5.04872 98.7384 0.00182779 84.8999 0 70.5989V20.1714C0 14.8217 2.11757 9.69109 5.88686 5.90829C9.65615 2.12549 14.7684 0.000335693 20.099 0.000335693H30.1485C32.8138 0.000335693 35.3699 1.06291 37.2545 2.95431C39.1392 4.84571 40.198 7.41101 40.198 10.0858C40.198 12.7607 39.1392 15.326 37.2545 17.2174C35.3699 19.1088 32.8138 20.1714 30.1485 20.1714H20.099V70.5989C20.099 81.2983 24.3341 91.5595 31.8727 99.1251C39.4113 106.691 49.6358 110.941 60.297 110.941C70.9581 110.941 81.1826 106.691 88.7212 99.1251C96.2598 91.5595 100.495 81.2983 100.495 70.5989V20.1714H90.4454C87.7802 20.1714 85.224 19.1088 83.3394 17.2174C81.4547 15.326 80.396 12.7607 80.396 10.0858C80.396 7.41101 81.4547 4.84571 83.3394 2.95431C85.224 1.06291 87.7802 0.000335693 90.4454 0.000335693H100.495C105.826 0.000335693 110.938 2.12549 114.707 5.90829C118.476 9.69109 120.594 14.8217 120.594 20.1714V70.5989C120.592 84.8999 115.545 98.7384 106.348 109.662C97.1503 120.585 84.3964 127.887 70.3465 130.275ZM170.841 100.855C173.507 100.855 176.063 99.7929 177.947 97.9015C179.832 96.0101 180.891 93.4448 180.891 90.77C180.891 88.0951 179.832 85.5298 177.947 83.6384C176.063 81.747 173.507 80.6844 170.841 80.6844C168.176 80.6844 165.62 81.747 163.735 83.6384C161.851 85.5298 160.792 88.0951 160.792 90.77C160.792 93.4448 161.851 96.0101 163.735 97.9015C165.62 99.7929 168.176 100.855 170.841 100.855Z" fill="#C94557"/>
</svg>
