<svg width="233" height="234" viewBox="0 0 233 234" fill="none" xmlns="http://www.w3.org/2000/svg">
<path d="M81.375 150.698V157.5C81.375 171.424 86.8865 184.777 96.697 194.623C106.507 204.469 119.813 210 133.688 210C147.562 210 160.868 204.469 170.678 194.623C180.489 184.777 186 171.424 186 157.5V138.017C178.24 135.264 171.7 129.848 167.535 122.724C163.37 115.6 161.849 107.228 163.24 99.0875C164.632 90.9469 168.846 83.562 175.138 78.2381C181.43 72.9143 189.395 69.9943 197.625 69.9943C205.855 69.9943 213.82 72.9143 220.112 78.2381C226.404 83.562 230.618 90.9469 232.01 99.0875C233.401 107.228 231.88 115.6 227.715 122.724C223.55 129.848 217.01 135.264 209.25 138.017V157.5C209.25 177.612 201.289 196.901 187.118 211.122C172.948 225.344 153.728 233.333 133.688 233.333C113.647 233.333 94.4275 225.344 80.2567 211.122C66.086 196.901 58.125 177.612 58.125 157.5V150.698C41.8724 147.937 27.119 139.489 16.4796 126.853C5.84024 114.218 0.00211434 98.2097 0 81.6667V23.3333C0 17.145 2.44955 11.21 6.80977 6.83417C11.17 2.45833 17.0837 0 23.25 0H34.875C37.9581 0 40.915 1.22916 43.0951 3.41709C45.2752 5.60501 46.5 8.57248 46.5 11.6667C46.5 14.7609 45.2752 17.7283 43.0951 19.9162C40.915 22.1042 37.9581 23.3333 34.875 23.3333H23.25V81.6667C23.25 94.0434 28.1491 105.913 36.8695 114.665C45.59 123.417 57.4174 128.333 69.75 128.333C82.0826 128.333 93.91 123.417 102.63 114.665C111.351 105.913 116.25 94.0434 116.25 81.6667V23.3333H104.625C101.542 23.3333 98.585 22.1042 96.4049 19.9162C94.2248 17.7283 93 14.7609 93 11.6667C93 8.57248 94.2248 5.60501 96.4049 3.41709C98.585 1.22916 101.542 0 104.625 0H116.25C122.416 0 128.33 2.45833 132.69 6.83417C137.05 11.21 139.5 17.145 139.5 23.3333V81.6667C139.498 98.2097 133.66 114.218 123.02 126.853C112.381 139.489 97.6276 147.937 81.375 150.698ZM197.625 116.667C200.708 116.667 203.665 115.438 205.845 113.25C208.025 111.062 209.25 108.094 209.25 105C209.25 101.906 208.025 98.9384 205.845 96.7504C203.665 94.5625 200.708 93.3333 197.625 93.3333C194.542 93.3333 191.585 94.5625 189.405 96.7504C187.225 98.9384 186 101.906 186 105C186 108.094 187.225 111.062 189.405 113.25C191.585 115.438 194.542 116.667 197.625 116.667Z" fill="url(#paint0_linear_1578_1358)"/>
<defs>
<linearGradient id="paint0_linear_1578_1358" x1="228.738" y1="24.6905" x2="33.9356" y2="197.579" gradientUnits="userSpaceOnUse">
<stop stop-color="#C0263B"/>
<stop offset="0.398958" stop-color="#CB4A5B"/>
<stop offset="1" stop-color="#DE6878"/>
</linearGradient>
</defs>
</svg>
