<svg width="28" height="20" viewBox="0 0 28 20" fill="none" xmlns="http://www.w3.org/2000/svg">
<path d="M14.9987 6.66732H14.1654V5.00065C14.1654 2.70065 12.2987 0.833984 9.9987 0.833984C7.6987 0.833984 5.83203 2.70065 5.83203 5.00065V6.66732H4.9987C4.08203 6.66732 3.33203 7.41732 3.33203 8.33398V16.6673C3.33203 17.584 4.08203 18.334 4.9987 18.334H14.9987C15.9154 18.334 16.6654 17.584 16.6654 16.6673V8.33398C16.6654 7.41732 15.9154 6.66732 14.9987 6.66732ZM9.9987 14.1673C9.08203 14.1673 8.33203 13.4173 8.33203 12.5006C8.33203 11.584 9.08203 10.834 9.9987 10.834C10.9154 10.834 11.6654 11.584 11.6654 12.5006C11.6654 13.4173 10.9154 14.1673 9.9987 14.1673ZM12.582 6.66732H7.41536V5.00065C7.41536 3.57565 8.5737 2.41732 9.9987 2.41732C11.4237 2.41732 12.582 3.57565 12.582 5.00065V6.66732Z" fill="#49ABDF"/>
</svg>
