<svg width="28" height="20" viewBox="0 0 28 20" fill="none" xmlns="http://www.w3.org/2000/svg">
<path d="M17.5 16.666V4.99935C17.5 4.08018 16.7525 3.33268 15.8333 3.33268H14.1667V1.66602H12.5V3.33268H7.5V1.66602H5.83333V3.33268H4.16667C3.2475 3.33268 2.5 4.08018 2.5 4.99935V16.666C2.5 17.5852 3.2475 18.3327 4.16667 18.3327H15.8333C16.7525 18.3327 17.5 17.5852 17.5 16.666ZM7.5 14.9993H5.83333V13.3327H7.5V14.9993ZM7.5 11.666H5.83333V9.99935H7.5V11.666ZM10.8333 14.9993H9.16667V13.3327H10.8333V14.9993ZM10.8333 11.666H9.16667V9.99935H10.8333V11.666ZM14.1667 14.9993H12.5V13.3327H14.1667V14.9993ZM14.1667 11.666H12.5V9.99935H14.1667V11.666ZM15.8333 7.49935H4.16667V5.83268H15.8333V7.49935Z" fill="#A3A1A1"/>
</svg>
