<svg width="27" height="20" viewBox="0 0 27 20" fill="none" xmlns="http://www.w3.org/2000/svg">
<path d="M7.83366 5.33333C8.75413 5.33333 9.50033 4.58714 9.50033 3.66667C9.50033 2.74619 8.75413 2 7.83366 2C6.91318 2 6.16699 2.74619 6.16699 3.66667C6.16699 4.58714 6.91318 5.33333 7.83366 5.33333Z" fill="#C84456"/>
<path d="M13.6667 11.1664V9.49969C12.3833 9.51636 11.0917 8.87469 10.275 7.97469L9.2 6.78302C9.05833 6.62469 8.88333 6.49969 8.69167 6.40802C8.68333 6.40802 8.68333 6.39969 8.675 6.39969H8.66667C8.375 6.23302 8.04167 6.14969 7.675 6.18302C6.8 6.25802 6.16667 7.03302 6.16667 7.90802V12.833C6.16667 13.7497 6.91667 14.4997 7.83333 14.4997H12V18.6664H13.6667V14.083C13.6667 13.1664 12.9167 12.4164 12 12.4164H9.5V9.54136C10.575 10.433 12.2083 11.158 13.6667 11.1664ZM8.525 15.333C8.18333 16.2997 7.25833 16.9997 6.16667 16.9997C4.78333 16.9997 3.66667 15.883 3.66667 14.4997C3.66667 13.408 4.36667 12.4914 5.33333 12.1414V10.4164C3.43333 10.7997 2 12.483 2 14.4997C2 16.7997 3.86667 18.6664 6.16667 18.6664C8.18333 18.6664 9.86667 17.233 10.25 15.333H8.525Z" fill="#C84456"/>
</svg>
