<svg width="1020" height="1023" viewBox="0 0 1020 1023" fill="none" xmlns="http://www.w3.org/2000/svg">
<path fill-rule="evenodd" clip-rule="evenodd" d="M773.465 0C728.82 23.3767 680.99 52.2463 636.978 86.5764C568.381 140.084 508.289 207.455 484.731 288.698C461.035 370.418 474.714 464.712 550.793 570.75C587.768 622.286 606.425 666.732 611.444 704.976C616.437 743.021 608 775.361 589.928 803.147C553.396 859.316 476.853 897.804 388.765 923.818C301.111 949.705 203.955 962.698 128.533 969.203C90.8608 972.453 58.6918 974.077 35.9521 974.889C24.5836 975.295 15.5756 975.498 9.41917 975.599C6.34106 975.649 3.9761 975.675 2.38569 975.687C1.5905 975.693 0.988978 975.697 0.588795 975.698C0.39283 975.699 0.245149 975.699 0.146655 975.7H0.1405L0.031415 975.7H0.00595368C0.00134973 975.7 0 975.7 0 983.747C0 991.794 0.00518872 991.794 0.0136317 991.794L0.0468063 991.794L0.171425 991.794C0.280282 991.794 0.440535 991.794 0.651224 991.793C1.0726 991.791 1.69573 991.788 2.51293 991.781C4.1473 991.768 6.55806 991.743 9.68369 991.691C15.9348 991.589 25.0464 991.383 36.5264 990.974C59.4837 990.154 91.9272 988.515 129.917 985.238C205.819 978.691 304.185 965.578 393.323 939.254C482.028 913.057 563.547 873.229 603.42 811.922C623.551 780.971 632.901 744.785 627.402 702.881C621.929 661.177 601.814 614.254 563.87 561.368C490.11 458.562 478.114 369.308 500.189 293.18C522.402 216.576 579.528 151.801 646.877 99.267C699.346 58.3407 757.553 25.2071 809.112 0H773.465ZM1010.23 0C993.793 6.2796 973.206 14.562 950.001 24.8023C891.064 50.8099 815.181 89.4685 747.503 140.05C679.848 190.615 620.232 253.212 594.076 327.147C567.88 401.196 575.333 486.372 641.337 581.781C674.09 629.126 688.774 671.341 689.567 708.961C690.358 746.555 677.28 779.73 654.191 809.028C607.935 867.72 521.588 910.743 426.679 941.989C331.841 973.211 228.762 992.577 149.366 1004.14C109.673 1009.92 75.9127 1013.74 52.0772 1016.13C40.1597 1017.32 30.724 1018.15 24.2694 1018.68C21.0422 1018.94 18.5602 1019.14 16.886 1019.26C16.0489 1019.32 15.4137 1019.37 14.9883 1019.4L14.8401 1019.41L14.5524 1019.43L14.5085 1019.43L14.3883 1019.44L14.3586 1019.44C14.3521 1019.44 14.3491 1019.44 14.4572 1021.05C14.5654 1022.66 14.5691 1022.66 14.5763 1022.65L14.6075 1022.65L14.7304 1022.64C14.8392 1022.64 15.0013 1022.63 15.216 1022.61C15.6453 1022.58 16.2844 1022.53 17.1255 1022.47C18.8076 1022.35 21.2979 1022.15 24.5337 1021.89C31.0054 1021.35 40.4597 1020.52 52.3973 1019.33C76.2719 1016.94 110.081 1013.11 149.83 1007.32C229.314 995.75 332.598 976.35 427.685 945.046C522.701 913.765 609.842 870.502 656.719 811.02C680.195 781.231 693.595 747.346 692.785 708.893C691.976 670.466 676.98 627.646 643.984 579.95C578.492 485.28 571.302 401.175 597.111 328.221C622.96 255.154 681.996 193.028 749.43 142.629C816.84 92.2471 892.483 53.7023 951.3 27.7472C978.367 15.8031 1001.86 6.52981 1019.33 0H1010.23Z" fill="url(#paint0_linear_20:89)"/>
<defs>
<linearGradient id="paint0_linear_20:89" x1="1002.79" y1="108.213" x2="148.979" y2="866.183" gradientUnits="userSpaceOnUse">
<stop offset="0.284033" stop-color="#315A95"/>
<stop offset="1" stop-color="#7EB9DA"/>
</linearGradient>
</defs>
</svg>
