<svg width="250" height="250" viewBox="0 0 250 250" fill="none" xmlns="http://www.w3.org/2000/svg">
<path d="M132.345 117.644C140.145 117.644 147.626 120.743 153.141 126.259C158.657 131.774 161.755 139.255 161.755 147.055V169.114C161.755 199.319 131.051 220.583 80.8777 220.583C30.7041 220.583 0 199.319 0 169.114V147.055C0 139.255 3.09855 131.774 8.61401 126.259C14.1295 120.743 21.61 117.644 29.4101 117.644H132.345ZM29.4101 132.35C25.51 132.35 21.7698 133.899 19.012 136.657C16.2543 139.415 14.705 143.155 14.705 147.055V169.114C14.705 189.804 37.9243 205.878 80.8777 205.878C123.831 205.878 147.05 189.804 147.05 169.114V147.055C147.05 143.155 145.501 139.415 142.743 136.657C139.986 133.899 136.245 132.35 132.345 132.35H29.4101Z" fill="#325995"/>
<path d="M193.547 188.821L192.43 188.453C193.085 188.278 193.737 188.092 194.386 187.894C194.111 188.207 193.831 188.516 193.547 188.821V188.821Z" fill="#325995"/>
<path d="M189.744 130.85L189.2 132.335H173.936C172.012 126.911 169.044 121.915 165.201 117.63H195.346L189.744 130.865V130.85Z" fill="#325995"/>
<path d="M80.8797 0C87.6385 -1.00718e-07 94.3312 1.33129 100.576 3.91787C106.82 6.50445 112.494 10.2957 117.273 15.075C122.052 19.8544 125.843 25.5284 128.43 31.7729C131.016 38.0175 132.347 44.7103 132.347 51.4694C132.347 58.2285 131.016 64.9213 128.43 71.1659C125.843 77.4105 122.052 83.0844 117.273 87.8638C112.494 92.6431 106.82 96.4344 100.576 99.0209C94.3312 101.608 87.6385 102.939 80.8797 102.939C67.2297 102.939 54.1387 97.5162 44.4866 87.8638C34.8346 78.2114 29.4121 65.1199 29.4121 51.4694C29.4121 37.8189 34.8346 24.7274 44.4866 15.075C54.1387 5.42265 67.2297 2.03409e-07 80.8797 0V0ZM80.8797 14.7055C71.1297 14.7055 61.779 18.5789 54.8847 25.4734C47.9903 32.368 44.1171 41.719 44.1171 51.4694C44.1171 61.2198 47.9903 70.5708 54.8847 77.4654C61.779 84.3599 71.1297 88.2333 80.8797 88.2333C90.6298 88.2333 99.9805 84.3599 106.875 77.4654C113.769 70.5708 117.642 61.2198 117.642 51.4694C117.642 41.719 113.769 32.368 106.875 25.4734C99.9805 18.5789 90.6298 14.7055 80.8797 14.7055Z" fill="#325995"/>
<path d="M183.813 29.4111C193.563 29.4111 202.914 33.2845 209.808 40.179C216.703 47.0736 220.576 56.4246 220.576 66.175C220.576 75.9254 216.703 85.2764 209.808 92.171C202.914 99.0655 193.563 102.939 183.813 102.939C174.063 102.939 164.713 99.0655 157.818 92.171C150.924 85.2764 147.051 75.9254 147.051 66.175C147.051 56.4246 150.924 47.0736 157.818 40.179C164.713 33.2845 174.063 29.4111 183.813 29.4111ZM183.813 44.1167C177.963 44.1167 172.353 46.4407 168.216 50.5774C164.08 54.7141 161.756 60.3248 161.756 66.175C161.756 72.0252 164.08 77.6358 168.216 81.7726C172.353 85.9093 177.963 88.2333 183.813 88.2333C189.663 88.2333 195.274 85.9093 199.41 81.7726C203.547 77.6358 205.871 72.0252 205.871 66.175C205.871 60.3248 203.547 54.7141 199.41 50.5774C195.274 46.4407 189.663 44.1167 183.813 44.1167Z" fill="#325995"/>
<path d="M203.455 136.248L209.322 122.41C212.072 115.91 218.66 112.381 225.13 113.734L226.512 114.087L233.865 116.44C241.158 118.778 246.732 125.013 248.54 132.851C252.819 151.483 247.687 174.174 233.115 200.908C218.571 227.613 202.646 243.657 185.309 249.069C178.574 251.172 171.339 249.657 165.898 245.084L164.472 243.76L158.884 238.157C156.536 235.74 155.02 232.639 154.554 229.301C154.089 225.964 154.699 222.566 156.296 219.599L157.119 218.246L165.53 205.893C167.06 203.561 169.253 201.742 171.827 200.67C174.402 199.598 177.238 199.322 179.971 199.879L181.441 200.276L196.984 205.467C203.175 200.761 208.351 194.879 212.484 187.747C216.027 181.644 218.366 175.468 219.439 169.203L219.88 166.056L206.954 153.777C204.868 151.744 203.385 149.173 202.669 146.35C201.952 143.526 202.031 140.559 202.896 137.777L203.44 136.248H203.455Z" fill="#325995"/>
</svg>
