<svg width="28" height="22" viewBox="0 0 28 22" fill="none" xmlns="http://www.w3.org/2000/svg">
<path d="M18.0913 5.31432C17.2837 4.4357 16.1844 3.89166 15.0348 3.80179C13.8851 3.71192 12.7793 4.08357 11.9604 4.83505L4.14049 12.0169C3.32178 12.7688 2.8573 13.8391 2.84923 14.9924C2.84116 16.1456 3.29016 17.2873 4.09744 18.1663C4.90473 19.0453 6.00419 19.5896 7.15394 19.6795C8.30369 19.7694 9.40956 19.3975 10.2283 18.6456L18.0482 11.4637C18.864 10.7102 19.3266 9.64046 19.3347 8.48831C19.3429 7.33616 18.8961 6.19526 18.0918 5.31495L18.0913 5.31432ZM13.8115 14.0241L9.04956 8.8391L12.6234 5.55689C13.2639 4.9686 14.1291 4.67762 15.0287 4.74794C15.9283 4.81826 16.7885 5.24413 17.4201 5.93187C18.0517 6.61961 18.403 7.51287 18.3967 8.41515C18.3904 9.31743 18.027 10.1548 17.3864 10.7431L13.8115 14.0241Z" fill="#A3A1A1"/>
</svg>
