<svg width="1488" height="903" viewBox="0 0 1488 903" fill="none" xmlns="http://www.w3.org/2000/svg">
<path d="M1382.09 868.687H1379.15V498.409L1457.81 391.06V190.457H1460.75V392.031L1382.09 499.38V868.687Z" fill="url(#paint0_linear_1562:677)"/>
<path d="M1459.28 192.047C1457.6 192.047 1455.96 191.549 1454.57 190.618C1453.18 189.687 1452.09 188.363 1451.45 186.815C1450.81 185.266 1450.64 183.562 1450.97 181.918C1451.29 180.274 1452.1 178.764 1453.29 177.579C1454.47 176.394 1455.98 175.587 1457.63 175.26C1459.27 174.933 1460.97 175.1 1462.52 175.742C1464.07 176.383 1465.4 177.469 1466.33 178.863C1467.26 180.257 1467.75 181.895 1467.75 183.572C1467.75 185.819 1466.86 187.975 1465.27 189.564C1463.68 191.154 1461.53 192.047 1459.28 192.047V192.047ZM1459.28 178.069C1458.18 178.069 1457.11 178.394 1456.2 179.003C1455.29 179.612 1454.58 180.478 1454.17 181.491C1453.75 182.503 1453.64 183.617 1453.86 184.691C1454.07 185.765 1454.6 186.751 1455.38 187.523C1456.15 188.296 1457.14 188.82 1458.22 189.031C1459.29 189.241 1460.41 189.127 1461.42 188.704C1462.43 188.28 1463.29 187.567 1463.89 186.653C1464.5 185.739 1464.82 184.667 1464.81 183.572C1464.77 182.133 1464.17 180.766 1463.14 179.765C1462.1 178.764 1460.72 178.208 1459.28 178.216V178.069Z" fill="#EBEBEB"/>
<path d="M1402.37 868.687H1399.43V511.387L1478.08 404.037V263.995H1481.03V404.979L1402.37 512.358V868.687Z" fill="url(#paint1_linear_1562:677)"/>
<path d="M1479.56 265.613C1477.88 265.619 1476.24 265.127 1474.84 264.199C1473.44 263.271 1472.35 261.95 1471.7 260.402C1471.06 258.854 1470.89 257.149 1471.21 255.503C1471.53 253.857 1472.34 252.344 1473.52 251.156C1474.71 249.968 1476.22 249.158 1477.86 248.828C1479.51 248.499 1481.21 248.665 1482.76 249.305C1484.31 249.946 1485.64 251.032 1486.57 252.426C1487.5 253.821 1488 255.461 1488 257.138C1488 259.381 1487.11 261.532 1485.53 263.12C1483.95 264.709 1481.8 265.605 1479.56 265.613V265.613ZM1479.56 251.606C1478.46 251.6 1477.39 251.919 1476.47 252.524C1475.56 253.128 1474.85 253.99 1474.42 255C1474 256.011 1473.89 257.124 1474.1 258.199C1474.31 259.274 1474.83 260.263 1475.6 261.039C1476.38 261.816 1477.36 262.346 1478.44 262.562C1479.51 262.778 1480.62 262.67 1481.64 262.252C1482.65 261.834 1483.51 261.125 1484.12 260.215C1484.73 259.304 1485.06 258.233 1485.06 257.138C1485.06 255.676 1484.48 254.273 1483.45 253.236C1482.42 252.2 1481.02 251.614 1479.56 251.606V251.606Z" fill="#EBEBEB"/>
<path d="M1362.58 378.995H1359.64V868.687H1362.58V378.995Z" fill="url(#paint2_linear_1562:677)"/>
<path d="M1361.11 380.466C1359.44 380.472 1357.79 379.98 1356.4 379.052C1355 378.125 1353.91 376.803 1353.26 375.255C1352.62 373.707 1352.44 372.002 1352.77 370.356C1353.09 368.71 1353.9 367.197 1355.08 366.009C1356.27 364.821 1357.78 364.011 1359.42 363.682C1361.06 363.352 1362.77 363.518 1364.32 364.159C1365.87 364.799 1367.2 365.886 1368.13 367.28C1369.06 368.674 1369.56 370.314 1369.56 371.992C1369.56 374.234 1368.67 376.385 1367.09 377.974C1365.5 379.562 1363.36 380.459 1361.11 380.466V380.466ZM1361.11 366.489C1360.02 366.483 1358.94 366.803 1358.03 367.409C1357.11 368.014 1356.4 368.878 1355.98 369.89C1355.56 370.902 1355.44 372.017 1355.66 373.093C1355.87 374.169 1356.4 375.157 1357.17 375.933C1357.95 376.708 1358.94 377.236 1360.01 377.448C1361.09 377.661 1362.2 377.549 1363.21 377.126C1364.23 376.704 1365.09 375.99 1365.7 375.076C1366.3 374.162 1366.62 373.088 1366.62 371.992C1366.59 370.545 1366 369.164 1364.98 368.147C1363.95 367.129 1362.56 366.555 1361.11 366.548V366.489Z" fill="#EBEBEB"/>
<path d="M1343.78 868.687H1340.84V620.178L1287.46 519.45V338.504H1290.4V518.714L1343.78 619.442V868.687Z" fill="url(#paint3_linear_1562:677)"/>
<path d="M1288.9 340.063C1287.22 340.063 1285.59 339.566 1284.19 338.635C1282.8 337.704 1281.71 336.38 1281.07 334.831C1280.43 333.283 1280.26 331.579 1280.59 329.935C1280.92 328.291 1281.72 326.781 1282.91 325.596C1284.09 324.41 1285.6 323.603 1287.25 323.276C1288.89 322.949 1290.6 323.117 1292.14 323.758C1293.69 324.4 1295.02 325.486 1295.95 326.88C1296.88 328.274 1297.38 329.912 1297.38 331.588C1297.38 333.836 1296.48 335.992 1294.89 337.581C1293.3 339.17 1291.15 340.063 1288.9 340.063V340.063ZM1288.9 326.085C1287.81 326.085 1286.73 326.411 1285.82 327.02C1284.91 327.629 1284.2 328.495 1283.79 329.507C1283.37 330.52 1283.26 331.634 1283.48 332.708C1283.69 333.782 1284.22 334.767 1285 335.54C1285.78 336.312 1286.76 336.837 1287.84 337.047C1288.91 337.257 1290.03 337.144 1291.04 336.72C1292.05 336.297 1292.91 335.583 1293.51 334.67C1294.12 333.756 1294.44 332.684 1294.43 331.588C1294.44 330.856 1294.31 330.128 1294.04 329.448C1293.76 328.769 1293.36 328.15 1292.84 327.629C1292.33 327.109 1291.71 326.696 1291.04 326.416C1290.36 326.135 1289.63 325.993 1288.9 325.997V326.085Z" fill="#EBEBEB"/>
<path d="M1325.09 868.688H1322.15V630.948L1259.21 519.597V400.271H1262.15V518.832L1325.09 630.183V868.688Z" fill="url(#paint4_linear_1562:677)"/>
<path d="M1260.68 401.859C1259 401.865 1257.36 401.372 1255.96 400.443C1254.56 399.514 1253.47 398.191 1252.83 396.641C1252.18 395.091 1252.01 393.385 1252.34 391.738C1252.66 390.091 1253.47 388.578 1254.66 387.391C1255.85 386.204 1257.36 385.397 1259 385.071C1260.65 384.745 1262.36 384.915 1263.91 385.56C1265.46 386.205 1266.78 387.296 1267.71 388.694C1268.64 390.092 1269.13 391.735 1269.13 393.413C1269.12 395.651 1268.23 397.795 1266.64 399.377C1265.06 400.959 1262.92 401.851 1260.68 401.859V401.859ZM1260.68 387.881C1259.58 387.875 1258.51 388.195 1257.6 388.799C1256.68 389.404 1255.97 390.266 1255.55 391.276C1255.12 392.286 1255.01 393.4 1255.22 394.475C1255.43 395.55 1255.96 396.538 1256.73 397.315C1257.5 398.091 1258.49 398.621 1259.56 398.837C1260.63 399.053 1261.75 398.945 1262.76 398.527C1263.77 398.11 1264.64 397.4 1265.25 396.49C1265.86 395.58 1266.18 394.509 1266.18 393.413C1266.2 392.68 1266.07 391.95 1265.8 391.267C1265.53 390.584 1265.13 389.962 1264.62 389.436C1264.1 388.91 1263.49 388.491 1262.82 388.204C1262.14 387.917 1261.41 387.767 1260.68 387.764V387.881Z" fill="#EBEBEB"/>
<path d="M108.819 902.5H105.877V675.313L27.2188 567.964V454.671H30.1614V566.993L108.819 674.342V902.5Z" fill="url(#paint5_linear_1562:677)"/>
<path d="M28.6919 456.259C27.0144 456.265 25.373 455.773 23.9754 454.845C22.5779 453.918 21.4871 452.596 20.8411 451.048C20.1951 449.5 20.0231 447.795 20.3468 446.149C20.6705 444.503 21.4753 442.99 22.6593 441.802C23.8434 440.614 25.3534 439.804 26.9982 439.475C28.643 439.145 30.3485 439.311 31.8988 439.952C33.4491 440.592 34.7745 441.679 35.707 443.073C36.6395 444.467 37.1373 446.107 37.1373 447.784C37.1374 450.027 36.2485 452.178 34.6655 453.767C33.0825 455.355 30.9344 456.252 28.6919 456.259V456.259ZM28.6919 442.282C27.5952 442.276 26.5216 442.596 25.6073 443.202C24.693 443.807 23.9794 444.671 23.557 445.683C23.1346 446.695 23.0226 447.81 23.2351 448.886C23.4477 449.962 23.9751 450.95 24.7506 451.726C25.5261 452.501 26.5145 453.029 27.5904 453.241C28.6663 453.454 29.7811 453.342 30.7932 452.919C31.8052 452.497 32.6689 451.783 33.2746 450.869C33.8802 449.955 34.2005 448.881 34.1947 447.784C34.149 446.353 33.55 444.995 32.5238 443.996C31.4975 442.998 30.1239 442.436 28.6919 442.429V442.282Z" fill="#EBEBEB"/>
<path d="M88.5459 902.755H85.6032V688.29L6.94531 580.911V528.208H9.888V579.97L88.5459 687.319V902.755Z" fill="url(#paint6_linear_1562:677)"/>
<path d="M8.47493 529.827C6.79875 529.827 5.16021 529.33 3.76652 528.399C2.37282 527.467 1.28656 526.144 0.645116 524.595C0.0036687 523.047 -0.164159 521.342 0.162848 519.699C0.489855 518.055 1.29701 516.544 2.48225 515.359C3.66749 514.174 5.17758 513.367 6.82156 513.04C8.46553 512.713 10.1696 512.881 11.7181 513.522C13.2667 514.164 14.5903 515.25 15.5216 516.643C16.4528 518.037 16.9499 519.676 16.9499 521.352C16.9499 523.6 16.057 525.755 14.4676 527.345C12.8783 528.934 10.7226 529.827 8.47493 529.827ZM8.47493 515.82C7.38076 515.82 6.31115 516.144 5.40138 516.752C4.49161 517.36 3.78253 518.224 3.36381 519.235C2.94508 520.246 2.83553 521.358 3.04899 522.431C3.26245 523.504 3.78934 524.49 4.56304 525.264C5.33674 526.038 6.32249 526.564 7.39564 526.778C8.46879 526.991 9.58114 526.882 10.592 526.463C11.6029 526.044 12.4669 525.335 13.0748 524.425C13.6827 523.516 14.0072 522.446 14.0072 521.352C14.0072 519.885 13.4243 518.478 12.3868 517.44C11.3493 516.403 9.94217 515.82 8.47493 515.82V515.82Z" fill="#EBEBEB"/>
<path d="M128.333 554.929H125.391V885.122H128.333V554.929Z" fill="url(#paint7_linear_1562:677)"/>
<path d="M126.862 556.399C125.185 556.399 123.547 555.902 122.153 554.971C120.76 554.04 119.673 552.716 119.032 551.167C118.39 549.619 118.223 547.915 118.55 546.271C118.877 544.627 119.684 543.117 120.869 541.931C122.054 540.746 123.564 539.939 125.208 539.612C126.852 539.285 128.556 539.453 130.105 540.094C131.653 540.736 132.977 541.822 133.908 543.216C134.84 544.609 135.337 546.248 135.337 547.924C135.337 550.172 134.444 552.327 132.854 553.917C131.265 555.506 129.109 556.399 126.862 556.399V556.399ZM126.862 542.421C125.766 542.421 124.695 542.747 123.785 543.356C122.875 543.965 122.166 544.831 121.748 545.843C121.33 546.856 121.222 547.97 121.438 549.044C121.654 550.118 122.184 551.103 122.96 551.876C123.737 552.648 124.725 553.173 125.801 553.383C126.876 553.593 127.989 553.479 128.999 553.056C130.01 552.633 130.872 551.919 131.476 551.006C132.08 550.092 132.4 549.02 132.394 547.924C132.378 546.47 131.788 545.081 130.751 544.061C129.714 543.041 128.316 542.472 126.862 542.48V542.421Z" fill="#EBEBEB"/>
<path d="M147.138 868.059H144.195V707.094L144.342 706.77L197.576 606.366V426.156H200.518V607.102L200.371 607.426L147.138 707.83V868.059Z" fill="url(#paint8_linear_1562:677)"/>
<path d="M199.045 427.716C197.369 427.716 195.731 427.219 194.337 426.288C192.943 425.357 191.857 424.033 191.215 422.485C190.574 420.936 190.406 419.232 190.733 417.588C191.06 415.944 191.867 414.434 193.053 413.249C194.238 412.064 195.748 411.256 197.392 410.929C199.036 410.602 200.74 410.77 202.288 411.412C203.837 412.053 205.161 413.139 206.092 414.533C207.023 415.927 207.52 417.565 207.52 419.242C207.52 421.489 206.627 423.645 205.038 425.234C203.449 426.824 201.293 427.716 199.045 427.716V427.716ZM199.045 413.739C197.95 413.739 196.879 414.064 195.969 414.673C195.058 415.282 194.349 416.148 193.931 417.161C193.514 418.173 193.406 419.287 193.622 420.361C193.837 421.435 194.367 422.421 195.144 423.193C195.921 423.966 196.909 424.49 197.984 424.7C199.059 424.911 200.172 424.797 201.183 424.374C202.193 423.95 203.055 423.237 203.659 422.323C204.264 421.409 204.583 420.337 204.577 419.242C204.589 418.509 204.455 417.782 204.181 417.102C203.908 416.422 203.502 415.804 202.987 415.283C202.472 414.762 201.858 414.349 201.181 414.069C200.504 413.789 199.778 413.646 199.045 413.65V413.739Z" fill="#EBEBEB"/>
<path d="M165.822 868.059H162.879V717.835L163.055 717.482L225.823 606.484V487.923H228.766V607.249L228.56 607.572L165.822 718.6V868.059Z" fill="url(#paint9_linear_1562:677)"/>
<path d="M227.293 489.512C225.615 489.518 223.972 489.025 222.574 488.096C221.176 487.167 220.085 485.844 219.44 484.294C218.795 482.744 218.624 481.038 218.95 479.391C219.277 477.745 220.084 476.232 221.271 475.045C222.458 473.858 223.971 473.05 225.618 472.724C227.265 472.398 228.971 472.568 230.521 473.213C232.071 473.858 233.394 474.949 234.323 476.347C235.252 477.746 235.745 479.388 235.739 481.067C235.731 483.304 234.839 485.448 233.257 487.03C231.675 488.612 229.531 489.505 227.293 489.512V489.512ZM227.293 475.535C226.198 475.529 225.125 475.848 224.212 476.453C223.298 477.057 222.585 477.919 222.161 478.929C221.738 479.94 221.624 481.053 221.834 482.128C222.045 483.203 222.569 484.192 223.342 484.968C224.114 485.745 225.1 486.275 226.174 486.49C227.248 486.706 228.362 486.599 229.374 486.181C230.387 485.763 231.253 485.054 231.862 484.143C232.471 483.233 232.796 482.162 232.796 481.067C232.812 480.333 232.681 479.603 232.412 478.92C232.143 478.237 231.74 477.615 231.228 477.089C230.716 476.563 230.105 476.145 229.429 475.857C228.753 475.57 228.027 475.421 227.293 475.417V475.535Z" fill="#EBEBEB"/>
<path d="M1276.35 121.739L1296.95 88.6336L1286.83 82.3657C1285.35 81.4492 1284.17 80.1339 1283.41 78.5718C1282.65 77.0098 1282.34 75.2646 1282.53 73.5377C1282.69 71.5759 1282.75 69.6141 1282.71 67.6523C1282.66 65.9443 1283.08 64.2553 1283.93 62.7742C1284.78 61.2931 1286.03 60.0783 1287.53 59.2656L1298.04 53.6157L1279.3 19.4806L1268.79 25.1305C1267.27 25.9276 1265.57 26.2891 1263.86 26.1748C1262.15 26.0605 1260.5 25.4749 1259.11 24.4831C1257.52 23.3943 1255.87 22.3644 1254.16 21.5404C1252.65 20.7358 1251.39 19.5244 1250.53 18.0427C1249.67 16.561 1249.23 14.8679 1249.28 13.1538L1249.66 1.20651L1210.73 0L1210.35 11.9767C1210.28 13.6908 1209.74 15.353 1208.79 16.777C1207.83 18.201 1206.5 19.3308 1204.93 20.0397C1204.05 20.4517 1203.2 20.8636 1202.37 21.3345C1201.55 21.8053 1200.7 22.2467 1199.87 22.7469C1198.42 23.6424 1196.74 24.1164 1195.03 24.1164C1193.32 24.1164 1191.65 23.6424 1190.19 22.7469L1179.98 16.4202L1159.38 49.5254L1169.53 55.8521C1171.01 56.7661 1172.2 58.0809 1172.96 59.6436C1173.72 61.2064 1174.02 62.9529 1173.83 64.6802C1173.66 66.6374 1173.61 68.602 1173.65 70.5655C1173.7 72.2797 1173.27 73.9729 1172.41 75.4582C1171.55 76.9434 1170.3 78.1629 1168.8 78.9816L1158.47 84.2196L1176.89 118.561L1187.4 112.94C1188.91 112.139 1190.61 111.772 1192.32 111.882C1194.03 111.991 1195.68 112.571 1197.08 113.558C1198.67 114.628 1200.32 115.61 1202.02 116.501C1203.53 117.305 1204.79 118.517 1205.66 119.999C1206.52 121.48 1206.95 123.173 1206.91 124.887L1206.55 136.835L1245.48 138.041L1245.87 126.094C1245.93 124.383 1246.47 122.724 1247.43 121.305C1248.38 119.885 1249.72 118.762 1251.28 118.06L1253.84 116.766L1256.34 115.324C1257.8 114.429 1259.48 113.955 1261.2 113.955C1262.91 113.955 1264.59 114.429 1266.05 115.324L1276.35 121.739ZM1243.39 97.1674C1237.83 100.149 1231.5 101.413 1225.22 100.8C1218.93 100.186 1212.97 97.7234 1208.09 93.7222C1203.2 89.721 1199.61 84.3611 1197.78 78.3204C1195.94 72.2797 1195.93 65.8293 1197.76 59.785C1199.58 53.7406 1203.16 48.3737 1208.04 44.3628C1212.92 40.3519 1218.87 37.8771 1225.16 37.2515C1231.44 36.6258 1237.77 37.8772 1243.34 40.8476C1248.91 43.818 1253.48 48.374 1256.46 53.9394C1258.44 57.6443 1259.66 61.7025 1260.07 65.8816C1260.47 70.0608 1260.05 74.2787 1258.82 78.294C1257.59 82.3093 1255.59 86.0432 1252.91 89.2817C1250.24 92.5203 1246.96 95.2 1243.25 97.1674H1243.39Z" fill="#EBEBEB"/>
<path d="M126.516 507.699L150.058 494.045L145.879 486.806C145.28 485.763 144.985 484.574 145.027 483.373C145.069 482.172 145.445 481.006 146.114 480.008C146.86 478.87 147.537 477.693 148.145 476.477C148.691 475.387 149.532 474.472 150.573 473.838C151.613 473.203 152.811 472.873 154.03 472.887H162.387V445.579H154.03C152.811 445.592 151.613 445.262 150.573 444.627C149.532 443.993 148.691 443.078 148.145 441.988C147.537 440.772 146.86 439.595 146.114 438.457C145.445 437.459 145.069 436.293 145.027 435.092C144.985 433.891 145.28 432.702 145.879 431.66L150.058 424.421L126.516 410.767L122.338 418.035C121.746 419.057 120.883 419.895 119.844 420.456C118.805 421.017 117.631 421.279 116.452 421.213H112.303C111.128 421.276 109.958 421.015 108.921 420.46C107.883 419.905 107.018 419.077 106.418 418.064L102.21 410.767L78.6681 424.421L82.8467 431.689C83.4453 432.731 83.7404 433.92 83.6988 435.121C83.6572 436.323 83.2805 437.488 82.6113 438.487C81.8718 439.616 81.194 440.785 80.5809 441.988C80.0349 443.078 79.1936 443.993 78.153 444.627C77.1124 445.262 75.9144 445.592 74.6955 445.579H66.25V472.887H74.6072C75.8261 472.873 77.0241 473.203 78.0647 473.838C79.1054 474.472 79.9466 475.387 80.4926 476.477C81.1057 477.68 81.7835 478.849 82.523 479.978C83.1916 480.983 83.5677 482.153 83.6093 483.359C83.6509 484.564 83.3563 485.758 82.7585 486.806L78.5798 494.045L102.121 507.699L106.329 500.43C106.928 499.415 107.793 498.582 108.83 498.022C109.867 497.462 111.037 497.196 112.215 497.252C112.862 497.252 113.539 497.252 114.216 497.252C114.893 497.252 115.569 497.252 116.246 497.252C117.423 497.199 118.592 497.467 119.629 498.026C120.665 498.586 121.53 499.417 122.132 500.43L126.516 507.699ZM114.216 481.597C109.794 481.591 105.473 480.275 101.799 477.814C98.1248 475.353 95.2629 471.858 93.5747 467.771C91.8865 463.684 91.4478 459.188 92.3141 454.851C93.1803 450.515 95.3127 446.533 98.4416 443.408C101.57 440.283 105.555 438.156 109.893 437.296C114.23 436.435 118.726 436.88 122.81 438.573C126.895 440.267 130.386 443.133 132.842 446.811C135.299 450.488 136.61 454.811 136.61 459.233C136.613 462.173 136.037 465.085 134.912 467.802C133.788 470.52 132.138 472.988 130.057 475.066C127.977 477.144 125.506 478.79 122.788 479.911C120.069 481.032 117.156 481.605 114.216 481.597V481.597Z" fill="#EBEBEB"/>
<path d="M1155.94 145.692L1142.32 122.151L1135.11 126.241C1134.06 126.839 1132.87 127.133 1131.66 127.092C1130.45 127.05 1129.28 126.674 1128.28 126.005C1127.14 125.26 1125.97 124.582 1124.75 123.975C1123.66 123.429 1122.74 122.588 1122.11 121.547C1121.48 120.507 1121.15 119.309 1121.16 118.09V109.732H1093.91V118.09C1093.92 119.309 1093.59 120.507 1092.96 121.547C1092.32 122.588 1091.41 123.429 1090.32 123.975C1089.1 124.588 1087.91 125.265 1086.76 126.005C1085.76 126.675 1084.59 127.051 1083.39 127.093C1082.19 127.135 1081 126.839 1079.96 126.241L1072.72 122.062L1059.1 145.604L1066.37 149.782C1067.4 150.4 1068.24 151.29 1068.8 152.353C1069.36 153.417 1069.62 154.615 1069.54 155.815C1069.54 156.492 1069.54 157.168 1069.54 157.816C1069.54 158.463 1069.54 159.169 1069.54 159.846C1069.6 161.024 1069.34 162.196 1068.78 163.234C1068.22 164.271 1067.38 165.135 1066.37 165.732L1059.1 169.94L1072.72 193.481L1079.99 189.303C1081.03 188.704 1082.22 188.409 1083.42 188.45C1084.62 188.492 1085.79 188.869 1086.79 189.538C1087.95 190.283 1089.12 190.96 1090.32 191.568C1091.41 192.114 1092.32 192.956 1092.96 193.996C1093.59 195.037 1093.92 196.235 1093.91 197.454V205.811H1121.19V197.454C1121.18 196.235 1121.5 195.037 1122.14 193.996C1122.77 192.956 1123.69 192.114 1124.78 191.568C1125.99 190.941 1127.17 190.264 1128.31 189.538C1129.31 188.869 1130.47 188.492 1131.67 188.45C1132.88 188.409 1134.06 188.704 1135.11 189.303L1142.38 193.481L1156 169.94L1148.73 165.761C1147.72 165.159 1146.9 164.292 1146.34 163.255C1145.79 162.219 1145.52 161.05 1145.58 159.876C1145.58 159.199 1145.58 158.522 1145.58 157.845C1145.58 157.168 1145.58 156.521 1145.58 155.844C1145.51 154.644 1145.76 153.445 1146.32 152.38C1146.88 151.316 1147.73 150.427 1148.76 149.812L1155.94 145.692ZM1129.84 157.786C1129.84 162.211 1128.53 166.536 1126.07 170.214C1123.61 173.893 1120.12 176.759 1116.03 178.451C1111.94 180.143 1107.44 180.584 1103.1 179.719C1098.76 178.854 1094.78 176.721 1091.65 173.59C1088.52 170.459 1086.4 166.472 1085.54 162.131C1084.68 157.791 1085.12 153.294 1086.82 149.208C1088.52 145.122 1091.39 141.631 1095.07 139.177C1098.75 136.723 1103.08 135.416 1107.5 135.422C1110.44 135.422 1113.35 136.001 1116.06 137.125C1118.77 138.249 1121.23 139.897 1123.31 141.974C1125.38 144.051 1127.03 146.517 1128.15 149.23C1129.27 151.943 1129.84 154.851 1129.84 157.786V157.786Z" fill="#EBEBEB"/>
<path d="M1273.88 728.814L1235.27 729.638L1215.67 729.962C1209.11 730.109 1202.52 729.962 1195.96 730.138H1194.66V728.814L1194.48 695.885V694.414H1195.96L1234.92 694.62C1247.92 694.62 1260.9 694.944 1273.88 695.091H1274.7V695.885C1274.7 701.477 1274.47 707.038 1274.32 712.541L1273.88 728.814ZM1273.88 728.814L1273.47 712.188C1273.32 706.715 1273.14 701.271 1273.08 695.885L1273.88 696.68C1260.9 696.856 1247.92 697.151 1234.92 697.18L1195.96 697.357L1197.43 695.885V728.814L1196.1 727.519C1202.52 727.519 1208.93 727.519 1215.38 727.666L1234.74 727.99L1273.88 728.814Z" fill="#EBEBEB"/>
<path d="M1230.42 770.336L1191.81 771.159L1172.18 771.483C1165.65 771.63 1159.06 771.483 1152.49 771.66H1151.2V770.336V737.407V735.936H1152.67L1191.63 736.142C1204.61 736.142 1217.62 736.465 1230.59 736.612H1231.42V737.407C1231.42 742.998 1231.18 748.56 1231.03 754.062L1230.42 770.336ZM1230.42 770.336L1230 753.709C1229.86 748.207 1229.68 742.792 1229.62 737.407L1230.42 738.201C1217.44 738.378 1204.43 738.672 1191.46 738.702L1152.49 738.878L1153.97 737.407V770.336L1152.64 769.041C1159.06 769.041 1165.47 769.041 1171.92 769.188L1191.25 769.512L1230.42 770.336Z" fill="#EBEBEB"/>
<path d="M1317.35 770.336L1278.74 771.159L1259.14 771.483C1252.58 771.63 1245.99 771.483 1239.42 771.66H1238.13V770.336L1237.95 737.407V735.936H1239.42L1278.39 736.142C1291.39 736.142 1304.37 736.465 1317.35 736.612H1318.17V737.407C1318.17 742.998 1317.91 748.56 1317.79 754.062L1317.35 770.336ZM1317.35 770.336L1316.93 753.709C1316.93 748.207 1316.61 742.792 1316.55 737.407L1317.35 738.201C1304.37 738.378 1291.39 738.672 1278.39 738.702L1239.42 738.878L1240.9 737.407V770.336L1239.57 769.041C1245.99 769.041 1252.4 769.041 1258.85 769.188L1278.21 769.512L1317.35 770.336Z" fill="#EBEBEB"/>
<path d="M481.991 409.369L443.383 410.193L423.785 410.546C417.223 410.546 410.631 410.546 404.069 410.546H402.774V409.222L402.598 376.352V374.881H404.069L443.03 375.057C456.037 375.057 469.014 375.381 481.991 375.528H482.815V376.352C482.815 381.943 482.55 387.505 482.403 393.008L481.991 409.369ZM481.991 409.369L481.579 392.743C481.579 387.27 481.256 381.855 481.197 376.44L481.991 377.264C469.014 377.412 456.037 377.735 443.03 377.735L404.069 377.912L405.54 376.44L405.393 409.369L404.069 408.074C410.484 408.074 416.899 408.074 423.344 408.221L442.706 408.575L481.991 409.369Z" fill="#EBEBEB"/>
<path d="M438.468 450.89L399.86 451.714L380.232 452.038C373.7 452.185 367.108 452.038 360.546 452.214H359.251V450.89L359.016 417.962V416.49H360.487L399.448 416.696C412.425 416.696 425.432 417.02 438.409 417.167H439.233V417.962C439.233 423.553 438.998 429.114 438.851 434.617L438.468 450.89ZM438.468 450.89L438.056 434.264C437.909 428.791 437.732 423.376 437.674 417.962L438.468 418.786C425.491 418.933 412.484 419.256 399.507 419.256L360.546 419.433L362.017 417.962V450.89L360.693 449.595C367.108 449.595 373.523 449.595 379.968 449.743L399.33 450.096L438.468 450.89Z" fill="#EBEBEB"/>
<path d="M132.393 768.802L93.8148 769.626L74.2165 769.979C67.6837 769.979 61.0921 769.979 54.5299 770.126H53.2057V768.802L53.0586 735.874V734.402H54.5299L93.4911 734.579C106.468 734.579 119.475 734.903 132.452 735.05H133.247V735.844C133.247 741.435 133.011 746.997 132.864 752.5L132.393 768.802ZM132.393 768.802L131.981 752.176C131.981 746.703 131.628 741.288 131.599 735.874L132.393 736.698C119.416 736.845 106.409 737.168 93.4322 737.168L54.4711 737.345L55.9424 735.874L55.7659 768.802L54.4711 767.508C60.8861 767.508 67.3012 767.508 73.7162 767.508L93.0791 767.861L132.393 768.802Z" fill="#EBEBEB"/>
<path d="M88.93 810.265L50.2926 811.089L30.6944 811.413C24.1616 811.413 17.57 811.413 11.0078 811.589H9.68359V810.265V777.337V775.865H11.1844L50.1455 776.042C63.1227 776.042 76.0999 776.365 89.1066 776.513H89.9011V777.307C89.9011 782.898 89.6363 788.46 89.5186 793.963L88.93 810.265ZM88.93 810.265L88.5181 793.639C88.5181 788.166 88.1649 782.751 88.1061 777.337L88.93 778.161C75.9234 778.308 62.9461 778.631 49.9689 778.631L11.0078 778.808L12.4791 777.337L12.3026 810.265L11.0078 808.97C17.4229 808.97 23.8085 808.97 30.253 809.118L49.6158 809.471L88.93 810.265Z" fill="#EBEBEB"/>
<path d="M525.456 450.89L486.848 451.714L467.25 452.038C460.688 452.185 454.125 452.038 447.534 452.214H446.239V450.89L446.062 417.962V416.49H447.534L486.495 416.696C499.502 416.696 512.479 417.02 525.456 417.167H526.28V417.962C526.28 423.553 526.015 429.114 525.898 434.617L525.456 450.89ZM525.456 450.89L525.044 434.264C525.044 428.791 524.72 423.376 524.662 417.962L525.456 418.786C512.479 418.933 499.502 419.256 486.495 419.256L447.534 419.433L449.005 417.962L448.858 450.89L447.534 449.595C453.978 449.595 460.364 449.595 466.808 449.743L486.171 450.096L525.456 450.89Z" fill="#EBEBEB"/>
<path d="M1227.46 342.948L1188.85 343.772L1169.25 344.095C1162.69 344.095 1156.1 344.095 1149.54 344.272H1148.24V342.948L1148.07 310.019V308.548H1149.54L1188.5 308.754C1201.48 308.754 1214.48 309.078 1227.46 309.225H1228.28V310.019C1228.28 315.61 1228.05 321.172 1227.9 326.675L1227.46 342.948ZM1227.46 342.948L1227.05 326.322C1227.05 320.848 1226.72 315.404 1226.67 310.019L1227.46 310.814C1214.48 310.99 1201.48 311.285 1188.5 311.314L1149.54 311.491L1151.01 310.019L1150.86 342.948L1149.54 341.653C1155.95 341.653 1162.37 341.653 1168.81 341.8L1188.18 342.124L1227.46 342.948Z" fill="#EBEBEB"/>
<path d="M1469.58 53.5062L1430.97 54.3302L1411.34 54.6539C1404.81 54.6539 1398.22 54.6539 1391.65 54.6539H1390.36V53.3297V20.401V18.9297H1391.83L1430.79 19.1062C1443.77 19.1062 1456.78 19.4299 1469.75 19.5771H1470.58V20.3716C1470.58 25.9627 1470.34 31.4949 1470.19 36.9978L1469.58 53.5062ZM1469.58 53.5062L1469.16 36.8506C1469.02 31.3772 1468.84 25.9627 1468.78 20.5776L1469.58 21.3721C1456.6 21.3721 1443.59 21.8429 1430.62 21.8429L1391.65 22.0489L1393.13 20.5776L1392.98 53.5062L1391.65 52.182C1398.07 52.182 1404.48 52.182 1410.93 52.3586L1430.26 52.6823L1469.58 53.5062Z" fill="#EBEBEB"/>
<path d="M1449.88 103.375L1411.27 104.199L1391.67 104.523C1385.11 104.523 1378.52 104.523 1371.96 104.523H1370.66V103.198L1370.48 70.2699V69.0928H1371.96L1410.92 69.2693C1423.92 69.2693 1436.9 69.593 1449.88 69.7402H1450.7V70.5347C1450.7 76.1258 1450.44 81.658 1450.29 87.1608L1449.88 103.375ZM1449.88 103.375L1449.47 86.7489C1449.47 81.2755 1449.14 75.8609 1449.08 70.4758L1449.88 71.2704C1436.9 71.2704 1423.92 71.7412 1410.92 71.7412L1371.96 72.0355L1373.43 70.5641V103.493L1372.1 102.169C1378.52 102.169 1384.93 102.169 1391.38 102.345L1410.74 102.669L1449.88 103.375Z" fill="#EBEBEB"/>
<path d="M266.645 85.6859L228.007 86.5099L208.409 86.8336C201.876 86.8336 195.285 86.8336 188.723 86.8336H187.398V85.5093V52.5807V51.1094H188.899L227.86 51.2859C240.838 51.2859 253.815 51.6096 266.821 51.7862H267.616V52.5807C267.616 58.1718 267.351 63.7335 267.233 69.2069L266.645 85.6859ZM266.645 85.6859L266.233 69.0597C266.233 63.5569 265.88 58.1424 265.821 52.7573L266.645 53.5518C253.638 53.6989 240.661 54.0226 227.684 54.0521L188.723 54.2286L190.194 52.7573L190.017 85.6859L188.723 84.3617C195.138 84.3617 201.523 84.3617 207.968 84.5383L227.331 84.8619L266.645 85.6859Z" fill="#EBEBEB"/>
<path d="M956.488 490.918H488.16V561.896H956.488V490.918Z" fill="#EBEBEB"/>
<path d="M957.28 562.69H487.363V490.123H957.28V562.69ZM488.952 561.218H955.691V491.712H488.952V561.218Z" fill="#DBDBDB"/>
<path d="M529.505 510.133C530.419 512.774 531.04 515.507 531.359 518.284C531.711 520.977 531.888 523.69 531.888 526.406C531.883 529.121 531.716 531.833 531.388 534.528C531.055 537.295 530.424 540.018 529.505 542.649C528.586 540.018 527.954 537.295 527.621 534.528C527.293 531.833 527.126 529.121 527.121 526.406C527.122 523.69 527.299 520.977 527.651 518.284C527.969 515.507 528.591 512.774 529.505 510.133V510.133Z" fill="#37474F"/>
<path d="M545.862 526.407C543.23 527.317 540.507 527.938 537.74 528.261C535.046 528.598 532.334 528.775 529.619 528.791C526.903 528.79 524.19 528.613 521.497 528.261C518.731 527.938 516.007 527.317 513.375 526.407C516.006 525.488 518.73 524.856 521.497 524.524C526.891 523.857 532.346 523.857 537.74 524.524C540.508 524.856 543.231 525.488 545.862 526.407V526.407Z" fill="#37474F"/>
<path d="M541.008 514.9C539.778 517.404 538.289 519.771 536.564 521.963C534.903 524.117 533.105 526.162 531.179 528.084C529.261 530.001 527.227 531.8 525.088 533.469C522.892 535.195 520.514 536.675 517.996 537.883C519.215 535.374 520.705 533.005 522.44 530.82C524.1 528.675 525.899 526.64 527.825 524.729C529.731 522.787 531.777 520.987 533.945 519.344C536.126 517.603 538.495 516.113 541.008 514.9Z" fill="#37474F"/>
<path d="M541.008 537.883C538.496 536.681 536.127 535.2 533.945 533.469C531.791 531.808 529.747 530.009 527.825 528.084C525.891 526.169 524.092 524.124 522.44 521.963C520.705 519.778 519.215 517.41 517.996 514.9C520.514 516.108 522.892 517.589 525.088 519.314C527.224 520.986 529.249 522.795 531.15 524.729C533.068 526.647 534.866 528.682 536.535 530.82C538.263 533.016 539.762 535.382 541.008 537.883V537.883Z" fill="#37474F"/>
<path d="M592.946 510.133C593.869 512.773 594.5 515.506 594.83 518.284C595.497 523.678 595.497 529.134 594.83 534.528C594.511 537.297 593.879 540.022 592.946 542.649C592.036 540.017 591.415 537.294 591.092 534.528C590.735 531.835 590.568 529.121 590.592 526.406C590.583 523.691 590.75 520.978 591.092 518.284C591.426 515.51 592.047 512.778 592.946 510.133V510.133Z" fill="#37474F"/>
<path d="M609.135 526.406C606.503 527.316 603.78 527.937 601.014 528.26C598.34 528.614 595.648 528.811 592.951 528.848C590.235 528.848 587.522 528.671 584.829 528.319C582.062 527.996 579.339 527.374 576.707 526.465C579.338 525.546 582.061 524.914 584.829 524.581C590.233 523.914 595.698 523.914 601.102 524.581C603.837 524.901 606.53 525.513 609.135 526.406Z" fill="#37474F"/>
<path d="M604.361 514.9C603.151 517.408 601.671 519.776 599.947 521.963C596.618 526.273 592.751 530.14 588.441 533.469C586.255 535.193 583.887 536.673 581.379 537.883C582.589 535.375 584.069 533.007 585.793 530.82C587.462 528.682 589.26 526.647 591.178 524.729C593.084 522.787 595.13 520.987 597.299 519.344C599.484 517.61 601.852 516.12 604.361 514.9V514.9Z" fill="#37474F"/>
<path d="M604.361 537.883C601.853 536.673 599.485 535.193 597.299 533.469C592.989 530.14 589.122 526.273 585.793 521.963C584.069 519.776 582.589 517.408 581.379 514.9C583.887 516.11 586.255 517.59 588.441 519.314C590.603 520.977 592.648 522.786 594.562 524.729C596.48 526.647 598.278 528.682 599.947 530.82C601.666 533.011 603.145 535.378 604.361 537.883V537.883Z" fill="#37474F"/>
<path d="M656.246 510.133C657.16 512.774 657.782 515.507 658.1 518.284C658.452 520.977 658.629 523.69 658.63 526.406C658.624 529.121 658.457 531.833 658.129 534.528C657.797 537.295 657.165 540.018 656.246 542.649C655.327 540.018 654.695 537.295 654.363 534.528C653.676 529.135 653.676 523.677 654.363 518.284C654.677 515.504 655.309 512.769 656.246 510.133Z" fill="#37474F"/>
<path d="M672.397 526.407C669.765 527.317 667.042 527.938 664.276 528.261C661.581 528.598 658.869 528.775 656.154 528.791C653.438 528.79 650.725 528.613 648.032 528.261C645.266 527.938 642.542 527.317 639.91 526.407C642.542 525.488 645.265 524.856 648.032 524.524C653.426 523.857 658.882 523.857 664.276 524.524C667.043 524.856 669.766 525.488 672.397 526.407V526.407Z" fill="#37474F"/>
<path d="M667.754 514.9C666.524 517.404 665.035 519.771 663.311 521.963C661.649 524.117 659.851 526.162 657.925 528.084C656.007 530.001 653.973 531.8 651.834 533.469C649.638 535.195 647.26 536.675 644.742 537.883C645.961 535.374 647.451 533.005 649.186 530.82C650.846 528.675 652.645 526.64 654.571 524.729C656.474 522.795 658.509 520.996 660.662 519.344C662.858 517.609 665.236 516.119 667.754 514.9V514.9Z" fill="#37474F"/>
<path d="M667.754 537.883C665.236 536.675 662.858 535.195 660.662 533.469C658.523 531.8 656.489 530.001 654.571 528.084C652.638 526.169 650.838 524.124 649.186 521.963C647.451 519.778 645.961 517.41 644.742 514.9C647.26 516.108 649.638 517.589 651.834 519.314C653.98 520.985 656.015 522.794 657.925 524.729C659.843 526.647 661.642 528.682 663.311 530.82C665.028 533.017 666.517 535.383 667.754 537.883V537.883Z" fill="#37474F"/>
<path d="M719.485 510.133C720.408 512.773 721.039 515.506 721.369 518.284C722.036 523.678 722.036 529.134 721.369 534.528C721.05 537.297 720.418 540.022 719.485 542.649C718.576 540.017 717.954 537.294 717.631 534.528C717.274 531.835 717.107 529.121 717.131 526.406C717.122 523.691 717.289 520.978 717.631 518.284C717.965 515.51 718.586 512.778 719.485 510.133V510.133Z" fill="#37474F"/>
<path d="M735.873 526.406C733.24 527.316 730.517 527.937 727.751 528.26C725.009 528.622 722.247 528.818 719.482 528.848C716.766 528.848 714.053 528.671 711.36 528.319C708.594 527.996 705.871 527.374 703.238 526.465C705.87 525.546 708.593 524.914 711.36 524.581C716.764 523.914 722.229 523.914 727.633 524.581C730.438 524.887 733.201 525.498 735.873 526.406Z" fill="#37474F"/>
<path d="M731.256 514.9C730.046 517.408 728.566 519.776 726.842 521.963C723.513 526.273 719.646 530.14 715.336 533.469C713.149 535.193 710.781 536.673 708.273 537.883C709.483 535.375 710.963 533.007 712.687 530.82C714.356 528.682 716.155 526.647 718.073 524.729C719.979 522.787 722.025 520.987 724.193 519.344C726.378 517.61 728.747 516.12 731.256 514.9V514.9Z" fill="#37474F"/>
<path d="M731.256 537.883C728.748 536.673 726.38 535.193 724.193 533.469C719.883 530.14 716.017 526.273 712.687 521.963C710.963 519.776 709.483 517.408 708.273 514.9C710.781 516.11 713.149 517.59 715.336 519.314C717.498 520.977 719.543 522.786 721.457 524.729C723.375 526.647 725.173 528.682 726.842 530.82C728.56 533.011 730.04 535.378 731.256 537.883V537.883Z" fill="#37474F"/>
<path d="M782.985 510.133C783.899 512.774 784.521 515.507 784.839 518.284C785.546 523.676 785.546 529.136 784.839 534.528C784.531 537.296 783.909 540.021 782.985 542.649C782.066 540.018 781.435 537.295 781.102 534.528C780.76 531.834 780.593 529.121 780.602 526.406C780.607 523.691 780.774 520.979 781.102 518.284C781.432 515.506 782.063 512.773 782.985 510.133V510.133Z" fill="#37474F"/>
<path d="M799.232 526.407C796.599 527.317 793.876 527.938 791.11 528.261C788.415 528.598 785.703 528.775 782.988 528.791C780.272 528.79 777.559 528.613 774.866 528.261C772.091 527.935 769.358 527.314 766.715 526.407C769.357 525.491 772.09 524.86 774.866 524.524C780.26 523.857 785.716 523.857 791.11 524.524C793.877 524.856 796.6 525.488 799.232 526.407Z" fill="#37474F"/>
<path d="M794.459 514.9C793.249 517.408 791.769 519.776 790.045 521.963C788.384 524.117 786.585 526.162 784.66 528.084C782.741 530.001 780.707 531.8 778.568 533.469C776.373 535.195 773.995 536.675 771.477 537.883C772.696 535.374 774.186 533.005 775.92 530.82C779.26 526.538 783.115 522.684 787.396 519.344C789.586 517.616 791.954 516.126 794.459 514.9V514.9Z" fill="#37474F"/>
<path d="M794.459 537.883C791.954 536.667 789.587 535.187 787.396 533.469C785.258 531.8 783.224 530.001 781.305 528.084C779.364 526.177 777.564 524.131 775.92 521.963C774.186 519.778 772.696 517.41 771.477 514.9C773.995 516.108 776.373 517.589 778.568 519.314C780.714 520.985 782.749 522.794 784.66 524.729C786.578 526.647 788.376 528.682 790.045 530.82C791.763 533.011 793.243 535.378 794.459 537.883V537.883Z" fill="#37474F"/>
<path d="M846.341 510.133C847.263 512.773 847.895 515.506 848.224 518.284C848.891 523.678 848.891 529.134 848.224 534.528C847.891 537.295 847.26 540.018 846.341 542.649C845.431 540.017 844.809 537.294 844.487 534.528C844.135 531.835 843.958 529.122 843.957 526.406C843.972 523.69 844.149 520.978 844.487 518.284C844.805 515.507 845.427 512.774 846.341 510.133Z" fill="#37474F"/>
<path d="M862.614 526.406C859.982 527.316 857.259 527.938 854.493 528.26C851.788 528.597 849.066 528.774 846.341 528.79C843.625 528.789 840.912 528.612 838.219 528.26C835.453 527.938 832.73 527.316 830.098 526.406C832.729 525.487 835.452 524.856 838.219 524.523C840.913 524.181 843.626 524.013 846.341 524.023C849.066 524.014 851.789 524.182 854.493 524.523C857.26 524.856 859.983 525.487 862.614 526.406V526.406Z" fill="#37474F"/>
<path d="M857.787 514.9C856.568 517.41 855.078 519.778 853.344 521.963C851.7 524.131 849.9 526.177 847.958 528.084C846.04 530.001 844.006 531.8 841.867 533.469C839.681 535.193 837.312 536.673 834.805 537.883C836.015 535.375 837.495 533.007 839.219 530.82C840.888 528.682 842.686 526.647 844.604 524.729C846.51 522.787 848.556 520.987 850.725 519.344C852.91 517.61 855.278 516.12 857.787 514.9V514.9Z" fill="#37474F"/>
<path d="M857.787 537.883C855.279 536.673 852.911 535.193 850.725 533.469C846.415 530.14 842.548 526.273 839.219 521.963C837.495 519.776 836.015 517.408 834.805 514.9C837.312 516.11 839.681 517.59 841.867 519.314C844.013 520.985 846.048 522.794 847.958 524.729C849.892 526.632 851.692 528.668 853.344 530.82C855.071 533.01 856.561 535.377 857.787 537.883V537.883Z" fill="#37474F"/>
<path d="M781.102 431.387C760.472 443.809 736.437 449.378 712.445 447.296C688.454 445.214 665.738 435.588 647.555 419.799C629.372 404.009 616.656 382.867 611.231 359.404C605.806 335.942 607.951 311.364 617.357 289.195C626.763 267.026 642.948 248.406 663.591 236.004C684.234 223.602 708.273 218.055 732.263 220.16C756.253 222.264 778.96 231.912 797.128 247.719C815.296 263.525 827.991 284.68 833.394 308.148C838.929 331.581 836.842 356.169 827.437 378.334C818.032 400.499 801.8 419.085 781.102 431.387V431.387Z" fill="#455A64"/>
<path d="M757.152 321.066C757.076 327.928 754.966 334.614 751.09 340.277C747.213 345.94 741.744 350.327 735.375 352.882C729.005 355.436 722.021 356.044 715.305 354.629C708.59 353.214 702.445 349.839 697.648 344.93C692.851 340.022 689.618 333.802 688.356 327.056C687.095 320.31 687.863 313.341 690.563 307.032C693.263 300.722 697.774 295.355 703.524 291.609C709.275 287.864 716.007 285.908 722.87 285.989C732.066 286.097 740.843 289.853 747.272 296.431C753.7 303.008 757.254 311.869 757.152 321.066V321.066Z" fill="white"/>
<path d="M781.28 417.027L781.133 431.358C762.978 442.264 742.145 447.903 720.967 447.644C699.789 447.384 679.101 441.235 661.219 429.886L661.395 415.614C661.583 399.717 668.078 384.544 679.451 373.436C690.825 362.327 706.146 356.191 722.044 356.378C737.942 356.565 753.114 363.06 764.223 374.434C775.332 385.808 781.467 401.129 781.28 417.027V417.027Z" fill="white"/>
<path d="M819.856 389.806C820.257 446.532 814.983 503.157 804.112 558.833C798.7 586.702 790.457 613.945 779.512 640.14C774.034 653.275 766.851 665.633 758.148 676.894C753.765 682.566 748.534 687.529 742.64 691.607C736.757 695.874 729.676 698.171 722.409 698.171C715.142 698.171 708.061 695.874 702.178 691.607C696.255 687.532 690.994 682.57 686.582 676.894C677.837 665.645 670.605 653.298 665.071 640.169C654.039 613.983 645.708 586.74 640.205 558.863C629.118 503.17 623.656 446.503 623.903 389.717C623.658 332.922 629.12 276.246 640.205 220.542C645.708 192.665 654.039 165.422 665.071 139.236C670.613 126.12 677.844 113.784 686.582 102.541C690.985 96.8666 696.235 91.904 702.148 87.8275C708.038 83.5627 715.123 81.2666 722.394 81.2666C729.665 81.2666 736.751 83.5627 742.64 87.8275C748.533 91.9077 753.764 96.8702 758.148 102.541C766.856 113.787 774.04 126.136 779.512 139.266C790.457 165.46 798.7 192.703 804.112 220.572C815.009 276.314 820.283 333.01 819.856 389.806ZM819.856 389.806C820.083 333.091 814.632 276.495 803.583 220.866C798.088 193.067 789.766 165.902 778.747 139.795C773.261 126.752 766.088 114.484 757.412 103.306C753.065 97.7642 747.895 92.9213 742.081 88.9457C736.372 84.795 729.496 82.5592 722.438 82.5592C715.38 82.5592 708.504 84.795 702.796 88.9457C697.008 92.9341 691.868 97.7872 687.553 103.335C678.925 114.525 671.792 126.791 666.336 139.825C655.429 165.954 647.216 193.128 641.823 220.925C630.951 276.532 625.676 333.088 626.08 389.747C625.678 446.405 630.952 502.961 641.823 558.569C647.212 586.357 655.425 613.521 666.336 639.639C671.779 652.679 678.913 664.947 687.553 676.129C691.875 681.679 697.014 686.541 702.796 690.548C708.504 694.699 715.38 696.934 722.438 696.934C729.496 696.934 736.372 694.699 742.081 690.548C747.895 686.562 753.066 681.709 757.412 676.158C766.099 664.998 773.273 652.739 778.747 639.698C789.762 613.59 798.084 586.426 803.583 558.627C814.624 503.037 820.075 446.481 819.856 389.806V389.806Z" fill="url(#paint10_linear_1562:677)"/>
<path d="M771.155 305.409C820.486 333.426 866.888 366.313 909.667 403.577C931.084 422.152 950.557 442.857 967.785 465.373C976.418 476.724 983.522 489.16 988.913 502.363C991.601 508.987 993.258 515.983 993.828 523.109C994.428 530.323 992.904 537.555 989.443 543.913C985.67 550.109 980.181 555.077 973.641 558.215C967.187 561.301 960.301 563.385 953.218 564.394C939.108 566.351 924.801 566.44 910.667 564.659C882.467 561.134 854.7 554.735 827.801 545.561C774.039 527.284 722.236 503.685 673.163 475.114C623.884 446.911 577.551 413.847 534.857 376.416C513.483 357.699 494.069 336.856 476.916 314.208C468.312 302.853 461.238 290.417 455.876 277.218C453.194 270.573 451.547 263.557 450.991 256.413C450.253 249.181 451.819 241.901 455.465 235.612C459.112 229.323 464.652 224.348 471.295 221.395C477.746 218.314 484.635 216.25 491.717 215.275C505.82 213.407 520.107 213.407 534.21 215.275C562.347 218.885 590.044 225.353 616.87 234.579C670.533 252.98 722.22 276.708 771.155 305.409V305.409ZM771.155 305.409C722.144 276.861 670.399 253.29 616.693 235.049C589.877 225.918 562.2 219.538 534.092 216.01C520.057 214.229 505.847 214.319 491.835 216.275C484.867 217.264 478.09 219.308 471.737 222.337C465.297 225.221 459.934 230.066 456.415 236.181C452.895 242.296 451.398 249.367 452.138 256.384C452.709 263.399 454.346 270.285 456.994 276.806C462.357 289.879 469.422 302.188 478.005 313.413C495.163 335.932 514.577 356.638 535.946 375.209C578.663 412.423 624.996 445.27 674.252 473.26C723.129 501.937 774.756 525.646 828.36 544.031C855.095 553.252 882.705 559.711 910.756 563.306C924.76 565.174 938.95 565.174 952.954 563.306C959.913 562.374 966.69 560.39 973.052 557.42C979.506 554.565 984.888 549.736 988.426 543.63C991.963 537.523 993.473 530.451 992.739 523.432C992.199 516.409 990.582 509.511 987.942 502.981C982.621 489.874 975.597 477.527 967.049 466.256C949.945 443.666 930.58 422.881 909.255 404.224C866.633 366.761 820.369 333.658 771.155 305.409V305.409Z" fill="url(#paint11_linear_1562:677)"/>
<path d="M673.694 305.409C722.632 276.714 774.317 252.986 827.979 234.579C854.84 225.316 882.576 218.818 910.756 215.187C924.859 213.319 939.146 213.319 953.249 215.187C960.325 216.189 967.21 218.253 973.671 221.308C980.314 224.26 985.855 229.235 989.501 235.524C993.147 241.813 994.714 249.093 993.975 256.325C993.42 263.469 991.772 270.486 989.091 277.13C983.729 290.329 976.655 302.765 968.05 314.12C950.904 336.765 931.49 357.599 910.109 376.299C867.41 413.732 821.078 446.805 771.803 475.026C722.745 503.626 670.939 527.227 617.165 545.473C590.204 554.701 562.367 561.14 534.093 564.689C519.959 566.47 505.652 566.381 491.542 564.424C484.46 563.415 477.573 561.331 471.119 558.245C464.579 555.107 459.09 550.139 455.317 543.943C451.856 537.585 450.332 530.353 450.933 523.138C451.502 516.013 453.159 509.016 455.847 502.393C461.241 489.228 468.345 476.831 476.975 465.521C494.203 443.005 513.676 422.299 535.093 403.724C577.893 366.404 624.325 333.468 673.694 305.409V305.409ZM673.694 305.409C624.469 333.58 578.185 366.605 535.535 403.989C514.209 422.646 494.844 443.431 477.741 466.021C469.193 477.292 462.168 489.639 456.847 502.746C454.208 509.276 452.59 516.174 452.051 523.197C451.317 530.216 452.827 537.288 456.364 543.395C459.901 549.501 465.284 554.33 471.737 557.185C478.1 560.155 484.877 562.139 491.836 563.071C505.84 564.939 520.03 564.939 534.034 563.071C562.089 559.48 589.699 553.011 616.429 543.767C670.023 525.44 721.641 501.78 770.508 473.142C819.757 445.152 866.089 412.316 908.814 375.122C930.198 356.557 949.623 335.85 966.785 313.325C975.354 302.096 982.409 289.788 987.766 276.718C990.414 270.197 992.051 263.311 992.622 256.296C993.362 249.279 991.865 242.208 988.346 236.093C984.826 229.979 979.463 225.133 973.024 222.249C966.676 219.207 959.896 217.162 952.925 216.187C938.913 214.231 924.703 214.142 910.668 215.922C882.55 219.448 854.864 225.828 828.038 234.962C774.364 253.225 722.657 276.826 673.694 305.409V305.409Z" fill="url(#paint12_linear_1562:677)"/>
<path d="M913.906 284.605C913.906 284.605 885.951 487.238 839.956 532.82C784.781 587.701 744.731 579.55 722.426 607.741C700.15 579.491 660.1 587.524 604.865 532.79C558.871 487.267 530.945 284.605 530.945 284.605C652.066 231.43 722.426 171.812 722.426 171.812C724.603 173.665 794.639 232.284 913.906 284.605Z" fill="url(#paint13_linear_1562:677)"/>
<path opacity="0.1" d="M722.426 171.841V607.741C700.15 579.491 660.1 587.524 604.865 532.79C558.871 487.267 530.945 284.605 530.945 284.605C652.066 231.43 722.426 171.812 722.426 171.812V171.841Z" fill="black"/>
<path d="M884.273 300.966C884.273 300.966 860.732 472.112 821.83 510.662C775.159 556.921 741.318 550.123 722.485 573.959C703.651 550.123 669.811 556.921 623.14 510.662C584.12 472.112 560.578 300.966 560.578 300.966C662.895 256.002 722.426 205.623 722.426 205.623C722.426 205.623 781.868 256.002 884.273 300.966Z" fill="url(#paint14_linear_1562:677)"/>
<path opacity="0.1" d="M884.273 300.966C884.273 300.966 860.731 472.112 821.829 510.661C775.217 556.891 741.376 550.152 722.543 573.9V205.682C724.25 207.212 783.456 256.708 884.273 300.966Z" fill="black"/>
<path d="M737.581 376.269L752.559 447.364H688.968L703.946 376.269C698.079 372.615 693.562 367.15 691.078 360.7C688.595 354.25 688.279 347.167 690.179 340.522C692.079 333.877 696.092 328.031 701.61 323.869C707.128 319.708 713.852 317.457 720.764 317.457C727.675 317.457 734.399 319.708 739.917 323.869C745.435 328.031 749.448 333.877 751.348 340.522C753.248 347.167 752.932 354.25 750.449 360.7C747.965 367.15 743.448 372.615 737.581 376.269Z" fill="#263238"/>
<defs>
<linearGradient id="paint0_linear_1562:677" x1="1419.95" y1="190.457" x2="1419.95" y2="868.687" gradientUnits="userSpaceOnUse">
<stop stop-color="#EBEBEB"/>
<stop offset="0.701042" stop-color="#EBEBEB" stop-opacity="0.611458"/>
<stop offset="1" stop-color="#EBEBEB" stop-opacity="0"/>
</linearGradient>
<linearGradient id="paint1_linear_1562:677" x1="1440.23" y1="263.995" x2="1440.23" y2="868.687" gradientUnits="userSpaceOnUse">
<stop stop-color="#EBEBEB"/>
<stop offset="0.701042" stop-color="#EBEBEB" stop-opacity="0.611458"/>
<stop offset="1" stop-color="#EBEBEB" stop-opacity="0"/>
</linearGradient>
<linearGradient id="paint2_linear_1562:677" x1="1361.11" y1="378.995" x2="1361.11" y2="868.687" gradientUnits="userSpaceOnUse">
<stop stop-color="#EBEBEB"/>
<stop offset="0.701042" stop-color="#EBEBEB" stop-opacity="0.611458"/>
<stop offset="1" stop-color="#EBEBEB" stop-opacity="0"/>
</linearGradient>
<linearGradient id="paint3_linear_1562:677" x1="1315.62" y1="338.504" x2="1315.62" y2="868.687" gradientUnits="userSpaceOnUse">
<stop stop-color="#EBEBEB"/>
<stop offset="0.701042" stop-color="#EBEBEB" stop-opacity="0.611458"/>
<stop offset="1" stop-color="#EBEBEB" stop-opacity="0"/>
</linearGradient>
<linearGradient id="paint4_linear_1562:677" x1="1292.15" y1="400.271" x2="1292.15" y2="868.688" gradientUnits="userSpaceOnUse">
<stop stop-color="#EBEBEB"/>
<stop offset="0.701042" stop-color="#EBEBEB" stop-opacity="0.611458"/>
<stop offset="1" stop-color="#EBEBEB" stop-opacity="0"/>
</linearGradient>
<linearGradient id="paint5_linear_1562:677" x1="68.019" y1="454.671" x2="68.019" y2="902.5" gradientUnits="userSpaceOnUse">
<stop stop-color="#EBEBEB"/>
<stop offset="0.633333" stop-color="#EBEBEB" stop-opacity="0.6375"/>
<stop offset="1" stop-color="#EBEBEB" stop-opacity="0"/>
</linearGradient>
<linearGradient id="paint6_linear_1562:677" x1="47.7456" y1="528.208" x2="47.7456" y2="902.755" gradientUnits="userSpaceOnUse">
<stop stop-color="#EBEBEB"/>
<stop offset="0.633333" stop-color="#EBEBEB" stop-opacity="0.6375"/>
<stop offset="1" stop-color="#EBEBEB" stop-opacity="0"/>
</linearGradient>
<linearGradient id="paint7_linear_1562:677" x1="126.862" y1="554.929" x2="126.862" y2="885.122" gradientUnits="userSpaceOnUse">
<stop stop-color="#EBEBEB"/>
<stop offset="0.633333" stop-color="#EBEBEB" stop-opacity="0.6375"/>
<stop offset="1" stop-color="#EBEBEB" stop-opacity="0"/>
</linearGradient>
<linearGradient id="paint8_linear_1562:677" x1="172.357" y1="426.156" x2="172.357" y2="868.059" gradientUnits="userSpaceOnUse">
<stop stop-color="#EBEBEB"/>
<stop offset="0.633333" stop-color="#EBEBEB" stop-opacity="0.6375"/>
<stop offset="1" stop-color="#EBEBEB" stop-opacity="0"/>
</linearGradient>
<linearGradient id="paint9_linear_1562:677" x1="195.822" y1="487.923" x2="195.822" y2="868.059" gradientUnits="userSpaceOnUse">
<stop stop-color="#EBEBEB"/>
<stop offset="0.633333" stop-color="#EBEBEB" stop-opacity="0.6375"/>
<stop offset="1" stop-color="#EBEBEB" stop-opacity="0"/>
</linearGradient>
<linearGradient id="paint10_linear_1562:677" x1="816.699" y1="146.545" x2="544.922" y2="223.444" gradientUnits="userSpaceOnUse">
<stop offset="0.284033" stop-color="#315A95"/>
<stop offset="1" stop-color="#7EB9DA"/>
</linearGradient>
<linearGradient id="paint11_linear_1562:677" x1="985.141" y1="251.127" x2="703.465" y2="638.166" gradientUnits="userSpaceOnUse">
<stop offset="0.284033" stop-color="#315A95"/>
<stop offset="1" stop-color="#7EB9DA"/>
</linearGradient>
<linearGradient id="paint12_linear_1562:677" x1="985.336" y1="251.052" x2="703.569" y2="638.232" gradientUnits="userSpaceOnUse">
<stop offset="0.284033" stop-color="#315A95"/>
<stop offset="1" stop-color="#7EB9DA"/>
</linearGradient>
<linearGradient id="paint13_linear_1562:677" x1="907.691" y1="217.94" x2="551.916" y2="496.307" gradientUnits="userSpaceOnUse">
<stop offset="0.284033" stop-color="#315A95"/>
<stop offset="1" stop-color="#7EB9DA"/>
</linearGradient>
<linearGradient id="paint14_linear_1562:677" x1="879.02" y1="244.599" x2="578.384" y2="479.907" gradientUnits="userSpaceOnUse">
<stop offset="0.284033" stop-color="#315A95"/>
<stop offset="1" stop-color="#7EB9DA"/>
</linearGradient>
</defs>
</svg>
