<svg width="53" height="38" viewBox="0 0 53 38" fill="none" xmlns="http://www.w3.org/2000/svg">
<path d="M36.1364 16.2857C40.1355 16.2857 43.3395 12.6486 43.3395 8.14286C43.3395 3.63714 40.1355 0 36.1364 0C32.1373 0 28.9091 3.63714 28.9091 8.14286C28.9091 12.6486 32.1373 16.2857 36.1364 16.2857ZM16.8636 16.2857C20.8627 16.2857 24.0668 12.6486 24.0668 8.14286C24.0668 3.63714 20.8627 0 16.8636 0C12.8645 0 9.63636 3.63714 9.63636 8.14286C9.63636 12.6486 12.8645 16.2857 16.8636 16.2857ZM16.8636 21.7143C11.2505 21.7143 0 24.89 0 31.2143V38H33.7273V31.2143C33.7273 24.89 22.4768 21.7143 16.8636 21.7143ZM36.1364 21.7143C35.4377 21.7143 34.6427 21.7686 33.7995 21.85C36.5941 24.13 38.5455 27.1971 38.5455 31.2143V38H53V31.2143C53 24.89 41.7495 21.7143 36.1364 21.7143Z" fill="#C84456"/>
</svg>
