<svg width="28" height="20" viewBox="0 0 28 20" fill="none" xmlns="http://www.w3.org/2000/svg">
<path d="M13.9545 9.42857C15.3882 9.42857 16.5368 7.99286 16.5368 6.21429C16.5368 4.43571 15.3882 3 13.9545 3C12.5209 3 11.3636 4.43571 11.3636 6.21429C11.3636 7.99286 12.5209 9.42857 13.9545 9.42857ZM7.04545 9.42857C8.47909 9.42857 9.62773 7.99286 9.62773 6.21429C9.62773 4.43571 8.47909 3 7.04545 3C5.61182 3 4.45455 4.43571 4.45455 6.21429C4.45455 7.99286 5.61182 9.42857 7.04545 9.42857ZM7.04545 11.5714C5.03318 11.5714 1 12.825 1 15.3214V18H13.0909V15.3214C13.0909 12.825 9.05773 11.5714 7.04545 11.5714ZM13.9545 11.5714C13.7041 11.5714 13.4191 11.5929 13.1168 11.625C14.1186 12.525 14.8182 13.7357 14.8182 15.3214V18H20V15.3214C20 12.825 15.9668 11.5714 13.9545 11.5714Z" fill="#C84456"/>
</svg>
