<svg width="500" height="500" viewBox="0 0 500 500" fill="none" xmlns="http://www.w3.org/2000/svg">
<path d="M379.179 120.702C380.605 119.25 381.736 117.525 382.507 115.628C383.279 113.73 383.676 111.696 383.676 109.642C383.676 107.588 383.279 105.554 382.507 103.656C381.736 101.758 380.605 100.034 379.179 98.5814C377.754 97.1289 376.062 95.9767 374.199 95.1907C372.337 94.4046 370.34 94 368.324 94C366.308 94 364.312 94.4046 362.45 95.1907C360.587 95.9767 358.895 97.1289 357.469 98.5814L153.676 306.261L57.2065 207.936C55.781 206.483 54.0887 205.331 52.2261 204.545C50.3636 203.759 48.3674 203.354 46.3514 203.354C42.28 203.354 38.3753 205.002 35.4963 207.936C32.6174 210.869 31 214.847 31 218.996C31 223.144 32.6174 227.123 35.4963 230.056L142.821 339.41C144.245 340.865 145.937 342.02 147.799 342.807C149.662 343.595 151.659 344 153.676 344C155.692 344 157.689 343.595 159.552 342.807C161.415 342.02 163.107 340.865 164.531 339.41L379.179 120.702ZM250.145 339.41L222.67 311.385L244.349 289.295L261 306.261L464.794 98.5814C467.672 95.648 471.577 94 475.649 94C479.72 94 483.625 95.648 486.504 98.5814C489.383 101.515 491 105.493 491 109.642C491 113.79 489.383 117.769 486.504 120.702L271.855 339.41C270.431 340.865 268.739 342.02 266.876 342.807C265.014 343.595 263.017 344 261 344C258.983 344 256.986 343.595 255.124 342.807C253.261 342.02 251.569 340.865 250.145 339.41Z" fill="#49ABDF"/>
<path d="M167.313 223.313L195.313 251.344L173.219 273.438L145.188 245.438C142.254 242.504 140.605 238.524 140.605 234.375C140.605 230.226 142.254 226.247 145.188 223.313C148.122 220.379 152.101 218.73 156.25 218.73C160.399 218.73 164.379 220.379 167.313 223.313Z" fill="#49ABDF"/>
</svg>
