<svg width="460" height="250" viewBox="0 0 460 250" fill="none" xmlns="http://www.w3.org/2000/svg">
<path d="M348.179 26.7022C349.605 25.2497 350.736 23.5253 351.507 21.6276C352.279 19.7299 352.676 17.6959 352.676 15.6418C352.676 13.5877 352.279 11.5537 351.507 9.65592C350.736 7.75817 349.605 6.03383 348.179 4.58136C346.754 3.12889 345.062 1.97673 343.199 1.19066C341.337 0.404587 339.34 0 337.324 0C335.308 0 333.312 0.404587 331.45 1.19066C329.587 1.97673 327.895 3.12889 326.469 4.58136L122.676 212.261L26.2065 113.936C24.781 112.483 23.0887 111.331 21.2261 110.545C19.3636 109.759 17.3674 109.354 15.3514 109.354C11.28 109.354 7.37527 111.002 4.49633 113.936C1.61738 116.869 0 120.847 0 124.996C0 129.144 1.61738 133.123 4.49633 136.056L111.821 245.41C113.245 246.865 114.937 248.02 116.799 248.807C118.662 249.595 120.659 250 122.676 250C124.692 250 126.689 249.595 128.552 248.807C130.415 248.02 132.107 246.865 133.531 245.41L348.179 26.7022ZM219.145 245.41L191.67 217.385L213.349 195.295L230 212.261L433.794 4.58136C436.672 1.64796 440.577 -9.77408e-08 444.649 0C448.72 9.77409e-08 452.625 1.64796 455.504 4.58136C458.383 7.51476 460 11.4933 460 15.6418C460 19.7902 458.383 23.7688 455.504 26.7022L240.855 245.41C239.431 246.865 237.739 248.02 235.876 248.807C234.014 249.595 232.017 250 230 250C227.983 250 225.986 249.595 224.124 248.807C222.261 248.02 220.569 246.865 219.145 245.41Z" fill="#49ABDF"/>
</svg>
