<svg width="100" height="80" viewBox="0 0 100 80" fill="none" xmlns="http://www.w3.org/2000/svg">
<path d="M75.6912 8.54469C76.0011 8.0799 76.2469 7.52811 76.4146 6.92083C76.5823 6.31355 76.6686 5.66268 76.6686 5.00536C76.6686 4.34805 76.5823 3.69717 76.4146 3.08989C76.2469 2.48261 76.0011 1.93083 75.6912 1.46604C75.3813 1.00124 75.0134 0.632554 74.6085 0.381011C74.2036 0.129468 73.7696 0 73.3314 0C72.8931 0 72.4592 0.129468 72.0543 0.381011C71.6494 0.632554 71.2815 1.00124 70.9716 1.46604L26.6686 67.9234L5.69706 36.4594C5.38717 35.9946 5.01927 35.6259 4.61438 35.3743C4.20948 35.1228 3.77552 34.9933 3.33726 34.9933C2.45217 34.9933 1.60332 35.5207 0.977462 36.4594C0.351604 37.3981 0 38.6712 0 39.9987C0 41.3262 0.351604 42.5993 0.977462 43.538L24.3088 78.5313C24.6184 78.9969 24.9862 79.3662 25.3912 79.6183C25.7961 79.8703 26.2302 80 26.6686 80C27.107 80 27.5412 79.8703 27.9461 79.6183C28.351 79.3662 28.7188 78.9969 29.0284 78.5313L75.6912 8.54469V8.54469ZM47.6402 78.5313L41.6674 69.5631L46.3803 62.4944L50 67.9234L94.3029 1.46604C94.9288 0.527348 95.7776 -3.12771e-08 96.6627 0C97.5478 3.12771e-08 98.3967 0.527348 99.0225 1.46604C99.6484 2.40472 100 3.67786 100 5.00536C100 6.33287 99.6484 7.606 99.0225 8.54469L52.3598 78.5313C52.0502 78.9969 51.6824 79.3662 51.2775 79.6183C50.8725 79.8703 50.4384 80 50 80C49.5616 80 49.1275 79.8703 48.7226 79.6183C48.3176 79.3662 47.9498 78.9969 47.6402 78.5313V78.5313Z" fill="#4689AF"/>
</svg>
