<svg width="202" height="167" viewBox="0 0 202 167" fill="none" xmlns="http://www.w3.org/2000/svg">
<g filter="url(#filter0_d_894:419)">
<path d="M115.9 130.275C114.648 130.278 113.411 130.052 112.28 129.613C111.149 129.174 110.152 128.533 109.364 127.738L68.8869 86.5979C67.6543 85.3711 66.9805 83.8321 66.9805 82.244C66.9805 80.6558 67.6543 79.1169 68.8869 77.89L110.788 36.7504C112.211 35.3502 114.255 34.4696 116.471 34.3025C118.687 34.1353 120.893 34.6952 122.605 35.859C124.316 37.0229 125.392 38.6953 125.597 40.5083C125.801 42.3214 125.116 44.1266 123.694 45.5269L86.2341 82.2783L122.437 119.03C123.462 120.036 124.113 121.262 124.313 122.561C124.513 123.861 124.254 125.18 123.566 126.363C122.879 127.546 121.791 128.543 120.433 129.236C119.074 129.93 117.501 130.29 115.9 130.275Z" fill="#D6556C"/>
</g>
<defs>
<filter id="filter0_d_894:419" x="-18.2843" y="0" width="237.697" height="201.127" filterUnits="userSpaceOnUse" color-interpolation-filters="sRGB">
<feFlood flood-opacity="0" result="BackgroundImageFix"/>
<feColorMatrix in="SourceAlpha" type="matrix" values="0 0 0 0 0 0 0 0 0 0 0 0 0 0 0 0 0 0 127 0" result="hardAlpha"/>
<feOffset dy="18.2843"/>
<feGaussianBlur stdDeviation="9.14214"/>
<feComposite in2="hardAlpha" operator="out"/>
<feColorMatrix type="matrix" values="0 0 0 0 0 0 0 0 0 0 0 0 0 0 0 0 0 0 0.25 0"/>
<feBlend mode="normal" in2="BackgroundImageFix" result="effect1_dropShadow_894:419"/>
<feBlend mode="normal" in="SourceGraphic" in2="effect1_dropShadow_894:419" result="shape"/>
</filter>
</defs>
</svg>
