<svg width="28" height="20" viewBox="0 0 28 20" fill="none" xmlns="http://www.w3.org/2000/svg">
<path d="M10 10.9375C10.5178 10.9375 10.9375 10.5178 10.9375 10C10.9375 9.48223 10.5178 9.0625 10 9.0625C9.48223 9.0625 9.0625 9.48223 9.0625 10C9.0625 10.5178 9.48223 10.9375 10 10.9375Z" fill="#C84456"/>
<path d="M14.4193 10.0003L16.5846 7.83507C16.8755 7.54504 17.1063 7.20051 17.2639 6.82118C17.4216 6.44185 17.5028 6.03517 17.5032 5.6244C17.5035 5.21363 17.4228 4.80683 17.2657 4.42726C17.1087 4.0477 16.8783 3.70283 16.5879 3.41237C16.2974 3.12191 15.9525 2.89156 15.573 2.73451C15.1934 2.57745 14.7866 2.49677 14.3758 2.49707C13.9651 2.49738 13.5584 2.57866 13.1791 2.73628C12.7997 2.8939 12.4552 3.12475 12.1652 3.41564L9.99987 5.58094L7.83457 3.41564C7.54439 3.12546 7.19989 2.89528 6.82075 2.73823C6.44161 2.58119 6.03525 2.50036 5.62487 2.50036C5.21449 2.50036 4.80813 2.58119 4.42898 2.73823C4.04984 2.89528 3.70535 3.12546 3.41517 3.41564C3.12498 3.70583 2.8948 4.05032 2.73775 4.42946C2.58071 4.8086 2.49988 5.21497 2.49988 5.62535C2.49988 6.03573 2.58071 6.44209 2.73775 6.82123C2.8948 7.20037 3.12498 7.54486 3.41517 7.83505L5.58046 10.0003L3.41517 12.1656C3.12427 12.4557 2.89342 12.8002 2.7358 13.1795C2.57818 13.5588 2.49689 13.9655 2.49658 14.3763C2.49628 14.7871 2.57696 15.1939 2.73401 15.5734C2.89107 15.953 3.12141 16.2979 3.41187 16.5883C3.70233 16.8788 4.0472 17.1091 4.42676 17.2662C4.80632 17.4232 5.21313 17.5039 5.6239 17.5036C6.03467 17.5033 6.44135 17.422 6.82068 17.2644C7.20001 17.1068 7.54454 16.8759 7.83457 16.585L9.99987 14.4197L12.1652 16.585C12.4553 16.8752 12.7998 17.1054 13.179 17.2625C13.5581 17.4195 13.9645 17.5003 14.3749 17.5003C14.7852 17.5003 15.1916 17.4195 15.5707 17.2625C15.9499 17.1054 16.2944 16.8752 16.5846 16.585C16.8747 16.2949 17.1049 15.9504 17.262 15.5712C17.419 15.1921 17.4999 14.7857 17.4999 14.3753C17.4999 13.965 17.419 13.5586 17.262 13.1795C17.1049 12.8003 16.8747 12.4558 16.5846 12.1656L14.4193 10.0003ZM9.99987 7.34875L12.6515 10.0003L9.99987 12.6519L7.34827 10.0003L9.99987 7.34875ZM13.0491 4.29951C13.2232 4.1253 13.4299 3.98709 13.6574 3.89278C13.8849 3.79847 14.1288 3.74991 14.3751 3.74987C14.6214 3.74983 14.8652 3.79831 15.0928 3.89255C15.3203 3.98678 15.5271 4.12492 15.7012 4.29907C15.8754 4.47323 16.0135 4.67999 16.1077 4.90753C16.2019 5.13508 16.2504 5.37897 16.2503 5.62525C16.2503 5.87153 16.2017 6.11539 16.1074 6.3429C16.0131 6.57041 15.8748 6.7771 15.7006 6.95118L13.5354 9.11644L10.8838 6.46485L13.0491 4.29951ZM6.95063 15.7012C6.77654 15.8754 6.56984 16.0136 6.34232 16.1079C6.11481 16.2022 5.87095 16.2508 5.62466 16.2508C5.37838 16.2509 5.1345 16.2024 4.90696 16.1081C4.67941 16.0139 4.47266 15.8758 4.29852 15.7016C4.12438 15.5275 3.98625 15.3207 3.89203 15.0932C3.79781 14.8656 3.74934 14.6217 3.74939 14.3754C3.74945 14.1292 3.79802 13.8853 3.89235 13.6578C3.98667 13.4303 4.12489 13.2236 4.29911 13.0495L6.46437 10.8843L9.11596 13.5358L6.95063 15.7012Z" fill="#C84456"/>
</svg>
